<svg version="1.1" id="Layer_1" xmlns="http://www.w3.org/2000/svg" xmlns:xlink="http://www.w3.org/1999/xlink" x="0px" y="0px"
	 width="100%" viewBox="0 0 848 880" enable-background="new 0 0 848 880" xml:space="preserve">
<path fill="#000000" opacity="1.000000" stroke="none" 
	d="
M705.217163,148.763824 
	C741.485168,182.741211 770.473633,221.672638 792.091858,266.055054 
	C806.005737,294.620605 816.417725,324.442261 822.927246,355.513306 
	C828.693176,383.035553 831.635193,410.848297 831.670776,439.101807 
	C831.699829,462.157562 829.981689,484.977722 825.928345,507.520599 
	C819.304871,544.357422 807.993225,579.773071 791.359802,613.472961 
	C775.096497,646.422913 754.801697,676.577393 730.315796,703.880859 
	C705.599243,731.441528 677.541870,755.130188 646.246704,774.981689 
	C620.388428,791.384399 592.994995,804.675293 564.140137,814.742615 
	C539.922852,823.191833 515.000244,828.849976 489.557098,832.758240 
	C460.740631,837.184631 431.902771,837.549194 402.992889,836.058777 
	C380.056580,834.876282 357.479675,830.802063 335.145172,825.306091 
	C307.066132,818.396545 280.109985,808.587402 254.157593,795.837646 
	C213.847717,776.034546 177.977997,750.156799 146.374268,718.268738 
	C108.102966,679.653076 79.037979,635.099548 58.931637,584.570251 
	C47.484619,555.802734 39.767460,526.077087 35.257019,495.556732 
	C32.569168,477.369171 30.820017,458.989502 30.981071,440.558411 
	C31.202019,415.273834 33.756210,390.220642 38.325485,365.298798 
	C43.121780,339.138702 50.508610,313.777924 60.577232,289.274597 
	C72.575302,260.075684 87.758545,232.549591 106.313972,206.895370 
	C122.595543,184.384918 140.948639,163.731384 161.534424,145.180084 
	C191.783417,117.920570 225.322693,95.490608 262.398590,78.407356 
	C289.440216,65.947533 317.509430,56.657707 346.531586,50.225918 
	C363.905457,46.375584 381.552948,44.278549 399.264069,42.571201 
	C417.382782,40.824562 435.503174,40.337204 453.632812,41.753410 
	C470.006622,43.032467 486.326080,44.704269 502.543121,47.611599 
	C538.173645,53.999302 572.299011,64.869934 604.941589,80.458885 
	C641.753418,98.038963 675.010376,120.848785 705.217163,148.763824 
M112.310730,674.210083 
	C137.349167,707.702271 166.905746,736.588806 200.996475,760.785461 
	C230.627502,781.816711 262.543060,798.603699 296.768646,810.809753 
	C327.752045,821.859619 359.585052,829.137573 392.436707,832.187744 
	C421.764557,834.910828 451.036804,834.585205 480.196716,831.306702 
	C499.161530,829.174377 517.877441,825.189941 536.396729,820.183411 
	C569.239685,811.304565 600.354919,798.395264 629.788574,781.521179 
	C668.844360,759.130859 703.180115,730.874268 732.662842,696.792358 
	C764.835876,659.600464 789.374939,617.903809 806.009033,571.637451 
	C817.545593,539.549377 824.578247,506.490082 827.388733,472.437225 
	C830.352478,436.527252 828.826172,400.857086 822.171265,365.553741 
	C815.987427,332.749054 805.519348,301.217346 791.069702,270.994385 
	C773.837585,234.951767 751.931702,202.144241 724.888000,172.782959 
	C688.892456,133.702774 646.778320,103.035088 598.551270,80.621590 
	C557.056580,61.336937 513.507202,49.600971 468.075104,45.639843 
	C436.708557,42.905056 405.261444,43.586792 373.931915,48.207146 
	C336.759888,53.689137 301.065765,64.030258 266.938934,79.542664 
	C212.580460,104.251404 166.069534,139.485092 127.452286,185.097763 
	C99.007141,218.695663 76.643768,255.960251 60.708775,296.950226 
	C46.278740,334.068939 37.538338,372.519592 35.237103,412.400848 
	C33.379192,444.599060 34.566376,476.585938 40.231270,508.365875 
	C44.623703,533.007263 51.378098,556.988586 60.380421,580.339905 
	C73.278679,613.796997 90.548096,644.840210 112.310730,674.210083 
z"/>
<path fill="#000000" opacity="1.000000" stroke="none" 
	d="
M264.018311,627.981140 
	C265.900635,626.907898 267.480560,628.644836 269.856567,628.612671 
	C269.511597,620.307312 267.973419,612.253784 266.863007,604.145325 
	C265.601135,594.931091 263.464447,585.883972 262.338074,576.610596 
	C261.399719,568.884827 259.861267,561.079285 259.055725,553.324585 
	C258.236389,545.437073 255.518372,537.875122 255.634628,529.858093 
	C255.672287,527.261475 254.858795,524.597351 254.111633,522.059204 
	C253.290131,519.268555 254.568069,518.912170 256.817383,519.018921 
	C262.896576,554.135315 267.759583,589.223022 273.465454,624.323975 
	C276.511688,616.595154 280.003937,609.244141 282.989227,601.664185 
	C285.133698,596.219299 287.613892,590.761047 289.681122,585.271179 
	C292.539429,577.680420 297.043060,570.689209 298.428223,562.596985 
	C298.845947,560.156616 300.562408,558.558411 301.175293,556.284729 
	C301.666534,554.462280 303.187042,555.174255 304.476807,556.431091 
	C297.182861,575.642517 289.860413,594.929016 282.537994,614.215515 
	C283.111206,614.503906 283.684418,614.792358 284.257629,615.080750 
	C322.681641,567.438843 359.105682,518.201172 397.711365,470.630768 
	C399.116943,473.955994 397.836304,476.371094 395.885498,477.984589 
	C392.210724,481.024078 389.921173,485.079010 386.998810,488.671844 
	C379.710785,497.631927 372.965179,507.009003 365.846924,516.099731 
	C346.993835,540.177002 327.547882,563.801331 309.547394,588.541992 
	C308.234436,590.346558 305.872681,591.399536 305.522675,594.071716 
	C313.728210,587.646057 318.586456,577.926514 328.228149,573.132568 
	C312.514160,592.651428 296.699097,612.058228 277.829163,628.894775 
	C279.735168,630.401978 281.416168,630.046509 282.969391,629.570557 
	C292.469513,626.659058 302.358551,625.106995 311.787842,622.259155 
	C320.248352,619.703918 328.804382,617.325562 337.352875,615.462280 
	C348.986115,612.926697 360.079987,608.335083 371.935822,606.844360 
	C373.308289,606.671753 374.872314,605.851929 376.991852,608.492432 
	C349.215027,616.934387 321.310730,622.644226 293.804901,629.782593 
	C293.851990,630.187439 293.899078,630.592346 293.946167,630.997192 
	C402.080200,630.997192 510.214233,630.997192 618.451416,630.997192 
	C619.516174,633.603088 620.190186,635.652649 616.404602,635.226929 
	C600.614807,633.450989 584.768555,634.326355 568.973450,634.595825 
	C509.146667,635.616150 449.329224,633.905823 389.506378,634.372986 
	C362.686188,634.582458 335.862793,634.384583 309.040863,634.373169 
	C301.646027,634.369995 294.251190,634.372681 286.856354,634.372681 
	C286.803680,634.962036 286.751007,635.551392 286.698303,636.140747 
	C315.947296,644.677612 345.196289,653.214539 374.625366,661.804016 
	C373.176727,665.072998 371.416779,663.873474 370.000977,663.460388 
	C349.585632,657.504272 329.187500,651.489258 308.781677,645.500488 
	C299.999481,642.923096 291.207794,640.377869 282.424072,637.805542 
	C281.455139,637.521851 280.503021,637.096741 279.613861,638.265259 
	C293.238251,653.308411 306.563843,668.649048 320.978088,682.992310 
	C322.247589,684.255615 324.771240,685.809692 322.441956,687.872803 
	C319.978210,690.054871 318.640747,687.374207 317.293243,685.835754 
	C308.490906,675.785950 299.730469,665.699402 290.930267,655.647644 
	C290.531464,655.192139 289.881653,654.956421 289.348755,654.618286 
	C289.003784,654.874695 288.658813,655.131104 288.313843,655.387512 
	C318.124390,702.044189 347.934906,748.700928 377.700134,795.286743 
	C375.571625,796.994080 374.774902,795.817261 373.994385,795.098694 
	C365.764099,787.520691 359.427246,778.617798 354.047516,768.765991 
	C349.572845,760.571533 343.627106,753.190796 338.525604,745.324707 
	C335.117859,740.070129 330.040558,734.568237 329.092712,729.308777 
	C326.777313,716.460999 317.440430,708.296265 311.742798,697.842102 
	C305.938629,687.192627 298.788300,677.279175 292.276978,667.012024 
	C287.371918,659.277588 282.536407,651.499023 277.692169,643.726196 
	C276.893799,642.445251 276.040039,641.253113 273.491425,639.812927 
	C271.832336,656.595276 270.227356,672.830444 268.622345,689.065552 
	C267.798218,688.985596 266.974060,688.905640 266.149902,688.825684 
	C266.026825,681.043701 267.957001,673.365967 268.411804,665.605591 
	C268.883453,657.557617 269.370300,649.508057 270.640411,640.585144 
	C264.744324,643.763123 262.273987,648.804321 258.758240,652.708862 
	C249.639313,662.836243 240.908569,673.312500 231.980576,683.612854 
	C230.444336,685.385193 228.996475,687.159180 228.000549,689.318909 
	C227.425201,690.566528 226.389450,691.661926 224.846527,690.517334 
	C223.315659,689.381714 223.437607,688.204834 224.772675,686.784485 
	C236.300095,674.520447 246.507660,661.135132 257.395813,648.327576 
	C260.274384,644.941467 263.629852,641.960815 266.266815,637.916199 
	C264.343079,636.743469 263.048279,635.442017 260.990112,638.066101 
	C258.892639,640.740479 255.079269,640.963989 252.096008,642.062500 
	C241.793518,645.856384 231.068008,648.498840 220.754608,652.266785 
	C213.211380,655.022644 205.068573,655.808289 197.884125,659.584106 
	C196.151871,660.494568 194.109497,661.352417 193.263794,658.974548 
	C192.290665,656.238342 194.798782,656.573669 196.519287,656.015442 
	C210.932541,651.339539 225.279449,646.459045 239.692673,641.783020 
	C243.749924,640.466736 248.223923,640.407471 252.220413,636.940308 
	C213.208420,640.662170 174.720535,645.022461 136.142578,648.217407 
	C136.053375,647.394592 135.964172,646.571838 135.874969,645.749023 
	C145.613007,643.530701 155.697250,643.406128 166.228546,641.648682 
	C159.781723,638.338562 153.368591,643.833801 147.091064,640.432678 
	C149.575500,637.696472 153.024704,637.570251 155.357819,637.843506 
	C162.080139,638.630737 168.339172,635.916931 174.983139,636.280457 
	C184.251434,636.787598 193.409912,634.261169 202.752213,634.725098 
	C207.287872,634.950256 211.803711,633.649597 216.304855,633.213318 
	C220.456360,632.810974 224.819458,632.794495 229.111938,634.084778 
	C231.978912,634.946533 235.281235,634.630066 238.365295,634.446716 
	C246.168457,633.982971 253.957138,633.279846 261.754272,632.708679 
	C264.603424,632.500000 265.856262,631.436951 264.100555,628.297485 
	C264.000458,627.999512 264.018311,627.981140 264.018311,627.981140 
M178.299133,640.910339 
	C179.881638,640.563232 181.710968,641.023926 182.895081,639.138306 
	C178.744141,642.151917 173.295334,637.694397 169.420975,642.251953 
	C172.114578,641.823669 174.808182,641.395386 178.299133,640.910339 
z"/>
<path fill="#000000" opacity="1.000000" stroke="none" 
	d="
M429.223999,219.059509 
	C428.720795,222.724518 430.154327,226.398422 427.297974,229.553299 
	C423.386108,227.325760 425.502625,223.025085 423.388062,219.919891 
	C422.689789,223.207672 423.976929,226.881805 420.232941,229.378830 
	C418.766541,217.142227 416.172516,205.069321 416.548920,191.786728 
	C419.606079,195.545578 419.606079,195.545578 420.615723,202.558014 
	C420.701447,200.781784 420.710724,198.997620 420.894562,197.231598 
	C421.075867,195.489655 420.804352,193.501923 423.190582,192.263779 
	C426.596069,196.038544 425.477478,200.808197 426.168457,205.266144 
	C427.701721,201.056961 426.132080,196.082672 429.682587,192.154572 
	C434.755646,195.545380 430.039001,201.326019 433.228485,204.972244 
	C436.098541,201.344620 432.221466,196.172546 436.334137,192.116989 
	C439.443695,197.125839 438.065155,203.012909 440.491455,207.550323 
	C442.977112,202.975250 439.494080,197.161346 442.802551,191.946533 
	C447.496918,196.172958 445.145905,201.390610 446.456390,205.894073 
	C447.483063,201.410233 446.377441,196.445786 449.479218,192.173615 
	C455.507751,194.849243 449.806824,201.005569 453.404205,204.466812 
	C454.534058,202.424240 454.369507,200.367111 454.291046,198.251221 
	C454.210022,196.067429 454.764740,193.990707 456.637970,192.278503 
	C460.478302,195.187256 456.315094,200.751434 460.472443,203.428360 
	C463.697784,200.347504 458.385132,195.157394 463.005463,192.256592 
	C465.542267,193.805008 465.353027,196.311447 465.732422,198.505508 
	C466.382721,202.266403 466.989197,206.041626 467.411926,209.833359 
	C467.924622,214.431915 470.439240,215.940338 474.891296,215.729523 
	C480.543243,215.461884 486.220947,215.791183 491.883270,215.667603 
	C495.073151,215.597977 496.494720,216.845459 496.352081,220.064285 
	C496.241577,222.557999 496.373230,225.061874 496.374756,227.561249 
	C496.377197,231.540894 495.698486,235.765015 501.488464,236.690445 
	C502.565674,236.862625 503.369751,238.743515 504.503601,240.075058 
	C506.932953,237.851593 506.484985,234.894958 506.557617,232.297867 
	C506.753265,225.304947 506.658051,218.303238 506.632263,211.305176 
	C506.623871,209.030716 506.735199,207.167084 509.602509,206.404251 
	C513.412598,205.390640 512.961731,201.063049 515.127319,197.959946 
	C518.109131,201.218079 516.858521,207.676376 523.417847,207.547653 
	C525.758118,206.329163 526.719055,201.120819 531.268372,204.008575 
	C533.377441,200.662720 532.083435,196.658905 535.441345,192.824402 
	C536.306580,197.983154 537.030396,202.299072 537.824280,207.032776 
	C540.748901,205.888687 542.579163,207.070526 543.469604,210.481659 
	C547.979614,204.894714 548.629456,198.486984 550.912903,192.417770 
	C551.481995,198.090195 555.263794,202.381699 556.051086,207.594910 
	C556.476990,210.415100 557.437988,212.924194 559.223083,214.711929 
	C563.390625,218.885696 564.466248,223.831726 564.028015,229.357880 
	C563.691833,233.597977 564.495361,236.704193 569.789001,236.189590 
	C571.553040,236.018127 572.857727,237.202911 575.091064,238.867950 
	C575.091064,232.098709 575.580261,226.002518 574.979248,220.015778 
	C574.018372,210.444397 578.827759,203.717422 584.551025,197.130920 
	C589.928223,198.900192 587.806763,204.582108 590.549622,207.559464 
	C593.411255,210.665695 592.618591,215.039719 593.868774,218.816666 
	C596.643372,217.890091 596.516785,215.747849 596.686218,213.836670 
	C597.242065,207.568161 599.413940,202.265045 605.663452,199.742859 
	C609.086853,198.361252 606.999817,193.969513 610.069031,192.326340 
	C615.043396,195.075851 610.182861,201.939972 615.813965,204.428665 
	C620.715210,202.177872 616.867004,195.441025 621.633911,191.645233 
	C622.423096,196.732925 624.313660,200.948929 625.220581,205.177246 
	C627.218018,214.489792 633.015015,222.909698 631.786194,232.978577 
	C631.534668,235.039139 633.092529,235.998871 634.981812,235.968018 
	C638.234009,235.914917 640.792175,236.794113 642.339966,240.531479 
	C646.132996,230.128403 642.929382,219.392258 644.670837,208.697983 
	C648.520874,209.826401 649.372070,207.114090 649.582092,204.205261 
	C649.936157,199.300385 653.051025,196.644455 656.906799,194.100800 
	C661.015808,200.996323 665.575989,207.365448 666.732178,216.796066 
	C670.035706,210.302765 669.861145,204.395340 671.906311,198.502731 
	C678.918945,203.357254 678.656250,196.524139 680.355957,192.786789 
	C685.675659,196.172409 680.708374,203.444016 686.726379,206.060547 
	C690.282349,202.219955 687.172058,196.526688 690.123352,192.633545 
	C690.653137,192.722473 691.195435,192.705170 691.233582,192.835526 
	C692.838074,198.312622 694.989929,203.717926 695.792847,209.315887 
	C696.566040,214.705887 697.624756,219.666672 701.239990,223.877365 
	C703.201477,226.161942 702.333923,229.003067 702.311890,231.584473 
	C702.284912,234.744568 703.399170,236.144501 706.675476,236.106247 
	C709.898315,236.068619 711.737549,235.076523 711.663513,231.518417 
	C711.556030,226.355164 711.589722,221.187653 711.650269,216.022980 
	C711.671143,214.242798 711.189575,212.343170 712.476440,210.686783 
	C714.853027,210.834290 714.279053,212.729309 714.290222,214.010605 
	C714.357056,221.674652 714.368652,229.340561 714.260803,237.003906 
	C714.228149,239.322708 714.015320,241.963806 711.479309,242.960983 
	C709.152771,243.875809 708.548218,241.510376 707.439819,240.134567 
	C706.981201,239.565277 706.017517,239.061264 705.307007,239.090866 
	C699.920837,239.315308 698.924744,236.333069 699.559509,231.780197 
	C700.012756,228.529541 699.507324,225.518921 696.429871,223.443542 
	C694.160583,221.913193 693.489441,219.601288 693.628235,216.900192 
	C693.782959,213.888855 693.694336,210.866791 691.024292,208.402740 
	C685.515930,212.921402 690.760193,220.260498 686.488525,226.029297 
	C683.265015,220.038467 686.109070,213.118866 681.325073,208.408371 
	C678.633057,207.644913 675.318176,213.347824 672.742249,207.479797 
	C670.165527,213.385391 672.066162,220.117035 667.776062,225.525269 
	C662.049316,218.700775 665.549194,207.725006 655.725098,203.183060 
	C652.710388,203.948486 651.962830,207.035675 650.492310,210.264160 
	C646.632874,218.737289 647.031677,227.501022 647.084167,236.351181 
	C647.100647,239.119003 647.457764,242.332123 643.654114,243.187881 
	C640.049744,243.998840 637.365112,242.990128 636.942322,238.979782 
	C629.031006,238.868027 628.951721,238.868591 628.895813,231.062363 
	C628.828552,221.669296 624.256653,213.795776 620.744263,204.152023 
	C617.700623,211.497803 618.918335,218.288895 616.765869,225.186249 
	C611.118591,219.900269 616.289124,211.820786 610.483337,207.392288 
	C608.858459,209.156570 609.949585,211.935516 607.911926,213.286057 
	C600.755310,210.370377 600.001221,210.837296 598.309875,219.013306 
	C597.847229,221.249832 597.704712,223.600861 595.855774,226.537567 
	C589.459656,220.185532 588.877441,211.482117 585.162720,204.432098 
	C584.189331,204.039551 583.269287,204.615479 583.073181,205.277771 
	C581.477722,210.665054 576.834595,214.833298 577.315186,221.120895 
	C577.745667,226.752930 577.382996,232.444443 577.401611,238.109619 
	C577.409241,240.425095 577.070557,242.520355 574.359924,243.115799 
	C572.103638,243.611404 571.021851,242.466202 570.463562,240.343689 
	C569.862244,238.058075 567.731689,238.741089 566.237488,238.709885 
	C562.171692,238.625046 560.572083,236.606171 560.742249,232.704636 
	C560.851074,230.210587 560.753235,227.706650 560.718750,225.207565 
	C560.700439,223.879700 560.901306,222.352844 559.839966,221.412094 
	C555.182312,217.283493 552.694153,211.791245 550.085144,204.978500 
	C546.905884,213.684479 545.043701,221.386902 544.316284,229.475067 
	C540.653259,224.890182 542.097351,219.369186 539.965454,214.333786 
	C537.326111,214.615219 534.531189,214.529541 534.746338,210.081833 
	C532.569763,212.506226 533.964966,215.715530 531.424500,217.229080 
	C529.026367,216.508911 530.183472,213.545120 527.983215,212.139725 
	C523.747803,216.052734 526.134460,222.502625 522.327759,227.844925 
	C520.055237,221.193817 521.535522,213.626419 514.309509,210.552750 
	C510.538239,214.593597 508.700684,219.582199 509.264526,225.613815 
	C509.650482,229.742798 509.306396,233.938202 509.330139,238.103668 
	C509.342865,240.330826 508.506165,242.083786 506.378387,242.834259 
	C504.297272,243.568283 502.504181,243.079956 500.325195,242.055496 
	C494.044495,239.102631 493.501617,234.176620 493.728882,228.168350 
	C494.102936,218.279510 493.811371,218.245804 483.743347,218.328201 
	C480.577606,218.354126 477.408691,218.273315 474.246490,218.387421 
	C469.866913,218.545471 465.439789,218.948227 464.218811,212.295746 
	C460.228058,218.037201 464.607361,224.553528 460.693237,229.716919 
	C456.512848,225.814041 459.138123,220.408859 456.518555,215.868286 
	C454.455444,220.522873 455.578278,225.271545 453.526215,229.213959 
	C449.229645,228.135925 445.078339,228.351181 440.637177,229.036896 
	C436.905731,224.553604 440.430786,218.318512 437.444519,213.324570 
	C433.586884,218.231461 438.061890,224.824570 433.857544,229.963348 
	C431.211639,226.713882 431.200958,223.515259 431.514130,220.192184 
	C431.620239,219.066483 431.619812,217.655106 430.217316,217.276535 
	C429.495056,217.081573 429.335938,218.043869 429.223999,219.059509 
z"/>
<path fill="#000000" opacity="1.000000" stroke="none" 
	d="
M617.615906,467.201996 
	C582.611023,468.486877 547.977539,467.081085 513.346191,467.459930 
	C509.264557,467.504547 507.745667,466.075134 507.762238,461.965393 
	C507.861572,437.306580 507.836578,412.646881 507.728180,387.988037 
	C507.711060,384.095856 509.173706,382.759491 513.058899,382.775146 
	C546.371765,382.909576 579.685303,382.948761 612.998291,382.859558 
	C617.442627,382.847687 619.225769,384.240417 619.203735,388.883331 
	C619.087585,413.373932 619.219910,437.865692 619.234375,462.357025 
	C619.235352,463.993378 619.345947,465.730072 617.615906,467.201996 
M611.843262,419.692047 
	C613.190186,410.077972 612.431274,400.399323 612.744324,390.753662 
	C612.843384,387.700439 611.692322,386.064545 608.431030,386.068878 
	C585.443054,386.099548 562.455139,386.092041 539.467163,386.069794 
	C536.511780,386.066956 535.273438,387.397888 535.404114,390.370544 
	C536.120544,406.658356 536.442749,422.972137 537.592957,439.227997 
	C538.074158,446.027863 537.928345,452.857452 538.770752,459.642761 
	C539.261597,463.596466 541.110596,464.926147 545.008423,464.899475 
	C564.997253,464.762665 584.988281,464.728394 604.976624,464.894531 
	C609.346130,464.930847 610.768005,463.394501 610.813354,459.100494 
	C610.948669,446.280884 611.447876,433.465088 611.843262,419.692047 
z"/>
<path fill="#000000" opacity="1.000000" stroke="none" 
	d="
M207.028168,365.037109 
	C196.904877,360.818176 187.052124,356.105011 178.351883,348.974091 
	C177.481674,350.349121 179.490692,351.713837 177.955200,352.625702 
	C176.643738,353.404572 175.700409,352.479584 174.910095,351.698364 
	C172.144379,348.964417 168.562866,347.008545 166.659103,343.837830 
	C167.296097,341.774475 168.945007,342.895508 169.993240,341.752441 
	C168.219604,339.666168 166.427719,337.558380 164.647614,335.464478 
	C161.032516,337.798981 158.705841,336.066620 154.414688,328.451233 
	C153.014496,325.966339 153.371445,324.653717 156.613663,324.433838 
	C155.428970,322.581573 154.451111,321.052704 153.109985,319.003906 
	C151.510300,315.668854 150.273911,312.853760 149.037537,310.038635 
	C147.473068,304.521759 145.908615,299.004852 144.150970,292.843262 
	C143.677734,291.172852 143.397690,290.147095 143.117645,289.121368 
	C142.102020,275.856140 142.880081,262.720673 145.985199,249.367676 
	C146.003662,248.983017 145.979553,249.014069 145.979553,249.014069 
	C149.450653,242.012985 151.659286,234.461517 155.722366,227.695770 
	C162.691589,216.090744 172.011292,206.732635 182.782898,198.236328 
	C182.997772,198.004486 182.972534,198.029221 182.972534,198.029221 
	C193.007477,191.933960 203.535843,186.916962 214.980408,183.944550 
	C214.869186,180.165894 212.906250,180.481140 210.591599,180.926514 
	C206.850128,181.646469 203.813614,184.458115 199.416077,184.175171 
	C198.983582,183.917816 198.722549,183.514038 198.722549,183.514038 
	C200.991302,179.118271 206.000931,180.117126 209.545349,178.178146 
	C211.795563,176.947159 214.264923,176.361557 215.114548,173.476852 
	C219.186951,175.849442 217.098297,180.179184 219.215057,183.495514 
	C225.623901,181.181168 217.807907,174.839111 222.509033,172.285767 
	C226.478165,174.573181 223.814606,178.551437 224.659363,181.921188 
	C248.669815,179.728470 270.841553,184.973648 290.623749,198.251221 
	C294.118225,196.708908 294.425537,192.183365 298.427216,191.752090 
	C299.979797,195.895035 293.723206,197.250732 295.213562,201.491241 
	C299.002625,200.701187 299.291504,195.596619 303.152466,195.382431 
	C304.571136,197.176849 302.870209,198.167969 301.956055,199.938843 
	C301.325653,200.793671 301.068207,201.125320 300.587769,201.604858 
	C297.708435,203.544052 299.207092,204.890732 300.769073,206.381638 
	C305.560730,210.955246 309.855743,215.978424 313.965973,221.166656 
	C314.603149,221.970978 315.057587,223.415283 316.923859,222.313492 
	C316.242798,217.916107 311.115906,215.674515 311.011536,210.993713 
	C310.999084,211.003784 310.974945,211.026382 310.974945,211.026382 
	C314.124603,210.890396 315.027832,213.637634 316.473145,215.514343 
	C318.468079,218.104736 320.090027,221.037689 324.182404,219.559280 
	C324.337616,222.439667 322.116211,222.767578 320.835052,223.874695 
	C319.531006,225.001587 317.200592,225.539780 318.330078,228.018631 
	C319.352997,230.263596 320.236938,232.788818 323.466888,232.665634 
	C324.464844,232.627563 325.492645,232.508514 326.459686,232.684830 
	C329.478424,233.235229 333.159393,230.953079 335.365875,235.061829 
	C338.338226,240.596802 340.679901,245.703003 337.506531,252.393341 
	C334.127869,259.516510 333.218475,267.138824 338.138947,274.550598 
	C339.888489,277.185913 339.738098,281.283752 337.097046,283.306549 
	C329.637787,289.019623 328.510193,297.499634 326.219666,305.564789 
	C325.465912,308.218842 324.468689,310.803741 323.353668,314.096985 
	C325.841492,312.299622 325.564117,309.104431 328.323029,308.640991 
	C329.591980,311.567078 327.284027,317.769073 323.444366,321.755005 
	C321.122070,320.947632 322.690094,318.863037 321.766479,316.762543 
	C315.535461,329.199066 306.769684,339.099731 297.155396,348.727600 
	C296.994995,349.005127 297.012726,348.981934 297.012726,348.981934 
	C294.076569,349.421265 292.055695,351.528717 289.793182,353.107056 
	C283.136108,357.750977 275.712311,360.941437 268.284180,364.818848 
	C268.014526,365.000671 268.048126,364.975861 267.623169,364.992676 
	C262.089813,364.768799 257.687866,367.684418 252.714127,368.186157 
	C237.968903,369.673615 223.317917,369.987305 208.762939,365.575623 
	C208.074295,365.371765 207.551224,365.204437 207.028168,365.037109 
M155.034485,315.448212 
	C176.238190,357.805939 225.593735,377.224243 270.036072,359.934052 
	C299.016846,348.659149 316.999420,327.083191 325.623718,297.414734 
	C327.080017,292.404938 325.459625,288.894409 321.396118,285.856445 
	C317.079407,282.629211 316.727722,277.560547 319.037628,272.660767 
	C321.972473,266.435272 321.918427,259.636200 319.359253,253.417786 
	C317.730957,249.461243 316.738037,245.436783 318.060089,241.848724 
	C319.711304,237.367294 318.302856,234.116653 316.229156,230.653152 
	C298.443054,200.946884 271.891876,185.216782 237.628113,184.660645 
	C206.736740,184.159256 181.571609,197.478043 163.167725,222.489044 
	C150.937729,239.109680 145.428955,257.929596 145.965851,278.674774 
	C146.296005,291.431488 149.706543,303.249512 155.034485,315.448212 
M326.239807,259.584930 
	C328.517426,259.789368 330.825073,259.842224 330.617493,256.616302 
	C330.495209,254.715912 328.887115,253.244125 327.260010,253.902756 
	C325.071259,254.788666 323.775940,256.780823 326.239807,259.584930 
z"/>
<path fill="#000000" opacity="1.000000" stroke="none" 
	d="
M673.370728,330.631165 
	C679.687805,337.252441 685.762329,343.617310 692.970154,351.169708 
	C697.721436,333.944763 702.169983,317.817261 706.655579,301.555511 
	C710.786316,302.417206 712.954224,304.710480 715.294434,307.374359 
	C712.664612,309.265930 711.282471,306.565247 708.510864,306.782227 
	C703.043274,322.409546 699.961304,339.189087 694.756897,354.987274 
	C692.199524,355.411713 691.445068,353.857971 690.473206,352.839020 
	C682.080811,344.039124 673.741028,335.189087 665.373657,326.365265 
	C663.892700,324.803497 662.516418,323.252319 659.984680,323.204590 
	C655.983826,323.129211 653.952942,320.718262 653.767822,316.824799 
	C653.646973,314.283386 652.913940,312.713135 649.942078,312.865051 
	C646.065491,313.063141 644.329285,310.564758 643.195801,306.039093 
	C637.915771,321.953369 632.946777,336.930084 628.072510,351.621460 
	C625.471680,352.310516 624.496826,350.748016 623.384949,349.600616 
	C617.473022,343.499847 611.592163,337.368927 605.715515,331.234161 
	C602.764954,328.153992 600.296997,324.668335 595.168762,324.658905 
	C592.453247,324.653931 590.956421,321.998535 590.869629,319.287231 
	C590.787109,316.711700 590.189697,315.320007 587.228577,315.209381 
	C583.459961,315.068604 581.560486,312.692993 581.610352,308.939850 
	C581.653992,305.656769 579.967529,303.775330 576.498474,302.263336 
	C570.080322,317.199036 566.619934,332.984375 560.541138,347.238190 
	C553.886230,341.120331 547.502441,335.371307 541.266663,329.466095 
	C538.368652,326.721741 535.763245,323.669037 533.014954,320.765869 
	C531.612122,319.283997 530.120483,318.139740 527.846069,318.227844 
	C523.901489,318.380676 521.949219,315.954468 521.824768,312.370422 
	C521.688599,308.448639 520.110413,307.135132 516.219177,307.414856 
	C513.204712,307.631561 511.136932,305.612396 510.828613,302.599854 
	C510.531342,299.695160 510.746948,296.740723 507.748535,293.276367 
	C512.243835,294.279297 514.904053,295.376648 517.821716,295.627716 
	C520.836060,295.887115 522.057556,298.766235 522.033020,301.610046 
	C522.001709,305.250275 523.513000,306.667969 527.135437,306.633545 
	C531.444092,306.592621 533.688904,308.883453 532.933716,313.316071 
	C532.652893,314.964691 532.838806,316.181122 533.999146,317.388062 
	C541.733154,325.432800 549.426514,333.516663 557.159607,341.562378 
	C557.467346,341.882629 558.041931,341.946442 559.278076,342.449677 
	C564.480835,327.215240 569.650269,312.078583 574.740967,297.172516 
	C577.723572,297.259033 578.838013,298.882812 579.975708,300.221130 
	C581.923401,302.512299 584.013794,303.887268 587.243347,303.695709 
	C590.868225,303.480682 592.815796,305.822418 593.020691,309.235291 
	C593.187622,312.016876 593.964478,313.540161 597.046997,313.667145 
	C600.473877,313.808350 602.247192,316.233887 602.091553,319.349945 
	C601.929443,322.596741 603.408569,324.644531 605.441284,326.733124 
	C611.249451,332.701019 616.970093,338.754059 622.757568,344.742279 
	C623.641907,345.657257 624.306885,346.966644 626.533691,346.965271 
	C631.636597,331.444458 636.800659,315.737701 642.037109,299.810822 
	C647.788452,302.622253 657.923096,298.947601 654.828674,310.357605 
	C656.373474,312.223511 657.950317,311.158966 659.352600,311.237579 
	C662.481567,311.413086 665.197021,313.383148 664.894226,315.956146 
	C664.051697,323.115112 669.626526,326.036835 673.370728,330.631165 
z"/>
<path fill="#000000" opacity="1.000000" stroke="none" 
	d="
M211.000000,447.873016 
	C190.178314,447.717590 169.856628,447.562775 149.534943,447.407654 
	C149.035126,447.403839 148.533447,447.423157 148.035889,447.386932 
	C146.240433,447.256317 144.086288,447.546875 143.925659,444.894867 
	C143.755692,442.088684 145.773193,441.718781 147.925644,441.671600 
	C156.416901,441.485291 164.925674,440.886658 173.395599,441.232849 
	C185.064835,441.709808 196.704498,441.160309 208.356369,441.168945 
	C244.505386,441.195740 280.654236,441.452515 316.803253,441.593292 
	C319.422028,441.603485 322.129944,441.972473 324.597198,440.475983 
	C320.401489,434.747833 320.244965,428.593475 322.275879,422.156250 
	C323.091644,419.570526 324.673859,418.220001 327.488861,418.724518 
	C327.977997,418.812195 328.456604,419.126007 328.930206,419.105743 
	C332.076294,418.971008 335.990814,417.159332 337.130402,422.001251 
	C338.487030,427.765564 340.180267,433.702026 335.654846,439.024933 
	C334.800812,440.029480 333.372040,441.041870 333.295105,442.127625 
	C332.885864,447.902557 329.142151,447.405304 324.915894,447.498962 
	C287.111298,448.337067 249.303818,447.514191 211.000000,447.873016 
M330.254822,422.244751 
	C328.417877,422.508453 325.795227,421.329010 325.359161,425.366577 
	C328.314880,425.146759 330.927704,424.952454 333.515625,424.760010 
	C333.759033,422.350616 332.381622,422.292877 330.254822,422.244751 
z"/>
<path fill="#000000" opacity="1.000000" stroke="none" 
	d="
M565.000122,476.626160 
	C581.496216,476.628662 597.494263,476.769196 613.487305,476.549408 
	C618.104919,476.485992 619.496033,478.059906 619.463074,482.602020 
	C619.284973,507.094757 619.297546,531.589966 619.447937,556.083069 
	C619.474792,560.461304 618.052002,561.763550 613.650146,561.730774 
	C580.497009,561.483765 547.341553,561.386414 514.188049,561.528687 
	C509.707916,561.547913 507.857880,560.713013 507.886597,555.900024 
	C508.032562,531.407104 508.021332,506.911835 507.821930,482.419373 
	C507.783539,477.705536 509.663300,476.309052 514.019043,476.357086 
	C530.844971,476.542572 547.672913,476.552032 565.000122,476.626160 
M511.118683,552.159912 
	C510.718964,556.613831 512.834961,558.607422 517.222290,558.604187 
	C548.540649,558.581421 579.858948,558.574402 611.177307,558.610535 
	C615.174316,558.615173 616.821228,556.912659 616.745667,552.839844 
	C616.572693,543.514160 616.695251,534.183044 616.695801,524.854126 
	C616.696472,512.026917 616.536438,499.196777 616.774048,486.374023 
	C616.867615,481.326202 614.672424,479.380798 609.983093,479.506287 
	C606.156311,479.608673 602.330078,479.877380 598.504639,479.859344 
	C572.206421,479.735474 545.908630,479.523560 519.610413,479.414276 
	C512.245178,479.383667 511.163818,480.528137 511.151794,487.761444 
	C511.116608,508.918030 511.115051,530.074646 511.118683,552.159912 
z"/>
<path fill="#000000" opacity="1.000000" stroke="none" 
	d="
M605.729980,709.099487 
	C607.294067,705.689087 609.028870,705.867188 609.710938,708.993896 
	C610.178589,711.138306 611.319885,711.534912 612.936340,712.105530 
	C623.378174,715.791809 627.212708,721.856262 626.314209,733.101562 
	C625.749084,740.175476 619.158264,746.624817 610.983948,748.102844 
	C602.639771,749.611511 594.024902,744.902832 590.259399,736.723633 
	C588.843018,733.647034 589.012573,729.258789 583.374329,730.342896 
	C579.805725,731.029114 576.052856,730.713623 574.033264,735.613708 
	C572.216003,731.557190 569.493103,730.950623 566.073242,730.961121 
	C562.311279,730.972717 560.624023,732.290710 559.314026,735.911133 
	C554.149719,750.182922 537.411804,753.534973 526.963501,743.017273 
	C519.944519,735.951599 520.329529,717.898499 534.234192,713.389099 
	C538.928833,711.866577 538.888062,711.740967 541.232971,708.170105 
	C542.310120,711.449890 544.633240,712.552185 547.647583,713.384277 
	C553.482422,714.994934 557.217773,719.347778 559.315857,724.872131 
	C560.501953,727.994995 562.269348,728.506104 565.404480,728.362610 
	C572.877625,728.020447 580.377136,728.252258 587.997131,728.252258 
	C589.645691,725.041077 590.381531,721.750366 592.435181,719.089600 
	C594.744019,716.098206 597.476807,713.851135 601.091431,712.640686 
	C602.895264,712.036621 605.203857,712.010254 605.729980,709.099487 
M620.876892,720.727417 
	C618.280762,717.544189 615.048950,715.440735 611.415100,714.752380 
	C609.305481,715.483093 610.005188,718.259766 607.391602,718.287048 
	C605.199829,712.995056 601.801331,714.915283 598.501282,717.266541 
	C589.128296,723.944763 590.060181,737.968201 600.194092,743.409119 
	C606.903625,747.011475 614.020630,745.970154 619.423218,740.595581 
	C624.468872,735.576172 625.133911,728.824158 620.876892,720.727417 
M525.914001,735.341187 
	C529.896606,743.876404 535.293152,746.973633 544.120117,745.790161 
	C551.545593,744.794556 557.024231,738.138916 556.876831,730.292847 
	C556.726501,722.292664 551.810852,716.782654 544.013184,715.873962 
	C541.434814,720.877075 541.146851,720.881775 537.541870,715.979858 
	C528.796448,717.573486 524.216553,724.728333 525.914001,735.341187 
z"/>
<path fill="#000000" opacity="1.000000" stroke="none" 
	d="
M263.991455,628.008423 
	C256.955750,625.184387 250.698288,621.036499 244.592514,616.637390 
	C243.388519,615.769958 242.414139,614.435791 241.096619,613.898132 
	C233.184387,610.669189 227.249207,604.421814 219.986099,600.119934 
	C212.979065,595.969666 206.765656,590.332825 199.472900,586.373413 
	C198.328812,585.752197 197.229233,584.374084 197.354294,582.340942 
	C202.064484,581.612671 204.661148,585.353516 207.861420,587.467468 
	C216.367233,593.085938 224.923233,598.625305 233.453751,604.200500 
	C243.630478,610.851562 253.241699,618.369080 263.063690,625.557983 
	C263.531494,625.900452 263.668182,626.695312 263.988708,627.630310 
	C264.018311,627.981140 264.000458,627.999512 263.991455,628.008423 
z"/>
<path fill="#000000" opacity="1.000000" stroke="none" 
	d="
M206.631058,365.010925 
	C207.551224,365.204437 208.074295,365.371765 208.974274,365.880066 
	C211.349350,367.674500 213.223648,369.367615 215.912354,369.421387 
	C225.654602,369.616211 235.284470,372.169922 245.048752,371.225067 
	C253.013596,370.454315 261.198547,370.044556 268.048126,364.975861 
	C268.048126,364.975861 268.014526,365.000671 267.998657,365.014801 
	C271.239319,365.254486 274.280029,363.002411 277.802765,364.004547 
	C265.727356,376.248016 216.431717,377.957947 199.269455,365.324677 
	C201.537720,362.915253 203.972610,365.240906 206.631058,365.010925 
z"/>
<path fill="#000000" opacity="1.000000" stroke="none" 
	d="
M427.744019,681.109009 
	C411.370575,675.375427 394.941162,671.123901 378.705536,666.234009 
	C377.374786,665.833252 375.832367,665.625061 376.454376,663.775757 
	C377.062256,661.968506 378.398407,662.758179 379.747803,663.098206 
	C387.212524,664.979309 394.293854,668.262573 402.111176,668.907471 
	C405.572510,669.193054 408.326202,671.730042 411.795654,672.599976 
	C421.789856,675.105896 431.635498,678.212219 441.504425,681.198669 
	C442.634796,681.540710 444.102722,682.031677 444.293762,684.116699 
	C438.451324,685.402283 433.544830,681.568604 427.744019,681.109009 
z"/>
<path fill="#000000" opacity="1.000000" stroke="none" 
	d="
M263.963043,749.045044 
	C263.556244,751.247009 262.819275,752.812988 260.625305,751.988708 
	C258.776978,751.294250 259.295929,749.591309 259.519348,748.113403 
	C260.862946,739.225037 261.525208,730.289612 262.096802,721.312256 
	C262.684601,712.080994 265.030670,702.985657 264.842804,693.638123 
	C264.815430,692.277710 265.279358,690.886169 267.077118,690.937195 
	C269.200897,690.997437 269.577454,692.699036 269.188110,694.131714 
	C266.514130,703.970825 267.196472,714.187805 265.893982,724.188660 
	C264.848114,732.218933 263.019745,740.379761 263.963043,749.045044 
z"/>
<path fill="#000000" opacity="1.000000" stroke="none" 
	d="
M514.774658,263.141235 
	C509.924164,261.668854 505.004242,264.236816 500.676544,261.252075 
	C523.833130,260.221191 546.951172,259.469086 570.083191,261.529358 
	C551.822327,263.719238 533.478516,262.428436 514.774658,263.141235 
z"/>
<path fill="#000000" opacity="1.000000" stroke="none" 
	d="
M297.608582,481.074921 
	C279.169586,481.080383 261.189423,481.080383 243.209259,481.080383 
	C243.212967,480.462830 243.216660,479.845306 243.220367,479.227753 
	C268.222229,479.227753 293.224060,479.227753 318.225922,479.227753 
	C311.663361,482.116974 304.770874,480.331238 297.608582,481.074921 
z"/>
<path fill="#000000" opacity="1.000000" stroke="none" 
	d="
M293.002716,470.748260 
	C301.867188,470.760712 310.231720,470.760712 319.552795,470.760712 
	C315.724823,473.746674 246.707336,473.940887 243.046112,470.735809 
	C259.531677,470.735809 276.017212,470.735809 293.002716,470.748260 
z"/>
<path fill="#000000" opacity="1.000000" stroke="none" 
	d="
M263.009033,462.395477 
	C258.324371,461.472290 253.759491,463.546539 249.530029,461.348328 
	C250.604721,458.741241 252.456482,459.073181 254.028076,459.060455 
	C262.499908,458.991760 270.972473,458.993713 279.444763,458.999725 
	C282.425507,459.001831 285.484070,459.381348 287.653137,456.129395 
	C290.229095,459.504944 290.980499,462.303406 288.121674,465.804657 
	C283.930054,460.421997 278.180176,462.803497 272.988281,462.430145 
	C269.843140,462.203979 266.667908,462.396057 263.009033,462.395477 
z"/>
<path fill="#000000" opacity="1.000000" stroke="none" 
	d="
M264.555206,486.533142 
	C282.806366,486.927521 300.684784,485.731262 318.535217,487.699341 
	C299.326843,489.247223 280.106415,489.039581 260.451569,488.707275 
	C261.466583,486.058807 263.023224,486.856750 264.555206,486.533142 
z"/>
<path fill="#000000" opacity="1.000000" stroke="none" 
	d="
M531.032043,251.033554 
	C531.826965,249.664413 531.309448,247.627487 533.154358,246.779175 
	C537.933228,251.477875 545.752319,252.098633 552.688354,248.224777 
	C554.542053,251.264999 554.505249,254.268112 553.066650,257.520569 
	C546.498108,252.597534 538.222961,252.117279 533.372559,256.237976 
	C531.063843,255.427094 532.150818,253.060242 531.143433,251.302582 
	C531.007446,251.006042 531.032043,251.033554 531.032043,251.033554 
z"/>
<path fill="#000000" opacity="1.000000" stroke="none" 
	d="
M533.590820,269.962463 
	C528.739929,269.487823 524.127686,270.619324 519.078186,269.319702 
	C522.404907,266.340179 548.739441,266.122131 553.357727,268.883148 
	C546.512024,270.993958 540.153076,269.235687 533.590820,269.962463 
z"/>
<path fill="#000000" opacity="1.000000" stroke="none" 
	d="
M612.712158,358.133545 
	C613.183350,355.248016 611.886047,352.448730 614.763916,349.453766 
	C617.242310,360.366455 613.832703,370.797638 616.936951,380.979279 
	C614.409973,381.881775 611.716797,382.945312 612.277405,378.501648 
	C613.114807,371.864868 612.442444,365.235291 612.712158,358.133545 
z"/>
<path fill="#000000" opacity="1.000000" stroke="none" 
	d="
M530.996338,250.991821 
	C530.626099,252.353424 529.913147,253.393600 528.391846,253.611679 
	C525.597778,254.012222 522.682983,253.642609 520.419067,256.258392 
	C519.894897,256.863983 516.440430,257.344543 516.008301,254.789703 
	C515.544922,252.050156 514.096375,248.583145 517.381409,246.761856 
	C518.892273,245.924210 521.303467,245.634476 522.445618,248.783707 
	C523.799683,252.517319 527.797791,249.571747 530.657593,250.976929 
	C531.032043,251.033554 531.007446,251.006042 530.996338,250.991821 
z"/>
<path fill="#000000" opacity="1.000000" stroke="none" 
	d="
M331.553497,461.845978 
	C331.633331,459.684509 331.052734,457.765533 332.730560,456.369904 
	C335.634521,459.370087 335.791595,475.964722 332.610413,480.293518 
	C329.766357,474.162659 332.238281,468.080688 331.553497,461.845978 
z"/>
<path fill="#000000" opacity="1.000000" stroke="none" 
	d="
M563.120117,253.714996 
	C559.466003,252.690628 558.193787,255.139786 556.741760,257.915833 
	C554.469116,254.441422 554.583618,251.499268 556.021912,247.836868 
	C561.309814,253.267166 568.366211,248.985687 574.630798,251.750885 
	C570.928162,255.520645 566.876526,252.524384 563.120117,253.714996 
z"/>
<path fill="#000000" opacity="1.000000" stroke="none" 
	d="
M237.455994,474.839722 
	C236.564072,475.565063 235.733551,475.533051 235.626740,474.790588 
	C234.618729,467.784912 234.919083,460.813293 236.365601,453.853851 
	C238.813446,460.647949 238.213974,467.583771 237.455994,474.839722 
z"/>
<path fill="#000000" opacity="1.000000" stroke="none" 
	d="
M273.204346,496.399078 
	C262.905640,496.407471 253.018188,496.407471 243.130737,496.407471 
	C243.126648,495.879303 243.122559,495.351166 243.118469,494.822998 
	C253.961243,494.822998 264.803986,494.822998 275.672302,494.822998 
	C275.753052,496.610229 274.471069,496.185242 273.204346,496.399078 
z"/>
<path fill="#000000" opacity="1.000000" stroke="none" 
	d="
M602.804626,176.851562 
	C606.662048,174.452576 604.685608,179.391144 606.045471,179.413666 
	C609.484070,180.351227 612.776001,178.620010 615.954529,181.128479 
	C613.336548,183.020081 610.801392,182.286972 608.510132,182.340546 
	C605.188110,182.418198 606.664062,186.913773 603.476074,187.332458 
	C601.747437,184.014420 602.958801,180.543610 602.804626,176.851562 
z"/>
<path fill="#000000" opacity="1.000000" stroke="none" 
	d="
M512.954102,253.569275 
	C509.803711,254.433365 506.151459,252.551865 504.416992,257.346558 
	C502.060516,253.386032 502.353485,250.351913 504.026855,246.571518 
	C506.144928,249.593307 508.445312,251.178452 511.858826,250.805847 
	C513.348572,250.643265 515.179810,251.273575 512.954102,253.569275 
z"/>
<path fill="#000000" opacity="1.000000" stroke="none" 
	d="
M578.970459,255.094574 
	C578.598633,258.467712 579.971191,261.718994 576.716370,265.220001 
	C575.561401,258.493622 575.067566,252.784256 576.836609,246.181030 
	C579.724182,249.139694 578.658386,252.048264 578.970459,255.094574 
z"/>
<path fill="#000000" opacity="1.000000" stroke="none" 
	d="
M245.927444,177.765717 
	C245.837967,177.016388 245.804260,176.274521 246.071579,176.142578 
	C249.105484,174.645187 257.439331,176.314377 260.918030,179.585754 
	C255.390808,180.347946 250.737640,179.526947 245.927444,177.765717 
z"/>
<path fill="#000000" opacity="1.000000" stroke="none" 
	d="
M617.423645,372.624390 
	C616.700073,365.088165 616.358215,357.842102 617.898071,350.607269 
	C619.922607,352.412842 619.282104,354.734222 619.343018,356.831696 
	C619.467590,361.116547 619.488708,365.410645 619.335144,369.693146 
	C619.294189,370.835510 620.353699,372.955048 617.423645,372.624390 
z"/>
<path fill="#000000" opacity="1.000000" stroke="none" 
	d="
M508.326294,379.333313 
	C513.757080,378.483704 513.757080,378.483704 515.706360,373.687500 
	C517.653259,373.949127 517.065186,375.611633 517.432373,376.758606 
	C517.829590,377.999268 518.330688,379.206665 518.782654,380.418427 
	C514.241516,382.914703 509.802612,382.545288 508.326294,379.333313 
z"/>
<path fill="#000000" opacity="1.000000" stroke="none" 
	d="
M148.783615,309.826080 
	C150.273911,312.853760 151.510300,315.668854 152.893478,318.774902 
	C152.544571,320.898712 151.540146,322.735565 149.977158,320.248047 
	C147.767166,316.730896 145.657425,312.989594 145.385101,308.797333 
	C147.229401,307.518951 147.717545,308.986145 148.783615,309.826080 
z"/>
<path fill="#000000" opacity="1.000000" stroke="none" 
	d="
M142.798676,288.951813 
	C143.397690,290.147095 143.677734,291.172852 143.957718,292.522430 
	C143.527573,295.983673 145.918686,299.082520 143.808075,303.481903 
	C141.237473,298.437653 140.255188,294.011597 140.134842,289.413086 
	C140.104111,288.239441 141.471695,288.236237 142.798676,288.951813 
z"/>
<path fill="#000000" opacity="1.000000" stroke="none" 
	d="
M146.012924,248.965271 
	C143.503876,251.315308 144.318802,255.480164 140.556732,258.967133 
	C140.758789,252.666718 141.618912,248.021591 143.604523,243.437851 
	C146.585754,244.510574 145.627731,246.622208 145.959137,248.625580 
	C145.979553,249.014069 146.003662,248.983017 146.012924,248.965271 
z"/>
<path fill="#000000" opacity="1.000000" stroke="none" 
	d="
M187.293594,357.011719 
	C190.678925,359.595520 195.231903,360.043243 197.936539,365.001648 
	C192.153412,364.216858 188.212585,361.498901 184.821976,358.667114 
	C182.917206,357.076294 185.457260,356.675293 187.293594,357.011719 
z"/>
<path fill="#000000" opacity="1.000000" stroke="none" 
	d="
M138.648560,276.677490 
	C138.968307,272.781860 137.764069,269.149536 139.650925,265.683655 
	C142.575348,268.481750 142.944595,274.709595 140.695847,279.675568 
	C138.666962,279.922058 138.881088,278.345642 138.648560,276.677490 
z"/>
<path fill="#000000" opacity="1.000000" stroke="none" 
	d="
M314.435791,337.107971 
	C313.209564,337.700348 312.205261,337.311249 312.512482,336.389435 
	C314.004730,331.911743 316.446808,328.040375 320.598389,325.380005 
	C320.586090,330.256653 317.125458,333.323975 314.435791,337.107971 
z"/>
<path fill="#000000" opacity="1.000000" stroke="none" 
	d="
M199.117004,184.117767 
	C195.214325,188.019226 190.382889,190.107452 185.098358,191.359177 
	C188.586655,187.252090 192.651474,184.185349 198.425797,183.492828 
	C198.722549,183.514038 198.983582,183.917816 199.117004,184.117767 
z"/>
<path fill="#000000" opacity="1.000000" stroke="none" 
	d="
M159.621338,212.683685 
	C160.711502,211.497253 161.216812,210.022263 163.719116,210.531891 
	C162.210159,215.810287 158.765030,219.397293 154.789536,222.681229 
	C154.311676,218.430420 157.709122,216.105057 159.621338,212.683685 
z"/>
<path fill="#000000" opacity="1.000000" stroke="none" 
	d="
M171.604874,199.701859 
	C172.749237,198.781769 173.573151,197.872086 174.900482,198.442398 
	C174.129990,202.663696 168.715881,208.001419 164.311737,208.646744 
	C165.339127,204.496674 169.167435,202.847061 171.604874,199.701859 
z"/>
<path fill="#000000" opacity="1.000000" stroke="none" 
	d="
M296.985413,349.016968 
	C301.672058,347.890381 303.618622,342.530579 308.508362,341.022827 
	C308.093231,343.895447 301.263275,351.717407 299.331238,351.901031 
	C297.755219,352.050781 297.580353,350.734924 297.111755,349.324280 
	C297.012726,348.981934 296.994995,349.005127 296.985413,349.016968 
z"/>
<path fill="#000000" opacity="1.000000" stroke="none" 
	d="
M268.594849,183.649841 
	C266.557251,182.693359 264.324127,182.791214 263.053741,180.015762 
	C268.755554,179.236084 272.967773,181.795853 277.277313,184.128754 
	C274.245605,186.179565 271.696198,183.893295 268.594849,183.649841 
z"/>
<path fill="#000000" opacity="1.000000" stroke="none" 
	d="
M151.455917,231.379181 
	C149.719452,234.221680 149.797729,237.834305 145.466293,239.909103 
	C146.306534,233.903381 148.783920,229.889145 151.702393,225.675491 
	C154.032761,228.099426 152.191528,229.497833 151.455917,231.379181 
z"/>
<path fill="#000000" opacity="1.000000" stroke="none" 
	d="
M497.251038,255.893494 
	C497.088867,258.393036 497.766174,260.607025 495.427856,263.739258 
	C494.247864,257.272400 494.087799,252.137451 494.907776,246.035034 
	C498.544006,249.265030 496.670258,252.606094 497.251038,255.893494 
z"/>
<path fill="#000000" opacity="1.000000" stroke="none" 
	d="
M290.086182,190.605743 
	C291.145813,191.541565 292.471771,191.978882 291.661377,194.134415 
	C286.785553,192.608307 282.771393,189.884308 279.228760,186.285995 
	C283.534119,185.910889 286.356232,188.913361 290.086182,190.605743 
z"/>
<path fill="#000000" opacity="1.000000" stroke="none" 
	d="
M293.065125,354.325439 
	C295.354889,354.690613 294.870270,355.843475 293.840240,356.641022 
	C290.481720,359.241516 286.984833,361.647400 282.433105,362.215424 
	C284.708984,358.130219 288.942871,356.551361 293.065125,354.325439 
z"/>
<path fill="#000000" opacity="1.000000" stroke="none" 
	d="
M300.810760,201.456970 
	C301.068207,201.125320 301.325653,200.793671 301.794922,200.228714 
	C305.579681,202.924164 309.669189,205.401825 310.986237,210.658600 
	C310.974945,211.026382 310.999084,211.003784 310.692413,210.867493 
	C306.141052,208.726990 303.343292,205.228867 300.810760,201.456970 
z"/>
<path fill="#000000" opacity="1.000000" stroke="none" 
	d="
M677.968018,175.758316 
	C679.732056,179.705856 679.634460,183.418167 677.542603,187.030487 
	C675.755066,183.216705 674.587891,179.421982 677.968018,175.758316 
z"/>
<path fill="#000000" opacity="1.000000" stroke="none" 
	d="
M257.790955,487.890076 
	C252.730286,489.541351 247.865341,489.306793 243.039078,487.577515 
	C248.007172,486.836395 252.956192,485.373871 257.790955,487.890076 
z"/>
<path fill="#000000" opacity="1.000000" stroke="none" 
	d="
M244.454956,457.972290 
	C246.030243,455.687347 247.192245,456.449799 247.606171,458.240814 
	C248.184906,460.744690 248.341522,463.348328 246.228531,465.738586 
	C243.041504,463.739838 244.211502,460.889008 244.454956,457.972290 
z"/>
<path fill="#000000" opacity="1.000000" stroke="none" 
	d="
M607.332031,296.701324 
	C606.698608,293.054840 606.160034,289.693054 607.666016,286.265930 
	C610.909119,289.748932 610.744385,295.023071 607.332031,296.701324 
z"/>
<path fill="#000000" opacity="1.000000" stroke="none" 
	d="
M305.420593,466.557495 
	C303.838287,463.460602 304.051910,460.687042 305.451996,457.822998 
	C308.751465,460.745392 308.778656,463.996246 305.420593,466.557495 
z"/>
<path fill="#000000" opacity="1.000000" stroke="none" 
	d="
M183.011261,197.993393 
	C179.080551,196.890488 177.075851,193.944275 175.891754,190.186111 
	C179.876358,190.867813 182.126556,193.352783 182.982544,197.658386 
	C182.972534,198.029221 182.997772,198.004486 183.011261,197.993393 
z"/>
<path fill="#000000" opacity="1.000000" stroke="none" 
	d="
M234.027267,175.608231 
	C236.471603,175.905624 238.690567,174.948685 241.226624,177.270248 
	C235.981171,178.805481 231.562103,178.512756 226.017303,176.955612 
	C229.104599,175.001968 231.419647,175.829468 234.027267,175.608231 
z"/>
<path fill="#000000" opacity="1.000000" stroke="none" 
	d="
M309.716553,461.999878 
	C309.835358,460.279419 309.725098,458.851471 311.388062,458.333862 
	C313.652710,461.869232 313.674744,463.289673 311.499542,467.046722 
	C309.100464,466.189056 309.942566,464.087280 309.716553,461.999878 
z"/>
<path fill="#000000" opacity="1.000000" stroke="none" 
	d="
M296.535858,460.469055 
	C297.815369,460.524963 298.981018,460.329498 299.279266,461.572479 
	C299.582977,462.837982 298.573883,463.295319 297.594269,463.507721 
	C295.353638,463.993561 293.164917,464.121216 291.443207,462.173920 
	C292.555084,459.518951 294.596710,460.683136 296.535858,460.469055 
z"/>
<path fill="#000000" opacity="1.000000" stroke="none" 
	d="
M675.118042,296.667328 
	C674.794434,293.042053 673.930908,289.652100 675.698181,286.156616 
	C678.335999,290.629852 678.055908,295.386200 675.118042,296.667328 
z"/>
<path fill="#000000" opacity="1.000000" stroke="none" 
	d="
M614.621704,292.132843 
	C617.210022,291.837708 619.466980,291.439026 621.706665,293.235107 
	C619.278931,296.020721 616.612854,295.312439 614.127136,294.456177 
	C612.880676,294.026825 613.263733,292.957916 614.621704,292.132843 
z"/>
<path fill="#000000" opacity="1.000000" stroke="none" 
	d="
M669.827271,296.083374 
	C669.696533,292.554932 669.214783,289.353210 670.895874,286.357697 
	C672.937927,289.747467 672.714233,293.255310 671.514832,296.744904 
	C671.282349,297.421265 670.402161,297.016602 669.827271,296.083374 
z"/>
<path fill="#000000" opacity="1.000000" stroke="none" 
	d="
M538.636780,290.212280 
	C538.845398,288.587860 538.299561,287.045319 540.087280,286.542847 
	C541.771912,290.129974 541.833496,293.137421 540.226379,297.374420 
	C537.537231,295.533508 539.163879,292.807312 538.636780,290.212280 
z"/>
<path fill="#000000" opacity="1.000000" stroke="none" 
	d="
M537.355225,183.626892 
	C537.148621,184.947540 537.406311,186.094666 536.063721,186.343872 
	C534.282349,183.058762 534.175476,180.381454 535.745178,175.613983 
	C538.414307,177.839310 536.960083,180.740189 537.355225,183.626892 
z"/>
<path fill="#000000" opacity="1.000000" stroke="none" 
	d="
M682.651855,179.296967 
	C682.802917,177.777557 682.386536,176.491470 684.354065,175.458344 
	C686.039490,179.241608 685.377319,182.791580 684.602234,187.619141 
	C681.929504,184.530670 682.932922,181.984299 682.651855,179.296967 
z"/>
<path fill="#000000" opacity="1.000000" stroke="none" 
	d="
M222.615112,289.302429 
	C215.560730,279.100342 216.408813,268.858459 224.634247,261.705658 
	C230.380890,256.708405 240.623657,255.908859 247.049942,259.955872 
	C254.233826,264.480011 257.859741,273.726013 255.556961,281.648621 
	C253.114578,290.051483 246.176788,295.155823 237.578064,295.450226 
	C231.682983,295.652039 226.818390,293.915039 222.615112,289.302429 
M248.527985,264.991302 
	C247.204575,264.000122 245.983093,262.816895 244.540100,262.051086 
	C238.398468,258.791779 231.523270,259.643188 226.415100,264.152924 
	C221.286407,268.680756 219.188034,275.749084 221.329544,281.221100 
	C223.982239,287.999237 228.627335,292.355560 236.126053,292.768158 
	C242.905731,293.141205 248.245117,290.218109 251.238205,284.154175 
	C254.445038,277.657135 253.857697,271.251282 248.527985,264.991302 
z"/>
<path fill="#000000" opacity="1.000000" stroke="none" 
	d="
M557.490051,544.680664 
	C538.821228,538.302185 531.269897,518.705139 541.190735,503.265472 
	C548.354553,492.116455 562.475464,487.684784 574.473206,492.820282 
	C586.867188,498.125397 593.361206,511.575012 589.990662,524.958008 
	C586.353516,539.399597 572.581421,547.900085 557.490051,544.680664 
M573.715820,540.386475 
	C587.778748,532.566895 592.017517,519.469482 584.875732,505.903015 
	C580.759338,498.083496 569.537598,492.216675 561.387024,493.622894 
	C550.473511,495.505798 541.655334,503.687073 540.258484,512.925537 
	C537.035828,534.240417 555.941284,547.229858 573.715820,540.386475 
z"/>
<path fill="#000000" opacity="1.000000" stroke="none" 
	d="
M609.451843,732.684265 
	C609.082886,734.156067 607.883728,735.037415 607.421875,733.968079 
	C606.123413,730.961914 606.011292,727.633850 606.466431,724.384277 
	C606.571594,723.633484 607.633240,723.244141 608.530701,723.567749 
	C609.925598,724.070679 609.861938,725.203857 609.761414,726.424744 
	C609.599731,728.387329 609.565918,730.360474 609.451843,732.684265 
z"/>
<path fill="#000000" opacity="1.000000" stroke="none" 
	d="
M542.649231,733.977722 
	C541.874573,735.396790 540.530457,735.750000 540.313110,734.628601 
	C539.728821,731.614319 539.607361,728.496704 539.497803,725.413147 
	C539.468872,724.598145 540.376221,724.050415 541.321472,724.180298 
	C542.471313,724.338257 543.069336,725.151917 543.058472,726.217224 
	C543.033325,728.680359 542.874023,731.142151 542.649231,733.977722 
z"/>
<path fill="#000000" opacity="1.000000" stroke="none" 
	d="
M233.392517,279.630371 
	C231.882385,276.296509 232.348465,273.708649 235.445755,272.207550 
	C237.725983,271.102417 240.037704,271.392395 241.685135,273.557098 
	C243.408752,275.821869 243.478867,278.211945 241.393433,280.281433 
	C238.752365,282.902313 236.097717,282.490723 233.392517,279.630371 
z"/>
</svg>