<svg version="1.1" id="Layer_1" xmlns="http://www.w3.org/2000/svg" xmlns:xlink="http://www.w3.org/1999/xlink" x="0px" y="0px"
	 width="100%" viewBox="0 0 720 720" enable-background="new 0 0 720 720" xml:space="preserve">
<path fill="#000000" opacity="1.000000" stroke="none" 
	d="
M194.275620,494.308472 
	C197.242035,488.500671 200.178665,483.120819 201.493622,476.980560 
	C202.191681,473.721008 204.331985,470.923584 206.444962,468.370850 
	C213.703537,459.601349 218.971405,449.915619 222.556030,439.020691 
	C224.471802,433.198029 228.669418,428.131287 231.787262,422.694763 
	C232.436783,421.562164 233.205093,420.340912 233.343170,419.096680 
	C234.423553,409.360443 239.744156,401.891724 246.155685,395.062042 
	C251.194260,389.694946 254.232925,382.848969 259.422791,377.590271 
	C260.479889,376.519135 261.295990,374.839722 261.043610,372.191620 
	C255.055084,374.294708 251.448212,369.630005 246.843826,367.341766 
	C238.612854,363.251099 229.785904,365.044678 221.283386,365.720276 
	C213.065247,366.373230 204.863235,368.049988 196.827774,369.994537 
	C183.832687,373.139313 172.187347,378.915802 163.202118,389.272766 
	C161.165207,391.620697 158.433334,393.341705 155.322784,391.083801 
	C152.207672,388.822571 152.960129,386.099243 154.789764,383.208313 
	C161.478317,372.640167 169.563019,363.130585 178.890625,354.988892 
	C186.085617,348.708649 194.630585,343.968628 202.609695,338.594788 
	C211.272141,332.760742 220.527664,327.927155 230.041840,323.737732 
	C240.640732,319.070679 252.244156,318.257507 263.578522,316.940826 
	C274.952454,315.619568 286.425781,315.129456 297.920959,315.873413 
	C302.980164,316.200836 307.769348,317.177155 312.315887,319.377777 
	C323.665253,324.871063 333.625824,321.736542 342.763397,314.291168 
	C345.071899,312.410187 347.035126,310.110626 350.186523,309.016266 
	C348.798157,304.585907 350.921539,301.708252 353.681274,298.734039 
	C358.145569,293.922668 358.654846,287.653778 358.794830,281.457123 
	C358.862946,278.442169 356.437836,278.302429 354.189514,278.150909 
	C344.736115,277.513763 338.590027,270.778534 338.800812,261.322510 
	C338.867615,258.325073 339.019562,255.325043 338.955414,252.329987 
	C338.680115,239.474243 345.512909,231.664581 356.178131,225.411072 
	C365.298065,220.063675 374.417694,218.007416 384.706573,219.612656 
	C387.864410,220.105301 390.737885,221.512161 392.698090,223.387299 
	C397.131409,227.628357 404.320526,229.139908 405.252075,237.057297 
	C406.559265,248.167679 398.943359,262.318848 388.730682,266.992981 
	C382.707703,269.749573 376.895782,273.007751 371.159210,276.334015 
	C367.850220,278.252655 367.001190,281.638489 367.143005,286.433746 
	C372.959534,284.126923 378.278748,282.107025 383.526215,279.915253 
	C391.495453,276.586700 399.047424,272.286316 407.356720,269.739166 
	C409.605103,269.049927 412.069885,267.720703 413.312347,270.838806 
	C414.504486,273.830750 411.935394,274.925903 409.865417,275.970947 
	C395.905762,283.018738 381.817902,289.744202 366.711029,294.094543 
	C362.270081,295.373383 359.718384,304.207306 362.361450,308.115875 
	C363.232300,309.403656 364.242157,309.792755 365.757874,309.175812 
	C377.747620,304.295654 390.816132,303.406219 402.966492,299.378906 
	C412.224823,296.310150 422.213654,298.072571 431.205994,293.806854 
	C433.665985,292.639893 437.101562,293.478088 440.089203,293.484772 
	C448.031128,293.502563 455.623291,290.174957 463.745850,291.338165 
	C467.577423,291.886932 469.892700,293.660187 469.847015,297.489319 
	C469.761566,304.650208 467.953735,311.780060 469.446503,318.968201 
	C465.707245,321.650299 466.849792,326.017700 465.867371,329.622711 
	C464.708282,333.876129 464.222168,338.204559 468.870056,341.750061 
	C461.485596,344.104950 462.109772,350.642334 460.477722,355.941071 
	C455.807098,371.105316 451.518555,386.436646 445.181641,400.983063 
	C442.522034,407.088226 439.166168,413.152344 434.544891,418.259918 
	C432.509491,420.509521 432.603790,423.528625 433.732666,425.830902 
	C437.374786,433.258667 436.901215,440.982086 435.984711,448.730896 
	C435.196777,455.392792 434.953796,462.389099 432.583191,468.506439 
	C430.763763,473.201385 430.091309,478.070923 428.397552,482.652069 
	C421.748383,500.635986 415.298462,518.601318 403.749756,534.457397 
	C397.934418,542.441833 391.791840,550.234924 385.948669,558.199951 
	C380.822876,565.187195 373.695648,570.707886 367.438599,576.862305 
	C366.138794,578.140869 364.718231,579.300293 363.459778,580.616516 
	C361.558838,582.604675 359.440430,583.765320 356.829956,582.178711 
	C354.160919,580.556458 354.321960,577.993103 355.338959,575.546570 
	C357.357880,570.689697 359.486420,565.874146 361.718231,561.111145 
	C364.422333,555.340210 364.065674,548.771301 366.675201,542.957275 
	C367.959229,540.096436 369.390991,537.127563 370.105347,534.185608 
	C372.763489,523.238525 377.849487,512.802368 377.592102,501.227081 
	C377.506653,497.382935 376.169067,493.847717 373.634277,490.842926 
	C366.245056,495.860748 366.245056,495.860748 361.579620,491.200470 
	C360.032318,494.544525 357.639374,496.754944 353.932251,497.395721 
	C351.970367,497.734863 350.559784,498.324066 350.618805,501.282166 
	C350.700531,505.377167 339.679657,510.477417 335.811951,508.343506 
	C333.378052,507.000702 331.237122,506.329193 330.218872,509.473938 
	C327.786011,516.987488 320.870819,517.346375 315.022888,518.841309 
	C311.461517,519.751770 308.126892,520.462280 304.886688,522.457642 
	C300.833435,524.953796 296.440094,527.248962 291.293671,526.527588 
	C290.048859,526.353088 289.062256,526.963135 288.044556,527.569031 
	C282.376801,530.942993 275.299805,531.294922 270.188416,535.877747 
	C270.075256,535.979187 269.880188,536.028748 269.721069,536.033997 
	C252.896011,536.592346 240.552261,547.213623 227.001434,555.100464 
	C224.416183,556.605103 222.044891,558.472839 219.526062,560.097351 
	C217.025543,561.710022 214.826813,561.927063 213.658752,558.492432 
	C213.500565,558.027344 213.361893,557.492371 213.040390,557.155640 
	C207.921417,551.794556 207.914948,551.800720 210.849640,545.533325 
	C205.515350,546.067688 200.782516,548.045837 195.875732,549.252869 
	C193.480118,549.842102 190.605377,551.090393 189.183411,548.198242 
	C187.918411,545.625305 190.444031,543.928345 192.143250,542.448425 
	C198.113647,537.248718 202.991211,531.081238 207.745636,524.516541 
	C203.376144,526.750793 198.983398,528.941040 194.645416,531.234802 
	C191.831329,532.722778 189.014175,534.051575 185.778168,534.423401 
	C183.929489,534.635864 182.075882,535.298401 180.870117,533.284363 
	C179.581146,531.131409 180.832687,529.538391 182.191376,527.949524 
	C187.479034,521.766113 192.728043,515.549622 198.890488,508.285675 
	C194.461624,509.987488 192.024811,512.854126 188.506882,513.157349 
	C187.041275,513.283752 185.378815,513.611206 184.472885,511.990540 
	C183.584229,510.400757 184.398270,508.893433 185.543015,507.970642 
	C189.904007,504.455444 191.631424,499.322784 194.275620,494.308472 
M401.771637,406.020416 
	C380.893768,427.685669 357.826721,438.695953 328.575806,420.225922 
	C329.835022,424.349884 331.197693,426.912231 335.167328,428.039825 
	C339.703247,429.328308 344.181976,431.586151 347.047180,435.561951 
	C350.566284,440.445099 353.544128,441.362244 358.632416,437.866730 
	C362.598877,435.141876 365.610077,436.205017 369.293823,440.261200 
	C363.019135,441.145813 357.644379,442.369354 352.662567,444.880737 
	C351.497986,445.467804 350.106628,444.490936 349.087677,443.541412 
	C345.725067,440.407898 341.915649,438.292053 337.252106,437.633667 
	C335.340942,437.363831 333.088989,436.603394 332.378998,434.532593 
	C329.834564,427.111145 323.602997,424.252716 317.030365,421.850342 
	C314.105804,420.781403 312.345367,419.119476 311.658905,415.954742 
	C311.012543,412.974701 310.755981,409.766724 307.796082,407.654785 
	C304.344391,405.191895 303.289124,398.302551 305.479340,393.742676 
	C307.667603,394.527527 310.328766,394.418732 311.809662,397.721191 
	C307.820953,399.160980 307.223755,401.860352 310.462677,404.241241 
	C313.541473,406.504456 314.764069,409.498016 315.938660,412.817749 
	C317.263855,416.563019 320.035156,417.964325 324.585449,417.121033 
	C319.598724,410.922211 315.610168,404.263519 316.257538,397.033112 
	C317.264404,385.786743 316.460175,373.779572 323.762726,363.978577 
	C326.498505,360.306824 326.150726,354.455566 331.214233,352.642883 
	C337.498657,350.393097 337.711914,345.871063 336.735016,339.761475 
	C329.421692,345.544098 322.168274,350.345551 320.956329,360.205444 
	C320.540894,363.585419 320.351898,368.048889 314.550751,366.713898 
	C313.347717,366.437012 312.687927,367.895050 312.081665,368.901031 
	C310.565979,371.415924 309.966736,374.104279 310.309723,377.041077 
	C310.833160,381.523102 308.510712,382.513123 304.645966,381.778046 
	C303.573700,378.613861 307.001709,376.925446 306.252869,373.606873 
	C304.635895,366.440887 307.660675,362.072418 314.809021,359.176056 
	C315.924805,358.723938 317.206879,358.290710 317.433472,357.082367 
	C318.599823,350.863098 322.455963,345.637299 323.961395,339.273315 
	C328.077698,338.957947 332.537720,338.676117 333.154663,332.915771 
	C331.372070,331.896027 330.100494,332.594604 328.885803,333.580444 
	C325.367523,336.435913 320.688965,337.162506 317.105713,339.722473 
	C311.094421,344.017120 303.875336,347.784485 300.038452,353.652802 
	C295.652435,360.360992 289.201019,364.028900 283.298157,367.319611 
	C273.818695,372.604156 268.447998,380.917908 262.375488,388.824188 
	C258.196045,394.265717 255.810516,400.976013 250.436264,405.730896 
	C248.592438,407.362183 245.631607,410.218658 248.743637,412.887939 
	C253.118057,416.640045 257.213257,420.871948 262.825500,423.047974 
	C266.533112,424.485565 269.675385,426.900574 272.639771,429.632141 
	C280.831818,437.180847 288.512817,445.244965 295.740082,453.669159 
	C307.456970,467.326508 321.028320,479.833099 325.553314,498.358368 
	C326.348938,501.615570 327.492493,502.856201 330.846283,499.630524 
	C335.200745,495.442413 338.698944,490.233795 344.734711,487.757355 
	C353.130463,484.312622 360.943604,479.811096 365.761780,471.608826 
	C366.645538,470.104401 367.805817,468.863617 369.236145,468.105896 
	C375.602295,464.733398 379.136444,457.862305 386.072510,454.994171 
	C388.687256,453.912964 390.026459,450.089966 392.469788,448.188324 
	C400.340668,442.062469 407.077698,435.213837 411.298187,425.904449 
	C413.088135,421.956360 414.845215,417.694092 418.563019,414.738861 
	C420.154266,413.473999 420.684235,411.224823 420.832581,409.605133 
	C414.589233,414.111542 410.074158,420.785797 403.345215,425.307526 
	C402.270172,423.239746 402.485870,422.112915 403.144165,421.445343 
	C407.311035,417.219391 409.400696,411.328247 414.652069,407.901398 
	C420.121887,404.331970 421.214172,399.808319 419.099304,393.804565 
	C417.980225,390.627625 417.218719,387.191681 418.593933,384.010406 
	C420.741791,379.041931 418.921478,375.791138 414.879974,373.054993 
	C413.229492,371.937622 411.855713,370.374695 410.135925,369.404724 
	C406.972321,367.620361 405.303162,365.685333 407.257690,361.839996 
	C408.182129,360.021271 407.849548,357.806366 405.260620,357.021027 
	C402.582275,356.208557 400.569916,357.279846 399.543060,359.685272 
	C398.747925,361.547821 398.989594,363.493195 400.160706,365.391327 
	C402.040009,368.437225 404.254059,371.476501 405.233032,374.837158 
	C407.414246,382.325073 410.151733,389.860840 406.642456,397.870667 
	C405.422516,400.655090 401.973724,401.883606 401.771637,406.020416 
M303.318665,476.066589 
	C302.527832,472.216187 298.734222,470.710114 296.806183,467.705414 
	C291.602295,459.595551 283.974701,453.674988 277.517883,446.692627 
	C270.992798,439.636383 263.166809,434.520935 255.170609,429.368195 
	C247.587555,424.481720 240.660370,425.808014 236.951126,434.008484 
	C234.010712,440.509277 230.568985,446.733368 226.027252,452.309448 
	C228.070145,456.419250 228.529770,461.704407 233.167419,463.859772 
	C236.633270,465.470520 238.138336,468.638580 240.646591,470.973480 
	C242.094650,472.321533 240.785019,474.638641 242.630371,475.864990 
	C249.339203,480.323486 253.596832,486.877197 257.321533,493.759125 
	C261.908539,502.234161 268.917419,509.508453 270.011566,519.763367 
	C270.274109,522.223755 272.013245,523.216614 274.823151,521.872070 
	C279.611542,519.580750 284.639618,517.796204 289.510895,515.670288 
	C293.111511,514.098938 297.622009,515.593079 300.480530,513.962158 
	C305.622864,511.028168 311.302124,508.911713 315.953857,505.040436 
	C317.334229,503.891602 317.918396,502.938690 317.469025,501.302277 
	C316.721313,498.579010 316.185364,495.757111 314.256439,493.533081 
	C309.864716,488.469513 307.099762,482.391876 303.318665,476.066589 
M363.951233,328.292999 
	C368.964142,327.660645 373.849884,329.012878 378.806122,329.286316 
	C380.289856,329.368195 381.775208,330.061462 382.729462,331.289948 
	C386.988159,336.772583 393.540955,337.149658 399.344788,337.467957 
	C405.639801,337.813232 409.300446,341.765045 413.967896,343.919556 
	C413.565491,346.471497 410.469635,345.633484 410.632690,347.326202 
	C411.080231,349.821014 413.850037,349.266418 414.068604,351.233887 
	C409.753967,358.379486 410.234009,360.559540 417.069244,365.627594 
	C418.670258,366.814667 420.165283,368.147034 421.686066,369.439636 
	C424.506500,371.836884 425.658325,375.039948 424.256866,378.341888 
	C421.005249,386.002930 422.772400,392.657013 427.334259,399.004822 
	C429.135010,398.899109 430.442444,398.395050 430.131897,396.325226 
	C429.980377,395.315369 429.681671,394.103210 430.582428,393.523254 
	C436.610413,389.642456 437.316193,382.347870 441.202087,377.069946 
	C443.826569,373.505249 445.698456,369.318512 447.501251,365.231079 
	C451.118347,357.030182 449.256134,347.940979 451.190125,339.279877 
	C452.337677,334.140503 454.099548,328.683197 454.482849,323.154846 
	C454.677917,320.341034 456.664124,317.529022 452.848145,315.214233 
	C454.175110,314.567596 454.861969,314.119812 455.615356,313.889709 
	C457.105011,313.434692 459.526489,313.913574 459.337708,311.571106 
	C459.159027,309.354156 456.977600,309.721222 455.333344,309.840057 
	C453.774506,309.952728 452.237854,310.116882 452.075745,307.549347 
	C453.719788,306.843170 457.173309,308.170959 456.094025,304.083862 
	C457.657562,304.637238 458.683746,305.000458 459.709961,305.363678 
	C457.997772,303.499786 460.937500,301.359161 459.235870,299.507721 
	C449.078491,301.355652 438.742188,301.774506 428.692932,303.674622 
	C420.896240,305.148834 412.988190,306.043976 405.225616,308.130768 
	C396.926880,310.361725 388.750519,313.429291 380.267456,314.636047 
	C373.941498,315.535950 368.154266,318.010193 361.972260,319.144470 
	C357.395142,319.984344 355.183960,322.792969 355.447327,327.493408 
	C357.840149,329.393066 360.471680,329.006622 363.951233,328.292999 
M409.492767,507.020386 
	C410.330994,505.217804 411.350647,503.475861 411.976654,501.602356 
	C415.013031,492.515350 417.372253,483.153931 421.057983,474.344330 
	C425.576538,463.544159 425.281586,451.938995 427.956024,440.864777 
	C428.436340,438.875916 427.962311,436.543884 427.495758,434.467590 
	C426.912231,431.870453 424.751038,430.835999 422.288452,430.519135 
	C419.837830,430.203796 419.408783,432.256866 418.552246,433.837219 
	C414.048767,442.146423 407.524414,449.145081 401.712860,456.345703 
	C396.725403,462.525299 390.293304,467.963379 385.096558,474.285431 
	C382.096344,477.935364 380.162842,481.156342 382.771332,486.823700 
	C388.401733,499.056793 388.152710,511.799591 382.316162,524.327026 
	C379.237274,530.935364 378.010498,538.250916 375.290649,545.063660 
	C373.437103,549.706604 372.816193,554.841553 371.357452,560.958496 
	C387.806396,544.841614 398.433777,526.225403 409.492767,507.020386 
M258.942261,365.531158 
	C260.596436,366.847382 262.250610,368.163574 264.231476,369.739777 
	C278.018250,352.875702 295.073792,340.287781 313.268707,328.740784 
	C293.962128,321.558899 274.827759,325.064941 255.732086,327.233887 
	C235.455795,329.536926 218.429718,339.828033 201.373474,349.828583 
	C198.237717,351.667175 194.484543,353.782928 193.093277,357.918488 
	C195.504349,359.550873 197.886612,358.947449 200.101578,358.635376 
	C204.875046,357.962921 209.577332,356.724213 214.361664,356.202301 
	C224.881241,355.054718 235.469986,353.026428 245.874557,356.962494 
	C250.622025,358.758484 254.267120,362.297516 258.942261,365.531158 
M262.670502,523.252930 
	C261.393799,515.899780 258.435394,509.429474 253.480927,503.713776 
	C249.799149,499.466400 246.090973,494.999786 243.579102,490.031891 
	C238.680283,480.343170 230.032013,474.630005 222.123306,467.337738 
	C220.693451,471.134491 222.947159,474.813385 220.758270,477.927460 
	C219.963150,479.058655 220.104645,481.176727 217.918503,480.590302 
	C216.191040,480.126892 216.042740,478.554504 215.847580,476.991089 
	C215.624252,475.201904 217.856689,473.230042 215.534439,471.567535 
	C209.822861,475.748627 201.102814,491.286743 199.994415,499.342255 
	C203.153381,499.902679 205.764313,498.261169 208.529739,497.318329 
	C210.291382,496.717743 211.849915,497.094696 212.980545,498.602997 
	C214.128052,500.133820 213.319366,501.419189 212.273590,502.607910 
	C210.735794,504.355896 209.142426,506.057037 207.652222,507.844391 
	C203.738388,512.538574 199.867523,517.268616 195.979553,521.984375 
	C203.443024,519.413513 210.129776,516.168518 216.765533,512.822327 
	C219.040298,511.675262 221.282379,511.104370 223.150192,513.192017 
	C225.035629,515.299316 223.473083,517.242615 222.282791,519.038452 
	C218.219513,525.168884 213.210602,530.505615 208.164459,535.814697 
	C207.244492,536.782593 205.574677,537.529175 206.726410,540.197571 
	C210.922531,536.304260 216.413681,535.831299 221.147385,533.500977 
	C227.145950,530.547974 229.609528,531.814087 230.321930,538.703003 
	C233.783737,536.719482 237.261871,535.484375 241.099380,537.528381 
	C241.813736,537.908936 243.098373,537.562500 243.988205,537.214722 
	C250.218948,534.779541 255.294800,530.385071 260.964142,526.991516 
	C261.805298,526.488037 262.073120,525.026733 262.670502,523.252930 
M336.520721,383.014435 
	C333.806976,391.362488 334.627686,398.898621 340.844391,405.686798 
	C344.081329,409.221375 348.069458,407.509949 351.641174,408.064484 
	C358.927124,409.195679 366.331909,407.949249 373.126892,405.565033 
	C380.739197,402.893982 385.697021,396.586487 389.673248,389.627289 
	C396.100861,378.377563 390.601868,365.049896 377.735046,362.897888 
	C374.065918,362.284180 370.870819,360.765106 367.509583,359.271912 
	C362.725067,357.146362 358.017365,354.863586 352.075653,358.243530 
	C342.449615,363.719299 339.405945,372.677948 336.520721,383.014435 
M382.810425,234.414536 
	C367.138123,230.496262 353.897308,240.060684 352.625610,254.962967 
	C352.512848,256.284363 352.202698,257.590424 351.958771,258.898865 
	C350.931824,264.407684 353.338074,267.699921 358.836578,267.816498 
	C367.907684,268.008850 376.447235,266.631042 384.480713,261.560944 
	C389.747437,258.236938 392.483521,254.104996 392.832428,248.338287 
	C393.160400,242.917770 391.787781,237.654739 389.954681,232.502731 
	C389.379456,233.286301 389.258240,234.039276 389.132111,234.791428 
	C388.991608,235.629501 388.778046,236.423157 387.697021,236.838699 
	C385.906403,237.157242 385.071411,235.219070 382.810425,234.414536 
M337.801147,417.555542 
	C339.845337,417.723022 340.268829,420.211090 342.191223,420.589966 
	C357.488373,423.604919 371.737549,421.975952 384.464935,411.949799 
	C390.695587,407.041504 396.256500,401.746368 399.477081,394.386688 
	C400.839966,391.272095 401.707947,388.038818 400.413635,384.582794 
	C398.261810,385.154144 398.239655,386.625183 398.318359,387.901764 
	C398.737732,394.703247 394.908173,399.411407 390.673096,403.997894 
	C385.266083,409.853607 378.456604,413.636169 371.401337,416.963806 
	C361.927826,421.432037 352.099792,417.034027 342.456909,417.740326 
	C340.251892,413.062958 334.604889,412.685883 331.571503,408.746429 
	C324.292755,399.293549 325.015045,389.315857 328.502472,378.925812 
	C329.681824,375.412079 331.643402,372.101257 331.431946,367.175781 
	C329.244690,369.734406 327.679901,371.544159 326.985352,373.960876 
	C324.193512,383.674652 322.641235,393.111237 325.211487,403.531464 
	C327.048279,410.978027 331.557526,414.075806 337.801147,417.555542 
M398.929443,347.973083 
	C394.261414,344.407410 389.253174,343.144653 383.284637,345.493469 
	C388.902893,351.729034 395.774048,353.636169 403.406036,353.579559 
	C404.490234,353.571533 405.261505,352.888000 405.515045,351.792908 
	C405.823303,350.461365 405.301361,349.434814 404.030182,349.032654 
	C402.622192,348.587219 401.142365,348.368958 398.929443,347.973083 
M338.925262,331.495911 
	C344.958893,333.485870 345.154480,328.169464 346.880707,324.721680 
	C343.095459,325.527802 339.467163,326.535248 338.925262,331.495911 
z"/>
<path fill="#000000" opacity="1.000000" stroke="none" 
	d="
M474.029297,54.352123 
	C477.585968,52.090759 480.909027,49.906406 483.994263,47.426220 
	C485.447693,46.257820 486.562439,44.458904 488.584167,46.012596 
	C490.536957,47.513382 491.706024,49.526844 490.704987,52.127964 
	C488.799774,57.078663 488.348846,62.926895 482.105804,65.127556 
	C480.246704,65.782898 480.201660,67.463211 481.099152,69.310379 
	C482.755310,72.718956 485.646484,74.994545 488.160492,77.629387 
	C489.299866,78.823547 490.600983,79.945000 491.427185,81.337654 
	C492.727875,83.530006 493.755981,86.046524 491.289307,88.116554 
	C488.520172,90.440453 487.140564,87.722267 485.625031,86.150024 
	C482.517029,82.925720 479.121094,79.996330 476.483643,76.289009 
	C474.644409,73.703674 472.616760,73.642319 470.753723,76.790512 
	C463.829712,88.490837 455.169006,99.149910 450.018890,111.930580 
	C449.106659,114.194382 447.867096,117.720901 444.815186,117.211967 
	C441.519684,116.662392 442.565826,112.771454 442.056396,110.414131 
	C441.252045,106.691864 442.602936,103.216644 445.364258,100.401100 
	C451.414215,94.232368 453.167419,85.397141 458.689819,78.857895 
	C460.154938,77.122993 458.893372,75.628586 456.846039,75.389313 
	C450.083252,74.598923 444.135132,70.651299 437.023804,70.829659 
	C432.677063,70.938660 429.972443,67.547386 431.038208,64.609276 
	C432.498810,60.582806 435.527985,61.323727 438.899780,62.096165 
	C445.111481,63.519188 451.477234,62.805683 457.766785,62.409344 
	C460.490509,62.237705 461.793274,60.243744 461.750092,57.546436 
	C461.688843,53.721813 462.892029,49.994442 462.406525,46.114098 
	C462.154205,44.097530 462.707703,41.807831 465.006744,41.273464 
	C467.623871,40.665150 468.656403,42.776798 469.673096,44.825062 
	C471.205688,47.912815 470.840240,51.798573 474.029297,54.352123 
z"/>
<path fill="#000000" opacity="1.000000" stroke="none" 
	d="
M332.584198,141.523346 
	C333.247833,145.911041 334.454163,149.710388 335.934113,153.435760 
	C336.737274,155.457535 337.344482,157.518982 337.238556,159.746292 
	C337.130890,162.009659 336.086609,163.651291 333.917969,164.192520 
	C331.528381,164.788895 330.153656,163.217514 329.334137,161.251480 
	C328.119080,158.336685 327.047913,155.361053 325.951965,152.397827 
	C325.384674,150.863892 325.153992,149.108704 322.853363,148.544540 
	C319.048309,152.074402 315.317841,155.743271 314.110077,161.265671 
	C313.451447,164.277084 311.659058,166.759460 309.731110,169.031403 
	C307.492218,171.669800 304.561340,172.090714 301.685089,170.094223 
	C298.798279,168.090408 299.641846,165.562653 301.156372,163.069626 
	C304.748627,157.156509 309.964386,152.294495 311.864655,145.262268 
	C313.389557,139.619003 312.704071,137.772934 307.092316,135.990646 
	C302.858215,134.645905 298.514404,135.191528 294.202667,134.999863 
	C291.324371,134.871933 287.492798,135.103607 287.304230,131.019943 
	C287.139465,127.450371 290.119293,126.075272 293.373718,125.613350 
	C299.106964,124.799614 304.789703,124.178772 310.616302,125.269470 
	C316.799805,126.426979 319.877441,122.338074 317.739349,116.269707 
	C315.540405,110.028671 316.060608,106.624184 319.373901,105.571770 
	C322.407471,104.608208 325.473511,108.150459 326.618988,114.080788 
	C327.028534,116.201073 326.988403,118.428795 327.567688,120.491150 
	C328.573181,124.070923 330.895111,124.582687 333.245361,121.710426 
	C335.343689,119.146065 336.908386,116.134689 339.079773,113.644196 
	C340.507324,112.006851 342.405518,109.764214 344.993805,111.832428 
	C347.113831,113.526466 347.229950,115.759956 345.630005,118.053757 
	C345.176331,118.704117 344.548950,119.679230 344.739563,120.265244 
	C347.080750,127.462456 341.359863,129.775436 337.000275,132.354446 
	C333.328705,134.526443 331.413940,136.853745 332.584198,141.523346 
z"/>
<path fill="#000000" opacity="1.000000" stroke="none" 
	d="
M549.030640,200.078766 
	C544.413147,201.208557 544.781677,198.819397 545.511902,195.950775 
	C548.307678,184.967361 551.578735,174.237228 557.484985,164.363770 
	C561.191589,158.167511 560.308228,156.719879 553.407471,154.341141 
	C549.178589,152.883408 544.806519,151.840973 540.576294,150.386719 
	C538.405701,149.640488 535.721375,148.596710 536.424622,145.649841 
	C537.112976,142.765289 539.636963,141.528015 542.571167,141.534760 
	C547.230286,141.545486 551.900818,141.470886 556.544556,141.771637 
	C560.849976,142.050476 562.331665,140.157669 561.746704,136.146164 
	C561.435425,134.011154 560.944458,131.890106 560.805115,129.745178 
	C560.613403,126.791649 562.494202,124.924156 565.035461,124.321548 
	C567.471069,123.743958 567.622498,126.347237 568.426758,127.872047 
	C568.658630,128.311646 568.826416,128.788223 568.993164,129.258606 
	C571.748169,137.028412 573.478699,137.682938 580.849060,133.551605 
	C582.732178,132.496033 584.461243,131.167343 586.275757,129.986801 
	C587.884705,128.940063 589.686951,128.121628 591.329712,129.575958 
	C593.183594,131.217270 592.379456,133.223282 591.417969,135.057465 
	C589.315857,139.067581 585.441223,141.271805 582.057556,143.897781 
	C575.684998,148.843399 575.294067,153.790466 580.664673,159.749313 
	C584.320435,163.805420 584.213379,169.502655 585.982483,174.394043 
	C586.494080,175.808548 585.366089,177.285309 583.683716,177.776093 
	C581.669556,178.363678 580.063782,177.616623 578.869324,176.016373 
	C576.682373,173.086472 574.648682,170.038040 572.374756,167.179245 
	C571.393311,165.945389 570.375916,164.431244 568.388550,164.547409 
	C561.969055,172.557663 557.565979,181.517639 555.271545,191.521652 
	C554.452637,195.092575 552.196289,197.730377 549.030640,200.078766 
z"/>
<path fill="#000000" opacity="1.000000" stroke="none" 
	d="
M666.169067,123.969826 
	C666.107483,123.218018 666.032532,122.867432 666.111816,122.556152 
	C666.771118,119.968758 666.177795,116.169426 670.213013,116.250015 
	C674.182373,116.329285 673.716248,119.925888 674.103027,122.659065 
	C674.311584,124.132858 674.604370,125.600639 674.958557,127.046753 
	C675.928406,131.006088 678.458069,131.698776 681.720398,129.874634 
	C685.630920,127.688049 689.405151,125.255226 693.210510,122.884171 
	C695.005554,121.765694 696.821045,119.753578 698.737610,122.389198 
	C700.364624,124.626793 700.483826,127.219086 698.204041,129.138885 
	C694.266541,132.454559 690.143738,135.550308 686.092773,138.730804 
	C684.916687,139.654160 683.651855,140.475815 682.545044,141.474228 
	C676.748230,146.703384 676.263367,149.293869 679.967285,156.202682 
	C681.388245,158.853180 682.969299,161.444366 683.137695,164.501862 
	C683.246826,166.481949 683.120850,168.862915 680.753784,169.448593 
	C678.455566,170.017197 676.987000,168.192245 676.252380,166.298615 
	C674.934753,162.902405 673.621216,159.552811 671.217224,156.456161 
	C668.207764,157.775406 666.464478,159.938904 665.359497,162.548080 
	C662.890015,168.378906 659.001282,173.379868 655.999268,178.897842 
	C654.923340,180.875549 653.455688,183.556458 650.745605,182.427521 
	C647.613647,181.122864 648.613403,178.055573 649.801941,175.940704 
	C653.596375,169.188705 655.688782,161.602951 660.211426,155.212418 
	C663.760864,150.196838 662.939941,148.560852 656.719482,147.843414 
	C653.747803,147.500641 650.757263,147.323212 647.782593,147.003311 
	C645.089783,146.713699 643.404114,145.021942 643.247192,142.476929 
	C643.085938,139.862793 644.774414,138.229172 647.349854,137.571121 
	C649.472290,137.028839 651.605957,136.860626 653.781128,137.087189 
	C667.079285,138.472183 668.156921,137.370804 666.169067,123.969826 
z"/>
<path fill="#000000" opacity="1.000000" stroke="none" 
	d="
M359.988556,628.013428 
	C358.604279,628.604919 357.445740,629.372620 356.541077,628.093323 
	C355.887634,627.169250 356.467255,626.168701 356.949829,625.297424 
	C359.604950,620.503601 364.805145,618.905640 368.775848,615.760864 
	C376.110382,609.952026 385.190948,606.747498 391.702087,599.691711 
	C395.508972,595.566345 400.005096,592.068298 404.273041,588.382874 
	C405.372650,587.433289 406.861816,586.377075 408.310303,587.494202 
	C409.826843,588.663818 408.816345,590.199951 408.301361,591.583801 
	C407.309784,594.248718 406.287903,596.443665 402.992310,597.495117 
	C400.206360,598.384033 397.213196,600.244019 397.125854,604.130859 
	C397.102203,605.185486 396.386475,605.938171 395.413879,606.397339 
	C382.941010,612.285461 372.402069,621.337585 359.988556,628.013428 
z"/>
<path fill="#000000" opacity="1.000000" stroke="none" 
	d="
M500.011780,434.894562 
	C497.742249,436.748444 497.742249,436.748444 495.029175,437.417816 
	C493.127014,435.842102 494.375824,434.045441 494.814301,432.399963 
	C497.751740,421.377533 503.496582,411.565704 508.228333,401.310028 
	C510.785919,395.766724 512.434692,389.760895 517.788574,385.957153 
	C519.167725,384.977264 520.391907,383.873016 522.224426,384.022949 
	C523.576416,384.133545 525.088440,384.221375 525.577148,385.695496 
	C526.139404,387.391388 524.924011,388.103180 523.452087,388.335999 
	C522.139893,388.543518 521.583618,389.363342 521.003174,390.497772 
	C516.230103,399.826416 511.610718,409.247925 506.429962,418.348236 
	C503.489288,423.513733 503.769867,429.756500 500.011780,434.894562 
z"/>
<path fill="#000000" opacity="1.000000" stroke="none" 
	d="
M249.548035,701.681885 
	C246.989334,703.554626 244.626114,707.309998 241.792953,704.254333 
	C239.220978,701.480408 241.810318,698.054565 243.974014,695.933960 
	C249.527069,690.491272 255.072388,685.261597 263.219635,683.144592 
	C268.320557,681.819214 272.537323,677.421204 278.418060,677.547424 
	C280.101227,677.583557 281.764008,677.241821 283.019562,679.004395 
	C282.842133,681.789612 280.482208,682.425964 278.459045,683.499451 
	C268.484009,688.792236 258.045532,693.354248 249.548035,701.681885 
z"/>
<path fill="#000000" opacity="1.000000" stroke="none" 
	d="
M93.677559,445.648132 
	C98.410767,441.043335 102.889320,436.684509 107.361671,432.319305 
	C108.188568,431.512207 108.900490,430.556122 109.822502,429.884247 
	C111.717056,428.503662 113.604897,428.871277 115.258629,430.375214 
	C117.206734,432.146973 116.094986,433.757843 114.671310,435.024933 
	C107.617348,441.303284 100.742294,447.822998 93.301025,453.610718 
	C88.840775,457.079803 85.380409,461.654724 80.486458,464.558319 
	C78.845451,465.531891 77.568306,467.327515 74.475998,466.817017 
	C77.765747,456.795013 87.498055,452.989532 93.677559,445.648132 
z"/>
<path fill="#000000" opacity="1.000000" stroke="none" 
	d="
M466.649689,495.481873 
	C467.269348,493.902527 467.589264,492.564545 468.288818,491.468994 
	C469.468781,489.621063 471.382263,489.648987 473.181854,490.286804 
	C475.021759,490.938965 474.868011,492.516907 474.451233,494.048950 
	C471.136658,506.232971 466.382324,517.878235 461.100616,529.313599 
	C460.420410,530.786255 459.068115,532.211975 457.132751,531.585266 
	C454.686340,530.793030 455.451385,528.713623 455.700226,526.949768 
	C456.524719,521.105591 459.779816,516.152588 461.758148,510.728973 
	C463.549896,505.816833 463.311768,500.269348 466.649689,495.481873 
z"/>
<path fill="#000000" opacity="1.000000" stroke="none" 
	d="
M224.730774,291.674988 
	C225.752197,290.780609 226.463394,290.064941 227.274429,289.490143 
	C229.156372,288.156433 231.206497,287.212524 233.029099,289.406464 
	C234.928009,291.692291 233.437668,293.382507 231.654480,294.877289 
	C231.271805,295.198059 230.908493,295.555481 230.485657,295.812866 
	C219.237503,302.658722 209.543335,311.481476 199.631470,320.028748 
	C199.131775,320.459656 198.541458,320.794159 197.966934,321.128113 
	C195.838226,322.365540 193.093536,324.575348 191.439270,321.720673 
	C189.735550,318.780640 193.662491,318.501007 195.221954,317.123474 
	C198.813339,313.951080 202.320206,310.681244 205.956375,307.561707 
	C212.087402,302.301758 218.292145,297.127808 224.730774,291.674988 
z"/>
<path fill="#000000" opacity="1.000000" stroke="none" 
	d="
M151.119400,531.125977 
	C145.425262,535.490051 141.060287,540.859375 135.333908,544.634094 
	C133.948273,545.547546 132.500870,546.383972 131.017532,547.127441 
	C129.644531,547.815613 128.077438,548.342102 126.915909,546.877502 
	C125.777428,545.441956 126.491936,543.788208 127.495384,542.770508 
	C130.739761,539.479980 133.990204,536.133972 137.624008,533.304810 
	C141.850220,530.014343 145.984756,526.756104 148.724228,522.043152 
	C149.686081,520.388489 151.088608,519.235596 153.018112,518.908203 
	C154.559830,518.646606 156.072586,518.809143 157.086395,520.167236 
	C158.000366,521.391602 157.662750,522.746948 156.992203,523.942078 
	C155.519379,526.567261 153.782135,529.002808 151.119400,531.125977 
z"/>
<path fill="#000000" opacity="1.000000" stroke="none" 
	d="
M319.308899,255.171661 
	C311.166626,261.509216 303.259888,267.561890 294.492462,274.273407 
	C295.327545,269.302063 297.717957,266.938904 300.445129,264.727173 
	C305.092560,260.958130 309.581848,256.990662 314.292450,253.304504 
	C316.465759,251.603851 319.094086,250.080017 319.308899,255.171661 
z"/>
<path fill="#000000" opacity="1.000000" stroke="none" 
	d="
M161.326050,500.995056 
	C164.928482,498.113312 168.248642,495.406006 171.656128,492.813507 
	C173.858719,491.137787 176.340866,490.512329 178.170227,493.144043 
	C180.276901,496.174713 177.759567,497.835693 175.566574,498.906128 
	C170.734406,501.264801 165.874420,503.689453 160.677658,504.595703 
	C159.280106,502.882019 160.494766,502.124817 161.326050,500.995056 
z"/>
<path fill="#000000" opacity="1.000000" stroke="none" 
	d="
M114.834953,577.893921 
	C116.494789,573.787109 121.773338,570.618835 125.385704,571.165588 
	C126.409805,571.320618 127.370903,571.664062 127.792641,572.673218 
	C128.232056,573.724670 127.848366,574.862305 126.908653,575.244202 
	C123.085091,576.798523 119.711090,580.320618 114.834953,577.893921 
z"/>
<path fill="#000000" opacity="1.000000" stroke="none" 
	d="
M182.157104,489.203064 
	C179.970993,489.688263 177.776001,490.244507 177.238647,487.824280 
	C176.630859,485.086731 179.173538,484.276917 181.083481,483.399353 
	C182.935867,482.548218 185.431473,481.826263 186.425766,484.000031 
	C187.988144,487.415771 184.285583,487.710571 182.157104,489.203064 
z"/>
<path fill="#000000" opacity="1.000000" stroke="none" 
	d="
M524.827637,373.783356 
	C525.834656,373.126068 526.628784,372.812103 527.324219,373.542908 
	C528.084778,374.342255 527.594910,375.143341 526.972412,375.668762 
	C523.267700,378.795898 519.516174,381.867706 515.464600,384.670319 
	C517.038086,379.894257 521.696350,377.695343 524.827637,373.783356 
z"/>
<path fill="#000000" opacity="1.000000" stroke="none" 
	d="
M378.204529,435.026245 
	C381.718201,432.747528 384.820648,430.145325 389.071838,430.801361 
	C389.931427,433.672485 388.087982,434.422821 386.477234,435.194611 
	C384.395630,436.192047 382.275116,437.132172 380.106598,437.918488 
	C377.100800,439.008331 376.841583,437.674286 378.204529,435.026245 
z"/>
<path fill="#000000" opacity="1.000000" stroke="none" 
	d="
M399.701660,431.647247 
	C396.983978,432.729248 395.418732,436.833679 391.675110,433.641449 
	C393.527802,429.631927 397.697876,428.857056 400.814850,426.779999 
	C401.472595,426.341644 402.556519,426.587280 402.826385,427.554413 
	C403.490387,429.933990 401.634735,430.640808 399.701660,431.647247 
z"/>
<path fill="#000000" opacity="1.000000" stroke="none" 
	d="
M422.457825,312.226379 
	C425.962402,311.796692 427.649567,314.535980 430.205231,315.644379 
	C425.944153,319.008087 422.833557,314.504456 419.095337,314.548737 
	C419.050354,311.940704 420.624481,312.100189 422.457825,312.226379 
z"/>
<path fill="#000000" opacity="1.000000" stroke="none" 
	d="
M446.444336,303.100800 
	C449.387543,303.096863 450.468872,304.536499 449.729309,306.918640 
	C449.158752,308.756256 447.554779,308.846161 446.093689,307.906281 
	C443.775513,306.415161 444.037292,304.778015 446.444336,303.100800 
z"/>
</svg>