<svg version="1.1" id="Layer_1" xmlns="http://www.w3.org/2000/svg" xmlns:xlink="http://www.w3.org/1999/xlink" x="0px" y="0px"
	 width="100%" viewBox="0 0 1024 576" enable-background="new 0 0 1024 576" xml:space="preserve">
<path fill="#000000" opacity="1.000000" stroke="none" 
	d="
M469.210754,408.455444 
	C466.119049,417.935486 464.315582,427.412018 460.563293,436.333069 
	C454.390808,451.008240 445.757019,464.108887 435.660889,476.302704 
	C431.208466,481.680206 426.321259,486.667542 421.189331,491.409515 
	C419.540558,492.933014 417.722168,494.530731 415.493164,493.072052 
	C413.233093,491.593048 413.955566,489.238739 414.832672,487.193420 
	C420.936554,472.959839 423.367188,457.657867 427.474457,442.855865 
	C429.016235,437.299500 430.477142,430.727478 425.264496,425.116638 
	C422.431458,427.299408 419.705566,431.107422 416.400726,425.474792 
	C413.563599,430.535919 407.926300,431.650116 404.970123,436.205444 
	C403.352264,438.698517 400.007660,440.154755 396.483856,438.604858 
	C395.060333,437.978760 393.869080,438.399658 393.142181,439.830627 
	C390.515381,445.001678 385.708618,446.582764 380.506805,447.367371 
	C377.394470,447.836884 375.125519,449.925415 372.428040,451.179108 
	C366.557251,453.907654 360.167450,455.017181 354.102234,457.214447 
	C339.996155,462.324585 326.443237,468.161865 314.686615,477.696625 
	C312.808929,479.219421 310.980255,482.170441 307.855957,479.985504 
	C301.908936,475.826477 301.949493,475.768494 304.627716,469.672180 
	C298.810852,469.643311 293.940369,473.934845 287.855042,473.541229 
	C287.561646,468.469177 292.011963,466.985321 293.925873,463.908142 
	C295.887543,460.754089 298.616760,458.077454 300.435150,454.516388 
	C297.311768,456.261658 294.219330,458.065857 291.052856,459.729034 
	C289.295868,460.651855 287.458679,461.470551 285.577271,462.093414 
	C283.896576,462.649780 281.920929,463.540619 280.638367,461.433136 
	C279.508301,459.576294 281.051605,458.413879 282.061798,457.100006 
	C285.497559,452.631195 288.867462,448.111755 292.714691,443.012329 
	C288.882385,444.029358 286.386108,447.283539 282.883331,446.378174 
	C281.677643,445.010895 282.148438,443.857391 282.843719,442.941711 
	C288.600037,435.360840 291.445190,426.539276 293.985779,417.540710 
	C295.462097,412.311584 299.541962,408.528015 302.241364,403.960449 
	C306.440857,396.854614 306.798767,388.298798 311.307434,381.402069 
	C314.206177,376.967957 314.299683,371.653168 316.078888,366.885193 
	C319.262543,358.353485 325.511017,351.678070 330.252411,344.086517 
	C331.392700,342.260742 332.903687,340.666199 333.309021,338.500824 
	C323.118195,332.491089 312.485809,329.573486 300.683228,332.852234 
	C289.242737,336.030365 276.987213,336.804169 267.261963,344.847076 
	C264.305817,347.291840 261.282288,349.591736 258.964020,352.711121 
	C257.297607,354.953430 255.267090,356.840576 252.221588,355.085571 
	C249.098648,353.286011 250.392899,350.871094 251.685806,348.655701 
	C257.361450,338.930695 263.430389,329.696411 272.804382,322.777496 
	C277.821716,319.074280 282.674652,314.874512 287.653778,311.120911 
	C294.601349,305.883423 302.016907,300.743713 310.412659,297.992493 
	C325.814972,292.945343 341.838837,291.399628 357.975067,290.921295 
	C362.715729,290.780762 367.165985,291.890076 371.604889,293.516235 
	C380.489105,296.770905 388.310150,294.596893 394.939270,288.074677 
	C401.093597,282.019531 404.198578,274.263336 406.257538,266.111969 
	C407.663727,260.544769 406.136200,258.896698 400.425537,258.742432 
	C395.406738,258.606873 390.207245,253.474640 389.848206,247.932663 
	C389.569000,243.622650 389.759827,239.284180 389.648834,234.960724 
	C389.531128,230.374588 391.100311,226.431717 394.197296,223.154953 
	C402.205566,214.681778 411.564087,209.396606 423.752808,210.814362 
	C430.714508,211.624130 441.658600,220.324448 441.736847,225.791824 
	C441.873901,235.371246 438.451538,243.296219 429.817719,248.363937 
	C425.971039,250.621765 422.255157,253.131592 418.284821,255.141571 
	C414.124603,257.247681 412.968964,260.651825 412.785980,265.507721 
	C420.123993,262.569489 426.641327,259.064362 433.116669,255.498154 
	C436.937317,253.393967 440.957092,251.878342 445.115143,250.644058 
	C446.677765,250.180237 448.155151,249.961304 448.957764,251.732040 
	C449.910217,253.833405 448.412903,254.690948 446.859558,255.538467 
	C436.942902,260.949036 426.999146,266.258789 416.233612,269.902405 
	C410.385681,271.881622 408.523987,275.134766 409.299744,280.313995 
	C409.677643,282.837097 410.523132,283.456512 413.319153,282.775574 
	C427.782990,279.252899 441.786621,274.161224 456.519562,271.399139 
	C467.259888,269.385620 477.975403,267.783691 488.808929,266.663330 
	C493.081146,266.221527 494.090515,268.321259 494.297668,272.230347 
	C494.784576,281.419189 492.295868,290.406738 492.430176,299.419861 
	C492.554352,307.755524 489.052643,314.889709 487.453644,322.602905 
	C485.881256,330.187561 482.733490,337.438965 481.044037,345.007843 
	C479.215820,353.198456 474.529846,359.876556 470.646301,366.972992 
	C469.313171,369.408997 468.413940,371.689453 469.698517,373.961853 
	C473.557312,380.787933 471.586517,387.934631 471.177490,394.961578 
	C470.920868,399.370422 470.004913,403.740875 469.210754,408.455444 
M389.275940,378.000458 
	C386.067352,376.050781 382.994720,373.984161 379.003204,373.633728 
	C376.386139,373.403931 375.639160,370.822479 374.601227,368.678955 
	C373.698639,366.814880 373.990997,364.395844 371.726135,363.103210 
	C367.469025,360.673584 368.977875,356.872284 369.516937,353.207642 
	C373.272217,359.826660 376.433350,366.702393 383.684479,370.036346 
	C379.711212,363.837189 376.860504,357.551880 377.731567,349.980377 
	C378.109833,346.692444 377.790588,343.326996 378.122314,340.030426 
	C378.924500,332.058319 382.424774,324.930969 387.640747,319.280945 
	C390.685303,315.983032 392.163727,313.397797 391.156372,309.137421 
	C382.810303,315.277039 381.547546,317.267334 379.745178,326.295013 
	C379.320435,328.422211 378.619965,330.507507 376.017456,331.103485 
	C373.009125,331.792419 371.872070,334.131317 372.352722,336.774445 
	C373.322449,342.107178 368.769531,344.839874 366.973175,348.828094 
	C366.464844,349.956696 364.556824,352.098328 361.297150,350.935822 
	C363.750031,347.666565 364.504700,344.312286 361.425568,341.036530 
	C362.542053,340.423157 363.249023,339.697113 363.942230,339.710022 
	C367.767792,339.781250 369.785217,338.903290 367.773956,334.512787 
	C366.981171,332.782227 368.300629,331.148468 369.369720,329.549286 
	C371.940948,325.703278 376.929596,324.084045 377.955841,318.592407 
	C378.786713,314.146240 379.524628,308.773529 385.696106,307.378082 
	C386.941376,307.096497 388.014618,305.153564 388.239960,302.475861 
	C383.115570,305.349060 377.992218,307.147095 373.899475,310.678223 
	C369.187988,314.743225 364.571930,318.723602 360.759125,323.987030 
	C357.380920,328.650482 351.798157,332.072021 346.837341,335.654724 
	C341.555206,339.469421 337.707245,344.744324 335.142090,350.818451 
	C333.641449,354.371918 331.975861,358.017120 329.238342,360.584686 
	C322.947479,366.485046 325.742004,368.657593 330.869659,371.495483 
	C341.402832,377.325134 351.120819,384.074738 359.377472,392.878265 
	C367.879761,401.943665 376.989075,410.471619 384.152222,420.719330 
	C386.877625,424.618317 387.705078,429.595398 391.160004,433.820862 
	C395.907684,429.301666 400.173035,424.778320 405.608246,421.553925 
	C409.055695,419.508698 413.473328,418.111115 415.491974,414.587097 
	C421.108032,404.782837 430.670654,398.893768 438.725189,391.904755 
	C448.242645,383.646332 451.611664,372.251434 459.456482,362.405762 
	C452.584106,364.071625 451.217377,370.856567 445.619873,372.721802 
	C448.440247,368.571533 450.086334,363.820892 454.045593,360.366760 
	C456.995972,357.792786 460.236023,354.672089 457.870819,350.151367 
	C456.349182,347.242981 456.074951,344.467926 456.964203,341.507385 
	C457.966980,338.168976 457.040802,335.929810 454.135223,333.862396 
	C449.936890,330.875214 443.744019,328.840485 447.112854,321.573639 
	C444.523743,320.883423 442.615570,320.652954 441.513977,322.529541 
	C440.618896,324.054230 441.015076,325.869415 442.054596,327.248993 
	C443.762939,329.516266 444.666077,332.130798 445.807068,334.667542 
	C450.866821,345.916748 448.010620,357.583008 438.330200,365.341278 
	C432.068451,370.359741 425.703094,374.893341 417.477325,376.394226 
	C409.374908,377.872620 401.522949,379.377380 393.923920,374.494293 
	C392.562256,373.619293 390.742340,372.008423 388.399597,373.165192 
	C388.994446,374.893280 389.521057,376.423096 390.010193,377.994110 
	C390.010193,377.994110 389.974945,378.037231 389.275940,378.000458 
M482.142181,295.429260 
	C484.574341,291.683472 482.206573,286.312958 486.632019,282.945038 
	C482.962219,280.217407 488.547180,276.472290 485.190704,273.331085 
	C471.533203,276.021698 457.612946,278.226288 443.862213,281.453796 
	C435.128265,283.503784 427.098206,287.825653 418.023712,288.785614 
	C414.822876,289.124237 411.785583,290.989655 408.668243,292.143402 
	C406.221558,293.048920 405.328827,295.129730 405.757629,297.322174 
	C406.237579,299.776184 408.501160,299.033386 410.310181,298.974396 
	C414.131042,298.849701 417.956177,298.827972 421.779602,298.823822 
	C423.637146,298.821808 425.599030,299.001526 426.874084,300.463593 
	C430.632385,304.773132 435.842651,305.176392 440.883728,305.503967 
	C444.398865,305.732361 447.886414,306.962402 448.778198,309.703644 
	C449.704376,312.550598 452.603546,315.260651 450.496979,319.231354 
	C449.163940,321.744019 450.909149,324.758179 453.475464,326.518707 
	C456.600525,328.662628 459.817749,330.672180 462.998108,332.741760 
	C457.969360,340.926270 458.432343,346.593048 464.699707,352.199768 
	C465.369690,348.144867 468.743073,345.680298 470.389191,342.126526 
	C474.811218,332.579956 480.795685,323.638947 480.208344,312.434845 
	C480.088928,310.156433 480.686829,307.985626 481.313690,305.724243 
	C482.142426,302.734650 483.721130,299.455200 482.142181,295.429260 
M361.452026,445.729034 
	C366.064331,443.409363 371.341888,443.280426 376.039246,440.977570 
	C383.591675,437.274963 384.729370,434.243225 379.493652,427.729614 
	C374.633759,421.683380 370.968689,414.801727 365.601471,409.091614 
	C357.201233,400.154663 348.591919,391.462067 338.404999,384.591949 
	C333.803314,381.488556 328.609833,379.262695 323.860962,376.732513 
	C322.321136,377.198181 321.923492,378.255554 321.420197,379.344025 
	C319.059174,384.450409 316.820892,389.630371 314.140228,394.567657 
	C311.033600,400.289490 311.894897,404.648621 317.579285,408.055115 
	C320.529419,409.823059 322.803314,412.115631 324.176849,415.212463 
	C324.762177,416.532166 325.764099,417.259521 326.772980,418.123688 
	C336.263397,426.253143 342.659149,436.548798 347.263092,448.006958 
	C348.227631,450.407501 349.433716,451.297852 351.725281,450.304077 
	C354.773834,448.982056 357.743896,447.479004 361.452026,445.729034 
M355.686493,313.152985 
	C361.179138,309.273132 367.034943,305.859894 371.960144,300.932861 
	C348.820312,291.116730 293.673889,306.350494 279.681152,328.544159 
	C286.023926,328.359558 291.645355,326.317383 297.436096,325.405304 
	C308.818146,323.612579 320.146179,321.523163 330.207672,330.093384 
	C335.183990,334.332123 336.162689,334.046661 340.193176,328.886230 
	C344.619751,323.218689 350.303467,318.834137 355.686493,313.152985 
M442.248962,455.770355 
	C446.271118,447.763733 452.027771,440.664551 454.870056,432.049927 
	C459.806549,417.088013 463.723022,401.872314 465.632812,386.199615 
	C465.829712,384.583740 465.742249,382.828949 465.315521,381.267365 
	C464.763763,379.248230 463.310455,377.778381 461.101562,377.476990 
	C458.877991,377.173553 458.528198,379.104950 457.695496,380.499908 
	C456.675140,382.209198 455.493042,383.820984 454.424042,385.502380 
	C448.472260,394.863525 440.617889,402.739838 434.026001,411.609253 
	C431.387451,415.159393 430.188354,418.121277 432.411469,422.555664 
	C436.634583,430.979401 436.255188,439.685760 433.203064,448.646149 
	C430.085358,457.798981 427.474762,467.163513 425.684570,477.819061 
	C432.268768,470.634094 437.531219,463.863007 442.248962,455.770355 
M294.864502,430.300842 
	C294.528137,432.142334 292.917633,433.786804 293.703430,435.696777 
	C297.446838,436.742432 300.448517,431.812836 304.523895,435.161774 
	C301.071686,441.760986 294.988190,446.416443 291.441467,453.776154 
	C297.072052,450.749603 301.863434,448.157684 306.672028,445.598175 
	C308.403412,444.676575 310.363312,443.100861 312.085358,445.051117 
	C313.849670,447.049255 311.597443,448.681213 310.798523,450.365021 
	C308.080017,456.094635 302.991486,460.148712 299.938568,465.849640 
	C303.947021,463.466400 308.315308,462.076874 312.433807,460.105743 
	C316.919403,457.958862 318.562927,459.181000 318.307465,464.232635 
	C319.995544,463.522430 321.959991,461.868439 323.283020,462.279449 
	C329.773804,464.295715 333.503998,459.653687 337.991425,456.816406 
	C343.342346,453.433136 343.402435,452.429108 340.872711,446.736267 
	C336.801392,437.574158 328.471008,431.729553 323.233521,423.461548 
	C320.037323,418.415924 314.388702,415.912689 309.743378,411.622803 
	C308.917053,415.174805 309.601105,418.457764 306.839752,420.303864 
	C303.291016,419.406128 306.311310,415.871307 304.019012,414.367554 
	C298.398834,417.952271 298.540771,424.838135 294.864502,430.300842 
M395.339813,332.963989 
	C394.520233,335.487061 393.699890,338.009888 392.881287,340.533264 
	C388.427856,354.261383 394.786743,362.667847 408.998779,361.886261 
	C420.163666,361.272217 429.302216,357.653168 434.254547,346.535187 
	C438.360718,337.316742 435.050995,329.042297 425.429901,326.169739 
	C423.060211,325.462158 420.475525,325.369812 418.201874,324.462769 
	C406.818146,319.921173 401.534058,321.678192 395.339813,332.963989 
M423.163300,222.960419 
	C410.175659,221.412415 403.058319,226.076202 400.793182,237.618973 
	C398.543304,249.084000 399.922974,250.651245 411.588501,249.894608 
	C412.084473,249.862457 412.597290,249.963120 413.080292,249.877640 
	C420.262177,248.606949 431.657806,243.928864 432.291656,234.604965 
	C432.585052,230.288803 430.719940,226.548431 429.898712,222.535202 
	C429.813080,222.116608 429.383972,221.768280 429.104980,221.374268 
	C427.749268,222.176163 429.501709,224.290710 427.203766,224.701263 
	C426.265167,224.249268 425.088837,223.682770 423.163300,222.960419 
M425.605682,365.248138 
	C418.824554,369.376862 411.669067,371.268158 403.725281,369.251099 
	C401.649597,368.723999 399.575867,369.165955 397.966797,371.178772 
	C414.916718,376.688049 435.176758,365.527557 441.891418,350.910004 
	C443.196991,348.067749 443.195282,345.942352 441.653107,342.031860 
	C440.978882,353.223633 434.412750,359.647797 425.605682,365.248138 
M385.616638,355.362183 
	C383.019958,347.307892 386.585266,339.763580 388.627686,330.954376 
	C386.052246,332.922638 385.648743,334.510895 384.922760,335.972992 
	C382.588440,340.674133 383.349213,345.728394 383.040955,350.642395 
	C382.571533,358.125580 386.046570,363.856628 391.817749,368.202759 
	C393.188354,369.234955 395.369904,369.646606 397.554901,367.243103 
	C391.148804,365.678070 387.962891,361.439972 385.616638,355.362183 
M435.242981,311.276123 
	C431.756714,309.863831 427.811890,311.894501 424.247925,310.074554 
	C431.104584,313.512146 436.545166,320.327209 445.692902,318.378662 
	C446.318573,315.708405 445.355713,313.686310 442.801086,313.674988 
	C440.067902,313.662842 438.303528,311.717133 435.242981,311.276123 
M392.758026,300.480988 
	C396.196564,302.947876 396.882996,302.454010 397.638458,296.911346 
	C395.355957,296.835236 394.246918,298.535400 392.758026,300.480988 
z"/>
<path fill="#000000" opacity="1.000000" stroke="none" 
	d="
M507.083008,95.818985 
	C505.313477,99.085968 503.534668,98.030937 501.868408,96.221306 
	C498.742981,92.826958 495.685181,89.370346 491.523590,84.743706 
	C488.109467,93.475555 482.736816,98.986946 479.550232,105.895920 
	C477.184906,111.024284 474.809540,116.148018 472.423401,121.266693 
	C471.779724,122.647469 471.036682,124.158043 469.219299,123.865509 
	C467.520264,123.592018 467.790466,121.892090 467.450378,120.653992 
	C466.373322,116.732994 467.055145,113.365807 469.322327,109.811729 
	C473.387146,103.439751 476.836639,96.675262 480.913208,89.416061 
	C475.006897,87.891685 470.221497,85.641434 464.886475,85.226357 
	C463.396210,85.110413 461.867645,85.192459 460.420685,84.883621 
	C458.246948,84.419670 456.713837,83.049110 457.087952,80.669777 
	C457.436798,78.451096 459.322601,78.000786 461.283264,77.973503 
	C465.934052,77.908798 470.586975,77.742165 475.235352,77.824318 
	C479.771271,77.904465 482.153534,76.183784 481.770844,71.325294 
	C481.575714,68.847977 481.779419,66.338699 481.813995,63.844025 
	C481.835999,62.254910 482.150696,60.743889 483.981079,60.387474 
	C485.706879,60.051441 486.731567,61.221474 487.591064,62.518875 
	C487.682587,62.657009 487.752747,62.809174 487.834900,62.953644 
	C492.262115,70.739914 492.292175,70.775383 499.390045,64.766739 
	C500.757050,63.609497 501.971344,62.509232 503.741608,63.674026 
	C505.507690,64.836098 504.631073,66.394707 504.516418,68.074532 
	C504.143066,73.543411 501.108124,76.968269 496.420685,79.294235 
	C498.107910,83.675568 500.174561,87.153328 503.689270,89.670677 
	C505.648071,91.073624 507.074707,92.871704 507.083008,95.818985 
z"/>
<path fill="#000000" opacity="1.000000" stroke="none" 
	d="
M365.474640,120.787247 
	C367.911133,117.053795 370.041931,118.167000 371.859436,120.798096 
	C373.601654,123.320137 374.075195,126.307472 374.503632,129.302795 
	C374.711334,130.755005 375.170868,132.371796 377.030243,132.596680 
	C378.588501,132.785156 379.416962,131.570435 380.160797,130.473373 
	C381.465332,128.549438 382.558502,126.471924 383.966431,124.631859 
	C384.999969,123.281090 386.523590,122.231430 388.320923,123.137474 
	C390.227020,124.098343 389.820526,125.821785 389.978394,127.740517 
	C390.505981,134.153381 386.826721,137.441177 382.036774,140.170288 
	C379.432037,141.654373 378.933472,143.767059 379.486542,146.527740 
	C380.406372,151.118835 381.920227,155.507324 383.521271,159.889053 
	C384.412872,162.329285 384.931427,165.087830 381.716278,166.194046 
	C378.797913,167.198135 378.349670,164.376877 377.231781,162.620392 
	C375.479889,159.867828 375.752228,156.056671 372.507721,153.718262 
	C369.517822,156.887619 366.462219,159.792877 365.890320,164.427383 
	C365.507019,167.533386 363.716003,169.977661 361.471313,172.063934 
	C359.757324,173.656982 357.825012,173.605316 355.976379,172.369019 
	C354.064545,171.090408 354.199738,169.258804 355.177246,167.511246 
	C357.199951,163.895050 359.573151,160.458496 361.387970,156.745590 
	C366.244202,146.810440 363.694427,142.994553 352.488403,143.106903 
	C350.991760,143.121918 349.496155,143.278030 348.000854,143.380447 
	C345.767883,143.533371 343.323181,143.716965 343.011963,140.718445 
	C342.748444,138.179428 344.571198,136.540985 346.821411,136.177078 
	C350.544098,135.575058 354.056824,133.996185 358.076782,134.637512 
	C366.299011,135.949280 369.503387,132.832428 365.353729,124.496109 
	C364.798035,123.379715 364.808014,122.253616 365.474640,120.787247 
z"/>
<path fill="#000000" opacity="1.000000" stroke="none" 
	d="
M563.463867,171.462204 
	C560.931885,176.561493 561.174194,182.313721 557.620178,186.614044 
	C556.487732,187.984314 555.800476,189.921082 552.744263,189.311295 
	C552.459167,184.787643 554.193420,180.461349 555.004883,176.057953 
	C556.170044,169.735336 559.929321,164.450058 562.384888,158.638565 
	C564.708191,153.139954 563.963013,151.604691 558.246704,150.026627 
	C555.040222,149.141418 551.752075,148.552429 548.543030,147.675476 
	C546.771240,147.191315 544.826294,146.473709 544.891663,144.180313 
	C544.960144,141.779465 546.855103,140.614319 548.881287,140.376312 
	C552.509338,139.950150 556.186279,139.915268 559.845154,139.781815 
	C565.684937,139.568802 566.452087,138.553329 565.025696,132.730972 
	C564.748474,131.599213 564.311890,130.491470 564.168457,129.345154 
	C563.896057,127.168877 565.199768,125.868805 567.053162,125.205803 
	C569.123230,124.465340 569.559021,126.266060 570.165039,127.579933 
	C571.268188,129.971725 572.294678,132.398911 573.380920,134.874649 
	C577.957397,133.642899 581.425781,131.069092 584.959961,128.615234 
	C586.386292,127.624931 587.956787,126.705338 589.433655,128.282608 
	C590.837463,129.781845 590.041687,131.410583 589.077026,132.842651 
	C587.453003,135.253586 584.974426,136.701096 582.691956,138.368484 
	C576.449890,142.928421 575.915161,145.814743 579.701355,152.413193 
	C581.599304,155.720825 583.182251,159.211502 584.854431,162.645355 
	C585.764465,164.514359 585.566956,166.310120 583.765503,167.507080 
	C581.732117,168.858124 580.271790,167.559341 579.127686,166.014511 
	C576.864685,162.959045 574.856689,159.679916 570.966614,157.664749 
	C568.337769,162.112137 565.086487,166.092606 563.463867,171.462204 
z"/>
<path fill="#000000" opacity="1.000000" stroke="none" 
	d="
M666.906250,121.853821 
	C669.829285,119.899483 672.470825,118.167549 675.084778,116.394859 
	C676.368164,115.524521 677.536682,113.481033 679.224731,115.418732 
	C680.754578,117.174896 680.329224,119.337547 678.746887,120.833992 
	C675.250061,124.140945 671.563171,127.247803 667.931580,130.410812 
	C667.182068,131.063660 666.283508,131.546936 665.542847,132.208237 
	C661.116699,136.159973 660.567139,139.144913 663.142822,144.553772 
	C664.212524,146.800049 665.378052,149.028610 666.147888,151.380478 
	C666.712585,153.105850 666.897888,155.332291 664.731201,156.107544 
	C662.757202,156.813843 661.917908,154.913895 661.047363,153.493561 
	C659.439880,150.870880 658.921021,147.561234 656.297424,145.564346 
	C653.907349,146.212524 653.143982,148.156403 652.199768,149.854156 
	C649.391357,154.903275 646.700562,160.018005 643.871887,165.055496 
	C642.874023,166.832626 642.063843,169.856964 639.415283,168.643906 
	C636.489441,167.303864 638.164001,164.516510 639.096680,162.526703 
	C641.831116,156.692337 644.832336,150.983490 647.618042,145.172287 
	C648.311157,143.726440 649.478394,142.354675 649.100525,140.504898 
	C647.656860,138.542816 645.515564,139.185974 643.595764,139.079758 
	C641.274841,138.951309 638.934387,139.041412 636.630127,138.786316 
	C634.617432,138.563492 633.214478,137.317307 633.109924,135.200623 
	C633.001770,133.010406 634.495789,131.878143 636.407898,131.407532 
	C639.679565,130.602325 643.029846,131.058365 646.349060,130.974228 
	C651.847473,130.834839 653.087708,129.401260 652.770874,123.968033 
	C652.606934,121.155678 651.651917,118.409950 652.138123,115.539787 
	C652.433044,113.798698 652.895386,112.110764 654.981201,112.042305 
	C657.013123,111.975609 657.936523,113.486855 658.074341,115.281189 
	C658.243408,117.484322 658.896423,119.515816 659.729980,121.513268 
	C660.105164,122.412369 660.600342,123.261414 661.020813,124.093048 
	C663.437073,124.526772 664.887146,122.917511 666.906250,121.853821 
z"/>
<path fill="#000000" opacity="1.000000" stroke="none" 
	d="
M200.793213,412.786713 
	C197.942963,415.113403 196.056046,418.345032 192.073105,418.473389 
	C191.278824,415.664337 193.092712,414.045319 194.461548,412.622559 
	C201.923843,404.866425 209.596634,397.313171 216.374817,388.922028 
	C216.980606,388.172058 217.889481,387.609772 218.754822,387.139038 
	C220.331375,386.281464 222.005432,386.124359 223.348022,387.528687 
	C224.954163,389.208618 223.755829,390.675140 222.589981,391.854492 
	C218.622833,395.867462 214.593811,399.820923 210.525284,403.731445 
	C207.417068,406.718903 204.213257,409.606873 200.793213,412.786713 
z"/>
<path fill="#000000" opacity="1.000000" stroke="none" 
	d="
M251.328156,460.305237 
	C252.982544,458.009003 254.285797,455.879913 255.860611,453.975372 
	C257.335968,452.191101 259.440857,452.023987 261.210876,453.349609 
	C263.001282,454.690552 261.929871,456.440765 260.932831,457.729858 
	C255.746841,464.435028 249.964508,470.547668 242.791382,475.194122 
	C241.518631,476.018524 239.984085,476.868927 238.755997,475.436310 
	C237.194794,473.615173 238.943253,472.423340 240.067581,471.308655 
	C243.711166,467.696564 247.414978,464.145203 251.328156,460.305237 
z"/>
<path fill="#000000" opacity="1.000000" stroke="none" 
	d="
M302.275818,280.248718 
	C296.277344,284.579010 291.512787,289.945282 285.303986,293.470032 
	C284.013824,291.915741 285.319397,291.231720 286.008820,290.473328 
	C291.107544,284.864441 295.931458,278.988525 301.897369,274.220551 
	C303.537445,272.909790 305.168396,270.516663 307.270508,272.794006 
	C309.390686,275.090942 306.890472,276.602112 305.369751,278.002075 
	C304.526215,278.778656 303.487671,279.343384 302.275818,280.248718 
z"/>
<path fill="#000000" opacity="1.000000" stroke="none" 
	d="
M366.343231,243.341782 
	C368.853333,241.226257 370.688965,238.013870 375.160431,240.815598 
	C370.071686,246.828522 363.972870,250.970535 357.530609,254.824478 
	C358.615051,249.707703 363.285400,247.347015 366.343231,243.341782 
z"/>
<path fill="#000000" opacity="1.000000" stroke="none" 
	d="
M266.321655,441.161194 
	C265.073517,441.468964 264.161255,442.235443 262.443298,440.661102 
	C266.038116,437.244446 268.736755,432.988556 273.658630,431.031616 
	C274.819244,430.570099 276.011658,430.869659 276.782318,431.941742 
	C277.776581,433.324921 277.188568,434.654572 276.026611,435.410645 
	C272.971313,437.398590 269.780426,439.178131 266.321655,441.161194 
z"/>
<path fill="#000000" opacity="1.000000" stroke="none" 
	d="
M232.473312,496.142670 
	C235.722519,494.597260 238.453415,491.970398 242.223328,493.894531 
	C239.904037,498.652344 235.825974,500.624725 230.080505,499.947906 
	C229.689560,498.104919 231.261673,497.416718 232.473312,496.142670 
z"/>
<path fill="#000000" opacity="1.000000" stroke="none" 
	d="
M279.888062,423.859802 
	C281.744598,424.023621 283.091797,424.632812 282.395355,426.311005 
	C281.502686,428.461975 279.311462,429.151245 277.219788,429.644592 
	C276.149994,429.896881 275.219482,429.287598 275.042023,428.163483 
	C274.774628,426.469330 275.742737,425.355560 277.183594,424.663391 
	C277.913879,424.312561 278.726715,424.133636 279.888062,423.859802 
z"/>
<path fill="#000000" opacity="1.000000" stroke="none" 
	d="
M390.028931,377.973511 
	C394.394958,378.685089 398.086395,381.205414 401.591858,383.404236 
	C405.569763,385.899384 408.796600,388.038849 413.226257,384.968842 
	C413.906891,384.497192 414.822632,384.558472 415.547302,385.180237 
	C412.013580,389.741730 406.787354,390.748077 402.436432,387.750366 
	C401.347046,386.999817 400.180634,385.857086 399.013580,385.811188 
	C394.157318,385.620239 392.362762,382.050446 390.175507,378.314240 
	C389.974945,378.037231 390.010193,377.994110 390.028931,377.973511 
z"/>
<path fill="#000000" opacity="1.000000" stroke="none" 
	d="
M441.679993,376.650818 
	C442.892334,376.213318 443.799225,375.557617 445.233429,376.944336 
	C440.031342,382.059906 432.300934,380.932648 426.868134,385.388428 
	C426.208740,381.230957 429.990448,377.706360 434.191437,378.655609 
	C437.281891,379.353943 439.253387,378.448120 441.679993,376.650818 
z"/>
</svg>