<svg version="1.1" id="Layer_1" xmlns="http://www.w3.org/2000/svg" xmlns:xlink="http://www.w3.org/1999/xlink" x="0px" y="0px"
	 width="100%" viewBox="0 0 832 752" enable-background="new 0 0 832 752" xml:space="preserve">
<path fill="#000000" opacity="1.000000" stroke="none" 
	d="
M757.998169,651.172546 
	C744.512024,651.541626 731.526245,651.986755 718.536621,652.192078 
	C714.875305,652.249939 713.908691,653.390747 713.080017,657.231079 
	C710.650574,668.489746 715.391541,676.046448 722.988037,683.617126 
	C731.235840,691.836792 731.786621,703.404724 733.074036,714.322144 
	C733.462280,717.614990 733.041565,720.998169 733.346436,724.307251 
	C733.715759,728.316223 732.077759,729.478394 728.193237,729.440674 
	C711.695862,729.280212 695.195984,729.384521 678.697021,729.384338 
	C565.037537,729.382812 451.378082,729.381348 337.718628,729.361084 
	C335.605316,729.360718 333.398621,729.776001 330.918976,728.318970 
	C332.743439,721.302063 334.223267,714.145996 336.504211,707.255127 
	C338.732574,700.522949 338.704132,693.988525 337.424561,687.132812 
	C335.992279,679.458862 335.032806,671.685730 334.145325,663.924011 
	C333.241577,656.020142 335.249146,648.723999 339.596283,642.070557 
	C340.583160,640.560181 341.978119,639.203125 341.285645,637.108582 
	C336.973022,624.063660 339.458008,611.042053 341.756927,598.115845 
	C343.118835,590.458191 342.680664,582.828369 342.524292,575.203796 
	C342.227417,560.728394 341.422241,546.282715 337.971985,532.102844 
	C337.003723,528.123535 335.628693,526.927490 331.466339,528.386841 
	C320.264526,532.314331 310.169708,537.829224 302.254425,546.853516 
	C298.673859,550.935730 293.958038,552.786072 288.849945,552.277527 
	C279.269531,551.323792 271.265411,553.143555 264.549255,560.823853 
	C259.652710,566.423340 252.104202,567.730164 245.062820,569.036133 
	C236.200974,570.679810 227.550018,572.988770 218.975571,575.707397 
	C215.016632,576.962646 210.917084,578.833252 206.927399,578.725037 
	C196.781647,578.449829 187.737732,582.294739 178.351120,584.961487 
	C169.882187,587.367615 161.495010,586.073425 153.165207,584.211914 
	C150.213455,583.552307 147.920837,584.018066 145.283936,585.730652 
	C139.791718,589.297791 133.737488,591.563171 126.953926,591.443054 
	C123.531128,591.382385 120.310852,591.057739 117.290833,588.538086 
	C112.773460,592.485168 108.306236,596.405457 103.818031,600.301575 
	C102.041672,601.843567 103.154564,603.191162 103.924004,604.700928 
	C108.122200,612.938049 105.913635,619.431702 97.546890,623.583008 
	C96.202553,624.250000 95.027733,624.899780 94.182373,626.344727 
	C88.720123,635.680786 83.813828,638.107422 73.182236,636.117859 
	C66.241020,634.818909 58.747753,635.512268 52.594284,630.964661 
	C52.238705,630.701843 51.611893,630.624817 51.155315,630.706726 
	C41.467728,632.444519 36.907917,626.065430 31.911802,619.398254 
	C26.431517,612.084839 24.275028,603.658508 21.652065,595.284851 
	C19.863579,589.575195 20.075705,583.887085 23.152575,578.858276 
	C27.850309,571.180298 33.039139,563.743958 41.541489,559.662292 
	C43.796021,558.579956 44.668312,557.106506 44.742504,554.623413 
	C45.132080,541.584900 52.059292,533.293457 63.938663,528.728577 
	C67.512138,527.355347 71.168503,526.175415 74.666512,524.633789 
	C79.439095,522.530457 83.712440,520.039307 85.239929,514.262878 
	C86.334229,510.124634 90.114502,508.045715 93.957413,506.626190 
	C96.649803,505.631653 98.051636,503.782684 99.463074,501.324188 
	C107.345955,487.593353 117.363434,476.182617 133.239914,471.316742 
	C143.481949,468.177734 153.316605,464.048950 161.791672,457.300018 
	C173.848434,447.698822 188.430145,443.851624 202.646606,439.168488 
	C207.705841,437.501892 212.830902,436.034546 217.930267,434.490601 
	C221.682083,433.354645 225.916534,432.564056 229.191406,434.322632 
	C234.869400,437.371613 239.376556,435.230347 244.198883,432.862305 
	C247.952911,431.018921 251.566467,428.969391 254.776657,426.271088 
	C261.915131,420.270874 270.160187,417.196777 279.446167,416.605652 
	C285.409851,416.225983 289.404480,412.632477 290.884094,406.707397 
	C294.308563,392.994263 297.719879,379.277893 301.128265,365.560760 
	C302.685944,359.291901 305.747040,353.770020 309.795898,348.830292 
	C315.022827,342.453278 319.166260,335.515411 322.019440,327.760834 
	C324.427551,321.215851 328.461395,315.694183 333.851837,311.309357 
	C336.650696,309.032593 337.053589,306.971405 334.746948,304.211548 
	C330.454529,299.075775 329.433502,293.141724 329.579742,286.509705 
	C329.774475,277.679169 330.320190,268.876617 330.709442,260.062012 
	C330.964020,254.296722 333.765869,250.461060 339.211212,248.330902 
	C343.711151,246.570587 348.340393,246.723145 353.000671,246.618988 
	C355.916382,246.553848 358.926514,247.273117 362.583038,245.692368 
	C351.858948,223.149139 348.522278,199.277206 348.902802,174.628265 
	C346.046722,173.777985 343.665344,174.431259 341.254730,174.885880 
	C333.829529,176.286194 326.557983,172.323349 324.223602,165.093628 
	C320.286438,152.899948 316.451233,140.661301 313.066101,128.306488 
	C311.336731,121.994621 312.966614,116.071655 317.991150,111.432724 
	C321.051117,108.607597 324.056549,105.720863 327.178894,102.966583 
	C330.071869,100.414627 332.367065,97.737816 333.625519,93.808556 
	C336.013275,86.353165 348.637878,81.175690 356.505951,84.979927 
	C363.300903,88.265327 369.598724,84.795074 376.092529,85.406105 
	C377.592560,85.547241 378.448029,83.713264 379.404480,82.580528 
	C403.181091,54.420761 434.086273,41.717644 470.347015,40.667877 
	C498.286438,39.859020 525.032471,44.836235 550.167358,57.396496 
	C552.419861,58.522091 554.016724,58.377850 555.923096,56.579662 
	C563.827637,49.123562 573.123413,46.307976 583.962585,48.180008 
	C590.967041,49.389736 598.287109,47.909256 605.187317,50.634068 
	C607.048218,51.368893 609.110107,50.246796 611.013428,49.652325 
	C618.606323,47.280903 626.103516,47.717205 633.569824,50.267746 
	C639.256348,52.210300 644.764404,54.546909 650.118530,57.274536 
	C657.589355,61.080498 664.168396,65.642784 665.713623,74.743980 
	C665.713623,73.247231 665.689270,71.750023 665.717346,70.253799 
	C665.962585,57.187801 674.177185,51.111034 686.712830,55.117214 
	C690.282166,56.257919 693.028870,56.397736 696.494080,54.541275 
	C703.457642,50.810535 713.927002,54.420277 718.909851,62.488575 
	C721.463318,66.623070 724.220276,67.946190 728.918884,67.758209 
	C738.230164,67.385681 743.987366,73.463722 748.374329,80.578613 
	C751.114502,85.022636 753.571533,86.817795 759.313660,86.216904 
	C775.683777,84.503807 782.419800,91.307266 783.015076,108.016685 
	C783.433350,119.758408 784.494324,131.305420 789.760376,142.292496 
	C792.551697,148.116318 790.899475,155.078430 790.677795,161.504486 
	C790.374939,170.283966 790.328735,179.130432 786.492188,187.442886 
	C785.287964,190.052048 785.955444,192.842392 789.959290,192.884323 
	C790.765137,192.892761 791.705566,193.058304 792.350342,193.495758 
	C803.617432,201.140762 813.619324,209.860977 815.201355,224.508728 
	C815.808105,230.126770 816.274963,235.759583 817.064026,241.362030 
	C817.767761,246.358307 816.886414,251.285812 816.398682,256.256958 
	C815.646973,263.918854 817.083130,271.459167 818.204834,279.048279 
	C820.038208,291.452118 819.533875,303.961609 818.462402,316.434662 
	C818.232666,319.108246 818.346985,321.692596 819.672729,324.202789 
	C820.841370,326.415588 821.262085,328.893616 821.259094,331.453766 
	C821.244507,343.786011 821.353577,356.118591 821.305847,368.450592 
	C821.277100,375.874512 818.355591,379.629761 811.092957,380.969971 
	C808.206848,381.502502 807.321899,382.647308 806.959656,385.396698 
	C805.874451,393.634338 806.596313,402.008698 804.438110,410.193176 
	C802.523743,417.453400 801.035156,424.788971 796.873413,431.204376 
	C795.642944,433.101227 795.191711,435.138397 795.376221,437.384521 
	C797.895874,468.055023 800.595215,498.712677 802.829102,529.404114 
	C804.157776,547.658203 805.770081,565.892212 806.500671,584.200867 
	C806.958679,595.677368 807.316345,607.136597 807.465210,618.620178 
	C807.561646,626.062500 805.477051,632.373230 800.522644,637.792297 
	C797.602051,640.986877 794.591309,644.099487 791.598755,647.227600 
	C789.525208,649.395020 786.940430,650.272583 783.963318,650.351013 
	C775.473389,650.574890 766.985657,650.882874 757.998169,651.172546 
M573.481750,424.568604 
	C567.659668,421.132477 561.516235,418.452240 555.279175,415.992065 
	C555.120361,416.362518 554.961487,416.732971 554.802673,417.103424 
	C561.206055,419.731750 567.609497,422.360077 574.425110,425.506836 
	C579.666626,429.101166 584.051025,433.527252 588.313110,438.275513 
	C595.894653,446.721710 604.259460,454.560181 615.313293,458.290649 
	C626.182800,461.958923 637.243408,465.071198 648.260620,468.288879 
	C661.132690,472.048309 674.234497,472.816071 687.986633,471.210632 
	C686.027039,469.184753 683.956482,469.459869 682.077515,469.361786 
	C647.794800,467.572235 617.409302,455.172852 589.544861,435.694305 
	C584.394043,432.093628 580.248779,427.002991 573.481750,424.568604 
M376.050293,477.349030 
	C379.990601,474.118988 384.694214,476.614777 388.872284,475.910828 
	C389.989166,473.611023 389.429993,471.396240 389.711945,469.284760 
	C390.300323,464.878174 388.867950,462.863190 384.017731,463.181488 
	C378.882111,463.518463 373.683685,463.294861 368.535583,462.962036 
	C358.626251,462.321381 349.918304,459.261627 344.650360,449.977905 
	C344.205231,449.193481 343.556824,448.751526 342.552429,449.013977 
	C340.877441,450.164215 341.425873,451.969238 341.359497,453.560577 
	C340.817078,466.563721 341.861603,479.534576 342.587372,492.488647 
	C343.280640,504.861847 344.618774,517.041870 347.634003,529.341370 
	C353.998047,555.300781 355.412781,581.886169 350.636597,608.535767 
	C349.292206,616.036865 348.297089,623.730469 350.529724,631.317444 
	C351.056549,633.107727 351.048737,635.145691 353.758209,635.753235 
	C368.686859,639.100586 383.419098,643.449585 398.581085,645.591248 
	C411.576324,647.426758 424.701111,648.334290 437.759552,649.736450 
	C449.494354,650.996460 461.186249,652.880920 472.951233,653.587463 
	C496.266907,654.987610 519.541260,652.853394 542.825195,651.843140 
	C556.631836,651.244080 570.505615,651.452637 584.242615,650.162964 
	C604.933472,648.220337 625.518494,645.171448 646.180115,642.877197 
	C649.758057,642.479919 651.078369,640.967346 651.689636,637.795776 
	C653.640259,627.674744 655.578308,617.547852 657.780090,607.479736 
	C660.248596,596.192139 661.449036,584.953735 659.860046,573.352356 
	C658.465149,563.167664 657.228882,552.824951 661.046448,542.735779 
	C668.696411,522.518188 668.114563,501.263367 668.807617,480.172638 
	C668.885254,477.812439 668.097351,476.539551 665.472107,476.258484 
	C655.000488,475.137360 645.043579,471.725250 634.865662,469.261505 
	C613.930115,464.193695 595.321167,455.507568 581.703430,438.055176 
	C574.205261,428.445557 562.899841,425.548584 551.737671,420.982819 
	C550.890320,428.489502 546.198242,427.509399 541.392395,426.801544 
	C537.324890,426.202362 533.190552,426.057831 529.362854,425.735443 
	C527.942322,427.678284 528.355652,429.405060 528.288330,431.026123 
	C527.901611,440.342194 527.600586,449.661896 527.205627,458.977600 
	C526.982300,464.245026 525.797302,468.983093 519.818726,470.625732 
	C517.585571,471.239288 517.316101,472.923004 517.228455,474.889648 
	C516.309082,495.507629 515.322693,516.122620 514.402344,536.740540 
	C513.704529,552.372375 513.297424,568.020935 512.339233,583.636169 
	C511.679932,594.379944 504.846802,599.722290 494.296631,598.985474 
	C484.005676,598.266785 473.693176,597.838623 463.386078,597.372498 
	C442.101440,596.410095 420.786041,596.103210 399.535309,594.425232 
	C390.049591,593.676208 384.529694,587.305481 384.947815,577.802551 
	C385.591461,563.174438 386.058136,548.536316 386.917145,533.921143 
	C387.213837,528.873108 386.240082,526.300415 380.438904,526.007751 
	C373.745209,525.670105 370.711121,522.243103 370.981293,516.738281 
	C371.478577,506.607605 372.094452,496.480591 372.849060,486.366058 
	C373.068359,483.427124 373.354675,480.354919 376.050293,477.349030 
M467.279999,288.710327 
	C488.456543,286.390900 508.771637,280.833099 528.343323,272.475586 
	C530.198669,271.683319 531.950623,270.741241 533.325378,269.225952 
	C540.369019,261.462128 544.410217,251.855026 547.536743,242.259720 
	C550.710083,232.520737 553.143005,222.798019 560.500854,215.155212 
	C565.083862,210.394775 566.055420,204.377182 565.856750,198.093689 
	C558.034363,194.967377 556.217834,188.211731 555.996948,181.075089 
	C555.792725,174.475235 558.272217,168.944489 565.502197,167.018234 
	C567.284851,166.543289 567.825439,165.281479 567.743347,163.620331 
	C567.612000,160.963821 567.564575,158.295547 567.264465,155.656937 
	C566.880493,152.280228 564.965942,150.838242 561.453613,151.046921 
	C556.635498,151.333206 551.786560,151.102905 546.968689,151.391083 
	C541.977112,151.689621 539.248840,149.533310 537.966797,144.747406 
	C535.039307,133.819351 531.769958,122.982277 528.897095,112.040619 
	C528.074280,108.906914 526.551147,106.797371 523.905457,104.996384 
	C508.417572,94.453484 491.375732,87.601425 473.242188,83.264687 
	C463.036957,80.824051 452.610748,77.285225 442.239410,79.687195 
	C418.475983,85.190735 398.866882,97.850876 385.813354,118.695648 
	C370.923035,142.473526 366.792664,168.770447 370.596436,196.466217 
	C372.383484,209.477951 373.688599,222.561020 378.365082,234.977783 
	C383.975098,249.873215 391.892059,263.501648 400.718597,276.701630 
	C403.903076,281.463959 406.626160,286.021729 412.540833,288.026764 
	C420.396240,290.689728 428.387177,292.015320 436.574097,291.501221 
	C446.528198,290.876160 456.448090,289.706360 467.279999,288.710327 
M652.809021,428.345947 
	C648.223389,411.003723 650.637329,394.998779 662.075684,380.808441 
	C666.257263,375.620697 667.489441,369.051331 670.635864,363.392792 
	C671.523926,361.795715 670.680054,360.590698 669.847839,359.280579 
	C667.081665,354.925690 665.815063,349.965912 666.153015,344.985748 
	C666.797241,335.493469 666.815613,326.096771 665.732239,316.620148 
	C664.647766,307.134064 666.217102,297.714630 667.790955,288.351990 
	C668.060974,286.745605 668.551147,285.078339 666.518311,284.007416 
	C664.487732,282.937714 663.447815,284.380981 662.184631,285.391754 
	C651.859192,293.653900 640.602539,300.396698 628.600159,305.908813 
	C621.857483,309.005432 614.858948,310.933319 607.334106,310.351044 
	C599.731689,309.762787 592.846985,307.216370 586.611389,302.431824 
	C577.740295,313.071503 569.993591,323.989960 563.990234,336.188110 
	C559.365601,345.584778 554.597656,355.059998 547.065002,362.559723 
	C541.603271,367.997528 539.417969,374.431122 539.208557,381.861084 
	C538.898010,392.873810 538.857727,392.954376 549.657227,394.674469 
	C552.346924,395.102875 553.531799,396.218018 553.280396,398.895721 
	C553.124817,400.552856 553.306335,402.302765 552.832275,403.857300 
	C551.439148,408.425964 553.557861,410.317169 557.603882,411.918182 
	C567.829651,415.964630 577.948975,420.408020 586.587402,427.390350 
	C599.659546,437.956421 614.184814,445.924347 629.577576,452.491455 
	C642.938171,458.191589 656.621521,462.536102 672.076782,463.481720 
	C668.356201,461.157043 665.168274,459.429626 662.268372,457.308502 
	C648.134399,446.970490 636.707275,433.444061 622.375916,423.324310 
	C621.156128,422.462982 620.682617,421.299927 621.669189,419.887970 
	C622.611816,418.538879 623.719849,417.582062 625.409485,418.574188 
	C626.696655,419.330017 627.929260,420.197388 629.109558,421.113739 
	C638.332825,428.274200 646.802246,436.288055 655.277283,444.294617 
	C658.395020,447.240051 661.565063,450.116425 666.742737,452.920807 
	C659.868530,445.183472 655.477722,437.685425 652.809021,428.345947 
M164.700363,568.158508 
	C165.246735,570.891724 163.519302,573.035950 162.309845,575.479004 
	C170.062057,576.610291 177.072693,575.753174 183.820312,572.879822 
	C188.453400,570.906982 193.238937,569.436890 198.264313,569.154236 
	C216.750061,568.114441 233.739731,560.597839 251.593170,556.771240 
	C262.419891,554.450562 264.776520,548.704041 263.167267,537.756104 
	C262.121796,530.643799 262.266785,523.429443 263.169861,516.324280 
	C263.982941,509.927368 263.226654,503.807739 259.776489,498.564606 
	C251.368591,485.787354 246.587021,471.373291 240.538025,457.539062 
	C236.134705,447.468506 227.024948,442.901123 216.507141,446.093994 
	C212.843430,447.206177 209.132324,448.171783 205.500580,449.378113 
	C191.768890,453.939301 177.797043,457.875885 166.226212,467.320190 
	C159.327133,472.951324 151.299683,476.946320 142.748627,479.255890 
	C127.120377,483.476868 116.407066,493.252594 108.578133,506.984894 
	C106.017929,511.475586 107.156319,514.196716 111.030426,516.912781 
	C123.234161,525.468506 132.643478,536.528076 140.268372,549.309204 
	C145.303604,557.749329 145.606979,557.568298 155.094376,555.064026 
	C162.054077,553.226929 164.331909,554.910950 164.458740,561.953796 
	C164.491714,563.784302 164.600998,565.613403 164.700363,568.158508 
M762.533630,383.956879 
	C765.936035,382.619720 769.357666,381.329163 772.736572,379.935120 
	C778.522888,377.547882 780.920776,373.153046 780.830627,366.939209 
	C780.749817,361.366760 779.482666,356.036377 778.096252,350.751160 
	C774.645447,337.596039 772.541748,324.331970 774.910828,310.788391 
	C776.326111,302.697571 775.168335,294.883911 773.609009,287.038635 
	C771.581726,276.839478 771.384766,276.547058 761.424988,277.309174 
	C746.206055,278.473755 731.522705,275.632172 717.219482,271.078400 
	C698.877441,265.238770 678.940979,262.730560 664.480652,246.831070 
	C664.364624,248.368713 664.248047,249.152145 664.255371,249.934433 
	C664.327393,257.586060 668.595276,263.388916 672.799133,269.210815 
	C675.921021,273.534241 677.485840,277.981079 676.608459,283.632782 
	C674.980774,294.118225 671.815857,304.659119 673.479492,315.288879 
	C675.071167,325.459167 674.228943,335.513855 674.166443,345.620911 
	C674.133362,350.968201 675.978638,355.287750 679.832458,358.947266 
	C686.623657,365.396057 694.286743,370.686493 701.862488,376.131134 
	C720.448730,389.489075 740.566833,390.730408 762.533630,383.956879 
M504.499603,691.103516 
	C482.515076,691.078918 460.536163,691.042297 438.553467,691.825500 
	C428.768402,692.174194 418.852203,692.069763 409.169678,690.365845 
	C394.771912,687.832275 380.491150,684.640808 366.132446,681.875427 
	C359.743073,680.644958 353.460114,678.646118 345.685455,678.196716 
	C351.514282,693.163147 349.372620,707.239929 344.370850,720.845032 
	C347.484100,722.449524 349.857819,721.937927 352.139893,721.938721 
	C453.761200,721.972839 555.382507,721.975220 657.003845,721.978821 
	C658.502869,721.978882 660.002014,721.928772 661.500977,721.933899 
	C664.161316,721.942993 665.478394,720.584167 665.603210,717.975952 
	C666.101013,707.577820 664.998169,697.386353 661.858398,687.423340 
	C661.030029,684.794678 659.252991,683.746765 656.743286,683.407959 
	C645.444031,681.882629 634.185303,682.156250 622.884949,683.653687 
	C605.083862,686.012695 587.275635,688.381042 569.416382,690.221619 
	C548.161011,692.412292 526.811890,691.171509 504.499603,691.103516 
M669.282898,443.208252 
	C675.884888,451.278625 683.830688,457.810272 692.557007,463.427734 
	C698.584167,467.307648 705.059875,469.208740 712.387756,468.904205 
	C723.908325,468.425507 735.208496,466.674072 746.416626,464.180603 
	C751.740723,462.996124 757.541443,462.735535 761.913940,459.094574 
	C775.858154,447.483276 786.317932,433.140991 792.586670,416.162079 
	C797.973083,401.573090 796.648254,385.969177 797.619202,370.744843 
	C797.705322,369.395081 798.310364,367.810608 796.890442,366.379700 
	C795.775879,367.754791 794.642700,368.968811 793.715820,370.323944 
	C778.230408,392.962708 755.131653,396.996002 730.294495,395.472626 
	C711.615417,394.326965 697.194763,383.394745 683.077332,372.333527 
	C681.328674,370.963409 679.958313,368.834045 676.895081,368.760651 
	C674.055298,375.002441 671.876343,381.661072 667.410706,387.174896 
	C653.767639,404.020172 656.987854,427.825378 669.282898,443.208252 
M780.885742,451.367523 
	C773.091980,461.510010 764.221680,470.004700 750.631409,471.445068 
	C748.010559,471.722839 747.056946,473.423645 747.224182,476.018982 
	C747.652100,482.658905 747.953430,489.306885 748.329895,495.950256 
	C749.280151,512.717163 750.645447,529.454712 751.566101,546.227966 
	C753.105652,574.277344 755.502747,602.278748 757.229187,630.319397 
	C757.965759,642.283020 757.612122,642.325867 769.554138,641.935791 
	C774.534180,641.773254 780.634155,643.242004 784.252075,640.909241 
	C791.520081,636.222961 798.244263,629.961182 798.653259,620.017334 
	C799.180969,607.188049 798.229858,594.387024 797.528320,581.601318 
	C796.453369,562.011230 794.928589,542.444214 793.455505,522.877930 
	C791.945801,502.823944 790.287537,482.781067 788.652954,462.736694 
	C788.177551,456.906616 787.560364,451.088135 786.876648,443.876953 
	C784.364990,446.999817 782.835449,448.901611 780.885742,451.367523 
M772.893372,115.254448 
	C774.586792,110.364403 774.081970,105.466995 772.848206,100.597923 
	C772.391418,98.795425 771.491394,97.249634 769.716431,96.290993 
	C762.010864,92.129272 753.426453,95.953728 751.434021,104.521843 
	C751.031677,106.252136 751.148193,108.160965 749.373230,109.372543 
	C747.338684,108.409546 746.800110,106.340370 745.898010,104.649979 
	C744.866943,102.717773 743.422852,101.985397 741.411255,102.378571 
	C736.219482,103.393303 730.951538,103.355392 725.633301,103.293968 
	C727.398438,111.748543 729.376038,113.578239 737.221375,113.777550 
	C740.030029,113.848900 742.862610,113.527626 745.662048,113.197105 
	C747.164978,113.019661 748.413879,113.129494 748.878662,114.700577 
	C749.300293,116.125717 748.573547,117.313034 747.458435,118.181053 
	C746.215515,119.148552 744.665710,119.104874 743.193359,119.376755 
	C738.068115,120.323181 733.002686,119.477417 727.964661,118.724586 
	C726.926941,126.034180 729.778076,130.369278 736.133911,131.889465 
	C738.764893,132.518723 741.395447,132.777710 744.056396,132.674988 
	C748.002930,132.522644 748.976196,134.354675 747.982971,138.034912 
	C740.163696,139.063492 731.686951,138.888916 726.087158,134.631744 
	C719.446716,129.583359 712.847046,129.723053 705.733521,129.314331 
	C704.081116,129.219376 701.753418,129.581238 700.907532,128.658951 
	C696.795837,124.175629 691.594604,126.918343 687.118225,125.778938 
	C683.552734,133.206879 683.087402,136.212845 686.171204,142.651245 
	C688.318726,147.134827 688.174561,150.063492 683.303955,152.220673 
	C680.915344,153.278549 679.223206,155.386688 679.415955,158.154388 
	C680.088257,167.808167 678.473022,176.718842 670.959106,183.955383 
	C673.739380,186.952713 676.168823,189.440445 678.436218,192.068039 
	C679.693787,193.525497 680.891296,193.266083 682.409485,192.641953 
	C693.347046,188.145538 704.924072,186.628342 716.574524,186.073654 
	C729.327087,185.466476 726.989929,185.314880 729.556519,195.386429 
	C729.761841,196.192093 730.101135,196.964554 730.291992,197.772797 
	C730.851562,200.142715 732.352295,201.165634 734.697876,200.699402 
	C745.143311,198.623169 755.756714,196.953812 764.822510,190.783569 
	C768.427612,188.329956 771.786682,185.484100 773.375732,180.591660 
	C758.949158,181.603333 745.204407,181.357941 731.476379,179.404373 
	C721.744690,178.019470 712.138428,176.056427 702.533203,174.054474 
	C700.862976,173.706360 698.605225,173.378433 699.066345,170.722839 
	C699.530945,168.046539 701.342346,167.840515 703.596619,168.477890 
	C705.195190,168.929871 706.848389,169.192581 708.481689,169.517258 
	C729.071533,173.609909 749.656067,177.380463 770.860779,174.938538 
	C774.948486,174.467789 776.010010,172.835968 776.785156,169.276199 
	C778.131653,163.091660 776.154907,156.238190 780.666016,150.642044 
	C781.705322,149.352768 782.555115,147.169144 780.982178,145.562958 
	C779.254761,143.799179 777.579773,145.513062 775.998230,146.208603 
	C768.011963,149.720856 760.164673,149.531982 752.449158,145.426682 
	C750.887939,144.596024 749.594238,143.605011 750.698242,141.499771 
	C751.690857,139.606979 753.038330,139.453735 754.847473,140.287048 
	C760.095947,142.704575 765.676331,141.981842 771.091980,141.468216 
	C776.390991,140.965652 777.474060,138.656693 775.753784,132.981964 
	C768.761353,135.888580 761.599854,136.539505 754.409363,133.838821 
	C752.564697,133.145950 749.658875,132.899719 750.668396,129.685257 
	C751.617188,126.664207 753.742310,127.831070 755.964966,128.232819 
	C761.544983,129.241425 767.206604,129.534821 772.732788,127.736259 
	C774.578613,127.135506 776.086060,126.094215 775.636292,123.751396 
	C775.108398,121.001350 773.194824,121.772545 771.351379,121.973373 
	C765.184875,122.645195 759.004211,123.030922 753.324829,119.798347 
	C751.725830,118.888237 749.272339,118.258888 750.692383,115.416832 
	C751.975586,112.848579 753.602905,113.741730 755.664612,114.535072 
	C761.005676,116.590340 766.527893,117.604263 772.893372,115.254448 
M508.545135,511.039062 
	C509.289246,518.072998 499.472565,519.806763 500.417023,527.019348 
	C500.421387,527.052673 498.608978,527.483459 497.651794,527.459473 
	C477.674896,526.958618 457.691681,526.597900 437.726624,525.791565 
	C430.530609,525.500977 423.446320,524.615479 416.814789,528.373291 
	C415.057678,529.368958 413.254730,529.429688 411.841034,527.746704 
	C409.850098,525.376404 407.832275,525.078674 405.511414,527.281067 
	C404.477478,528.262268 403.091034,528.248596 401.740540,528.270264 
	C393.532715,528.402405 393.533447,528.409546 392.781708,536.909607 
	C392.737701,537.407166 392.642822,537.901489 392.619629,538.399536 
	C391.985138,552.030945 390.949219,565.650269 391.155243,579.308594 
	C391.241333,585.019836 394.177979,588.496399 399.328430,588.724548 
	C431.589050,590.153931 463.852295,591.529663 496.119354,592.804382 
	C502.907043,593.072571 506.305206,589.777527 506.672668,583.018188 
	C507.386292,569.891785 508.101562,556.764038 508.625275,543.629150 
	C509.480560,522.177917 510.218567,500.721741 510.904877,479.264435 
	C510.990601,476.585144 512.318420,473.828522 510.421417,469.673401 
	C506.736420,480.732635 498.748413,483.612701 487.866577,483.192871 
	C493.131256,488.510101 498.493195,492.133575 496.798004,499.094177 
	C508.381195,503.569916 508.381195,503.569916 508.545135,511.039062 
M717.744080,513.384705 
	C716.335632,502.817627 715.378418,492.216064 715.703369,481.544342 
	C715.799988,478.371460 714.670654,477.068939 711.375366,477.081207 
	C708.070312,477.093536 704.762329,476.489532 701.456482,476.147278 
	C683.995911,474.339569 681.968445,475.329437 681.518311,492.420288 
	C681.053650,510.063599 681.823792,527.724121 676.161499,544.792480 
	C672.264771,556.538635 672.851562,568.259338 675.535095,580.210083 
	C678.803345,594.765137 677.102173,608.934326 670.594727,622.490662 
	C669.021606,625.767883 667.913330,629.296082 666.874146,632.792847 
	C666.083069,635.455078 665.721008,638.251038 667.048096,641.364807 
	C676.584167,639.702087 685.177185,635.931763 694.014343,632.523987 
	C702.397034,629.291504 702.948364,623.583008 702.680908,616.372009 
	C702.347717,607.391174 702.412842,598.429321 705.792236,589.803955 
	C709.401550,580.591614 714.573975,572.254395 719.677002,563.869568 
	C724.014343,556.742859 725.879517,549.211853 723.982910,540.945251 
	C721.941895,532.049194 719.895752,523.154297 717.744080,513.384705 
M413.600464,684.855103 
	C420.568024,685.597717 427.556335,685.871826 434.559784,685.735840 
	C460.873840,685.225098 487.200958,683.948975 513.504883,685.180054 
	C548.777161,686.830872 583.705933,683.695374 618.484558,678.477051 
	C633.975342,676.152771 649.305664,675.967896 664.689270,678.603699 
	C676.912659,680.698059 688.873169,680.059998 700.570679,675.749451 
	C702.590820,675.005127 704.996704,674.694885 704.703003,671.686035 
	C704.357483,668.145447 705.450623,664.752136 705.671570,661.274902 
	C706.163757,653.528870 704.540649,652.008179 697.331055,654.767883 
	C681.976501,660.645203 666.083008,661.269592 650.074707,659.852539 
	C639.128845,658.883606 628.501099,660.074280 617.828369,662.026733 
	C599.999939,665.288208 582.340698,669.662903 564.240173,671.192505 
	C538.991394,673.326416 513.662354,673.242554 488.342377,673.280518 
	C465.673798,673.314453 443.063873,672.322510 420.615723,669.121948 
	C397.470856,665.822021 375.188751,658.940063 352.952393,651.973206 
	C351.480530,651.512085 350.202606,650.432007 348.873260,649.662292 
	C344.774628,654.797119 345.036163,660.766724 345.226135,666.829651 
	C345.325989,670.017151 346.344604,671.802673 349.562561,672.393311 
	C353.486572,673.113464 357.350494,674.159180 361.272308,674.893860 
	C378.426178,678.107483 395.278473,682.889587 413.600464,684.855103 
M312.543091,501.977966 
	C311.571930,494.898132 310.785065,487.787140 309.593719,480.744568 
	C306.490234,462.398102 301.301331,444.773163 290.876709,429.064117 
	C289.704041,427.296997 288.838501,424.990082 286.080505,425.408325 
	C279.864075,426.351044 273.240753,425.887207 267.674347,429.319916 
	C259.373352,434.438995 251.960800,440.980286 241.946350,444.252472 
	C245.000641,448.727631 247.325943,452.545715 249.022858,456.683258 
	C254.572205,470.214203 259.843475,483.853302 267.764404,496.290009 
	C270.570160,500.695312 271.307922,505.900940 271.318756,511.173248 
	C271.338257,520.633362 270.027374,530.076294 271.246033,539.565125 
	C271.618378,542.464172 272.486511,543.770752 275.479431,543.687012 
	C279.806061,543.565979 284.139984,543.621277 288.469025,543.698364 
	C291.508942,543.752502 294.066650,542.677673 296.013428,540.447205 
	C299.549652,536.395630 303.688202,533.067627 308.059784,530.006287 
	C310.413666,528.357849 311.379730,526.198425 311.796814,523.333496 
	C312.786987,516.531921 312.798431,509.731842 312.543091,501.977966 
M663.739685,224.519653 
	C662.438843,227.298264 663.736023,229.757507 664.848145,232.135986 
	C669.743103,242.605057 677.673279,249.858292 688.538757,253.756012 
	C694.801514,256.002594 701.137512,258.066071 707.509460,259.982849 
	C726.952515,265.831573 746.273621,271.896393 767.173340,268.830231 
	C779.543518,267.015472 791.237061,264.450012 801.497620,256.655060 
	C806.543884,252.821457 808.610229,248.752792 807.292664,242.616089 
	C806.352234,238.235947 805.569641,233.787720 805.666321,229.261688 
	C805.919312,217.415421 797.950562,210.637238 789.854858,204.114136 
	C787.772766,202.436523 784.855347,202.842194 785.433228,206.527954 
	C786.055420,210.496658 783.905701,212.239120 781.162231,214.087662 
	C769.859314,221.703659 757.258240,225.754257 743.865112,227.213318 
	C739.033508,227.739685 737.978027,229.346161 739.259583,233.841782 
	C740.115723,236.845001 742.111389,239.899780 740.519531,243.567932 
	C738.897461,243.349869 737.407593,243.262848 735.971130,242.938965 
	C721.860718,239.757309 707.757446,236.543594 693.658325,233.312241 
	C692.537048,233.055267 691.265015,232.856369 690.395935,232.193848 
	C683.875732,227.223251 674.663147,224.988861 673.549133,213.505859 
	C670.464539,218.566406 667.686462,221.599106 663.739685,224.519653 
M728.916260,475.450317 
	C726.707214,476.049561 724.275085,475.773438 722.072327,477.150635 
	C722.150085,478.630035 722.210571,480.109406 722.308167,481.586365 
	C723.592285,501.026794 726.744385,520.182678 730.619934,539.263428 
	C732.578735,548.907715 731.896545,558.458130 726.572815,567.255554 
	C723.299805,572.663940 720.287903,578.232849 717.239868,583.774292 
	C713.094849,591.309692 710.144531,599.234741 710.565674,607.995178 
	C711.000549,617.040833 709.354004,625.482422 704.533813,633.275330 
	C701.801392,637.692810 705.898926,644.802856 711.042297,644.593933 
	C723.839172,644.074097 736.626831,643.322632 749.424072,642.815491 
	C752.533081,642.692383 753.342529,641.514282 753.074951,638.490295 
	C752.429871,631.202209 752.146301,623.882507 751.685120,616.577576 
	C750.626953,599.816528 749.567932,583.055481 748.475891,566.296631 
	C746.886475,541.905457 745.282898,517.515076 743.651306,493.126709 
	C743.223816,486.737091 742.670105,480.355927 742.140381,473.532867 
	C737.565735,474.216248 733.659058,474.799835 728.916260,475.450317 
M336.845856,497.314697 
	C336.170929,482.018402 335.451019,466.724060 335.693878,451.403503 
	C335.743927,448.245453 335.889832,445.036377 335.438965,441.931061 
	C330.996857,411.336578 334.076141,381.541901 344.863312,352.584900 
	C349.860413,339.170776 357.474945,326.947754 362.908478,313.722748 
	C363.552307,312.155792 364.972198,310.810669 364.687622,308.835083 
	C346.531494,310.551819 334.346924,319.432556 328.601532,336.707123 
	C326.411285,343.292633 322.166229,348.692841 317.853424,354.003143 
	C314.457062,358.185028 311.742615,362.738953 310.410217,367.994354 
	C306.734192,382.493500 303.192871,397.027313 299.422333,411.501587 
	C298.558594,414.817139 299.359039,417.153656 301.672150,419.530853 
	C305.623749,423.591858 309.050140,428.064117 311.503021,433.262543 
	C318.734192,448.587677 323.322174,464.666870 325.212616,481.479645 
	C326.541138,493.295135 330.342255,504.902191 328.362671,517.018921 
	C328.233551,517.809143 328.347717,518.704224 329.275513,519.142212 
	C337.570007,518.088806 337.993378,517.660889 337.676453,509.704163 
	C337.524353,505.885162 337.173798,502.074036 336.845856,497.314697 
M457.618958,488.756989 
	C456.481567,490.963440 454.974152,492.885986 452.869232,494.383942 
	C460.309937,492.471313 466.110535,487.920898 472.338837,484.112701 
	C479.108673,479.973480 484.483673,473.713409 492.432068,471.312836 
	C495.047211,470.523010 495.594849,467.776031 495.700623,465.096222 
	C496.691467,439.993988 497.779724,414.895538 498.748596,389.792480 
	C499.115784,380.278381 497.627960,378.773376 488.255188,378.385010 
	C465.307861,377.434235 442.360382,376.487000 419.412964,375.539062 
	C414.556610,375.338440 411.561523,377.764923 411.373962,382.302643 
	C410.295166,408.401794 409.304321,434.504639 408.188782,460.602203 
	C408.003174,464.944702 409.006348,468.114288 413.765106,469.179749 
	C415.816315,469.639008 416.939026,471.506775 418.240509,473.015656 
	C424.124847,479.837494 430.454956,486.209381 437.444611,491.904266 
	C438.809570,493.016357 440.110901,494.389465 442.760559,494.565277 
	C436.294220,489.521210 434.565399,485.033844 436.562561,479.575775 
	C438.557800,474.122986 442.840332,471.303894 448.497467,471.719452 
	C456.080261,472.276459 460.190613,479.373932 457.618958,488.756989 
M670.342346,655.674927 
	C681.315430,655.461060 691.418396,651.888794 701.485718,648.200256 
	C699.019104,638.298950 697.747437,637.624207 689.107788,641.049805 
	C681.345276,644.127563 673.391968,646.615417 665.072693,647.521667 
	C652.348877,648.907654 639.527405,649.007202 626.808655,650.751160 
	C601.925842,654.162903 577.040405,657.652893 551.809631,657.435547 
	C543.161438,657.361084 534.503784,658.046875 525.854797,658.472778 
	C503.930969,659.552246 482.036926,661.262695 460.086578,658.368835 
	C442.951111,656.109741 425.757538,654.347717 408.509735,652.941711 
	C391.755524,651.575989 375.505219,646.833801 359.171509,642.930054 
	C355.652405,642.088989 353.058044,642.195435 351.791107,646.380615 
	C353.503479,647.107178 354.989380,647.846802 356.545563,648.382080 
	C398.054199,662.660339 440.863190,668.631287 484.646362,668.689026 
	C504.136841,668.714661 523.614807,668.439453 543.084656,667.655518 
	C560.056946,666.972290 576.921509,665.446289 593.624451,662.024658 
	C605.994263,659.490784 618.331177,656.726318 630.954773,655.417542 
	C643.808960,654.084717 656.572021,656.319458 670.342346,655.674927 
M500.050385,513.672546 
	C502.473236,513.332703 502.779816,511.590942 502.721008,509.621094 
	C502.669281,507.889252 501.729462,506.786469 500.100342,506.421722 
	C498.160645,505.987396 496.188507,505.502869 494.217102,505.436859 
	C481.419220,505.008301 468.606628,504.205200 455.821167,504.498322 
	C447.046997,504.699463 438.784424,502.499512 430.324341,501.188843 
	C426.888092,500.656494 423.915802,498.356018 425.031342,494.709839 
	C426.209778,490.858215 425.107330,488.687714 422.581116,486.102386 
	C419.961609,483.421631 417.307526,482.190704 413.445099,482.128754 
	C403.514343,481.969421 393.532410,484.117249 383.636139,481.490601 
	C380.784760,480.733887 379.241913,482.323151 379.036682,485.198242 
	C378.457153,493.316406 377.672089,501.427155 377.367493,509.555786 
	C376.992859,519.553223 377.164581,519.580261 386.945984,520.932068 
	C389.573761,521.295227 392.224060,521.495972 394.864685,521.764893 
	C399.222687,522.208740 403.488922,522.517517 406.876862,518.770996 
	C408.197540,517.310547 410.150238,517.457764 411.268890,518.987488 
	C414.241211,523.052185 417.601776,522.186096 421.314636,520.341980 
	C422.450653,519.777771 423.874359,519.530762 425.155609,519.563049 
	C433.802460,519.781250 442.446075,520.123962 451.091400,520.406433 
	C464.388885,520.840942 477.687683,521.235840 490.983978,521.703796 
	C493.840668,521.804260 495.999176,521.355957 495.752716,517.762878 
	C495.584656,515.312500 496.943787,514.100525 500.050385,513.672546 
M523.303223,369.469910 
	C523.575256,369.790375 523.847290,370.110809 524.119324,370.431244 
	C524.269348,370.168060 524.550842,369.904663 524.550415,369.641754 
	C524.536926,361.494324 528.134277,354.574860 533.321533,348.936432 
	C549.561646,331.283722 560.450134,309.398712 578.041870,292.858337 
	C578.237366,292.674500 578.197876,292.240692 578.342102,291.589142 
	C574.575073,286.802979 570.508484,281.971527 566.843445,276.852600 
	C564.680969,273.832336 562.977173,273.235901 559.596069,275.371643 
	C546.346130,283.741150 532.356079,290.689392 517.546082,295.907043 
	C514.468262,296.991394 511.362640,297.997009 507.319611,299.359039 
	C514.868103,303.366455 516.606750,308.891479 515.490540,316.137177 
	C514.689270,321.338013 513.334961,326.704132 514.514587,331.994965 
	C517.260132,344.309021 520.287720,356.560150 523.303223,369.469910 
M353.210480,399.790405 
	C351.375366,412.948639 349.930817,426.143250 349.387817,439.427460 
	C348.965790,449.752136 353.515045,455.240448 365.315063,456.473083 
	C376.343506,457.625122 387.567596,456.914490 398.705750,456.997223 
	C400.412781,457.009918 402.389252,456.876343 402.485107,454.687164 
	C402.670868,450.444122 403.580292,446.179901 401.094666,442.075348 
	C396.101807,433.830627 391.472168,425.366821 386.560669,417.071564 
	C384.979584,414.401276 384.142944,411.832245 384.514648,408.618103 
	C385.161926,403.021057 385.255646,397.361877 385.669739,391.735229 
	C385.905609,388.529846 384.538544,387.173065 381.338348,387.246399 
	C376.852386,387.349213 372.359406,387.161102 367.874115,387.277313 
	C358.334137,387.524445 355.647247,389.731659 353.210480,399.790405 
M68.151169,538.618042 
	C55.843998,543.645447 53.674431,551.445923 56.199192,564.001099 
	C66.504646,561.032532 66.504646,561.032532 73.526207,566.750244 
	C75.531868,562.928345 74.543716,558.932373 74.537987,555.041504 
	C74.535439,553.311584 73.638367,550.956055 76.529205,550.881714 
	C79.078751,550.816040 79.079124,553.074646 79.221527,554.884583 
	C80.041252,565.304382 78.345024,575.046692 72.165771,583.846130 
	C66.896797,591.349304 68.414444,595.729309 76.868973,598.970154 
	C78.113441,599.447266 79.368851,599.907227 80.576027,600.468079 
	C83.952553,602.036560 86.894852,601.637451 89.730721,599.069580 
	C96.149788,593.257080 102.796722,587.693787 109.148193,581.810242 
	C111.843437,579.313477 114.538628,577.386047 118.365677,577.684814 
	C123.020699,578.048401 123.671509,573.697815 125.751976,571.183533 
	C127.680687,568.852661 125.146851,567.186401 123.944946,565.620544 
	C116.619179,556.076355 107.153328,548.511108 99.452774,539.288574 
	C96.400589,535.633240 93.676239,531.609863 89.630219,528.465210 
	C83.258614,533.148987 76.252411,536.159729 68.151169,538.618042 
M610.781982,206.312286 
	C610.306885,211.630219 610.015808,217.007080 605.400818,220.800827 
	C604.401367,221.622391 604.328369,222.816681 604.488892,224.013824 
	C605.326477,230.256851 606.156067,236.501022 607.026733,242.739456 
	C607.256165,244.384003 607.494568,246.010635 609.401306,246.777420 
	C620.656311,251.303482 631.857117,255.966507 643.156250,260.378540 
	C646.130737,261.539978 648.758789,260.678192 651.159302,258.095551 
	C658.005371,250.730026 657.525085,241.724487 656.330750,233.062332 
	C655.346375,225.923050 652.920959,221.593857 661.091064,216.242081 
	C664.917603,213.735535 666.684692,209.711044 666.689270,205.095215 
	C666.692993,201.300446 661.315857,196.433716 657.844849,197.625916 
	C650.418213,200.176727 642.646301,201.046494 635.162598,202.951508 
	C626.798340,205.080704 619.267334,205.373291 611.484924,201.526108 
	C611.292542,202.909363 611.110413,204.218979 610.781982,206.312286 
M808.646057,325.211761 
	C808.600647,304.724121 810.909424,284.114288 805.376709,263.297089 
	C796.475464,270.365570 786.286743,274.010071 774.895996,275.761353 
	C779.782349,288.961304 780.448853,301.634949 779.283569,314.492554 
	C778.909241,318.622955 778.218079,322.788940 778.439819,326.897217 
	C779.171814,340.463135 784.284912,353.213806 785.687683,366.821045 
	C797.336060,355.131714 809.376526,344.186401 808.646057,325.211761 
M432.397827,361.103210 
	C435.843018,365.352539 440.098907,367.152832 445.761597,367.318481 
	C458.879089,367.702271 471.973419,368.858887 485.079407,369.665222 
	C489.068665,369.910645 493.065308,370.035339 497.505554,370.235504 
	C493.326385,363.122528 484.132233,360.736084 483.793854,351.699799 
	C483.493164,343.669922 484.383881,336.296997 493.341827,332.510498 
	C491.037872,332.049957 488.960724,332.049744 486.883545,332.050018 
	C473.905273,332.051727 460.914551,332.399841 447.953094,331.934265 
	C439.244385,331.621429 433.508331,337.039154 426.988739,341.101105 
	C426.147339,341.625305 425.770264,343.029175 425.364502,344.096405 
	C422.528351,351.556885 426.146027,356.511078 432.397827,361.103210 
M353.017792,305.233002 
	C367.979950,304.370605 377.124115,293.201874 388.863159,285.652191 
	C381.974335,276.914917 377.456390,267.439606 372.124878,258.449951 
	C371.013580,256.576111 369.402985,256.207306 367.483429,256.208862 
	C360.991760,256.214142 354.494537,256.030365 348.009979,256.242188 
	C341.430573,256.457184 339.844147,258.011688 339.519257,264.670471 
	C339.203064,271.150513 339.677460,277.680908 339.150269,284.135712 
	C338.576172,291.164948 340.497528,297.009888 344.614685,302.688599 
	C346.867645,305.796082 348.774780,307.104645 353.017792,305.233002 
M604.572388,67.985291 
	C601.825134,67.019806 599.224915,65.449852 595.790527,65.706406 
	C596.357483,68.205658 596.988403,70.403305 597.343262,72.644661 
	C599.942627,89.060547 602.491943,105.484367 605.041016,121.908180 
	C605.324036,123.731941 605.554749,125.488281 607.242004,126.722084 
	C611.677551,129.965561 615.854370,133.612839 620.513672,136.483383 
	C623.726257,138.462616 627.784607,139.729996 631.370728,137.506622 
	C634.875122,135.333954 635.131531,131.481842 634.626221,127.664513 
	C634.560669,127.169441 634.477295,126.676750 634.408508,126.182076 
	C633.149475,117.123108 631.485474,108.097885 630.726135,98.997192 
	C629.522583,84.570801 622.947388,74.533333 608.975525,69.795616 
	C607.717407,69.368980 606.515198,68.777245 604.572388,67.985291 
M723.841431,721.728088 
	C724.690186,721.458130 725.495605,720.905884 725.482239,720.050110 
	C725.319580,709.663940 724.639526,699.345398 717.454895,690.961182 
	C714.866455,687.940552 711.749268,685.375061 709.682373,681.895996 
	C708.856384,680.505737 707.833923,679.673645 706.003601,680.174866 
	C698.024841,682.359436 690.023438,684.461426 681.810608,686.652100 
	C682.889709,691.230530 684.344543,695.459351 684.290527,700.005066 
	C684.221375,705.822510 684.515747,711.629211 685.089172,717.441650 
	C685.428955,720.886536 686.710022,722.037659 690.023438,721.996948 
	C701.006836,721.861694 711.992371,721.902893 723.841431,721.728088 
M459.856750,312.092773 
	C462.849670,312.162292 465.855286,312.080597 468.833160,312.329834 
	C477.582733,313.062042 477.586365,313.113007 478.134521,322.081329 
	C478.238251,323.778320 478.157104,325.602783 480.539368,325.684967 
	C482.525757,325.753540 482.952271,324.227142 483.223755,322.697510 
	C484.284607,316.720581 482.694305,310.585144 485.541687,304.229218 
	C464.269623,308.261963 444.109619,310.013977 423.753021,309.270325 
	C417.317963,309.035248 410.899872,307.484375 404.424896,309.256165 
	C402.472595,309.790436 400.554352,308.826630 398.704041,307.947144 
	C393.488983,305.468414 391.453827,300.963104 390.907837,294.118835 
	C384.660980,302.799744 380.547058,310.576172 381.214661,320.535126 
	C394.601074,321.049347 407.710938,321.420746 420.803375,322.119080 
	C426.253662,322.409790 432.037170,321.524902 437.062195,323.750854 
	C440.905212,325.453156 444.582367,325.993195 448.589111,325.953369 
	C456.088379,325.878906 456.164185,325.787750 456.684082,318.104675 
	C456.828278,315.973206 455.744843,313.214813 459.856750,312.092773 
M415.590851,338.390411 
	C406.012939,338.390411 396.434998,338.390411 386.094727,338.390411 
	C386.094727,352.693329 386.094727,366.725403 386.094727,382.377563 
	C390.976349,373.498718 397.594727,372.455261 405.238007,374.408081 
	C406.430573,374.712769 407.605011,374.561798 408.503082,373.675415 
	C413.390320,368.851715 419.409760,369.564972 425.417145,370.139343 
	C427.625397,370.350464 429.891876,371.171112 432.219818,369.879791 
	C429.098175,364.469879 422.961365,362.231903 420.320740,356.914886 
	C417.465942,351.166687 419.183167,345.231171 420.339966,339.521759 
	C419.056274,338.330872 417.653564,338.614990 415.590851,338.390411 
M408.437012,68.925522 
	C406.322144,70.488190 404.207275,72.050850 402.092377,73.613518 
	C409.062866,70.708511 415.736694,67.747513 422.791779,65.700012 
	C445.342865,59.155277 467.236206,62.608723 488.742035,70.358894 
	C493.202423,71.966301 496.459686,72.844185 499.432922,67.822716 
	C501.446777,64.421547 505.313843,62.510502 508.961670,60.794033 
	C512.223206,59.259327 515.509033,57.776192 518.897339,56.218227 
	C517.735962,54.634850 516.194336,54.624454 514.796875,54.270767 
	C503.616058,51.440968 492.192749,50.645393 480.728973,50.001366 
	C454.836090,48.546726 430.971375,54.774982 408.437012,68.925522 
M695.142334,194.613525 
	C692.677063,195.864548 688.423279,194.726044 688.020264,198.565399 
	C687.725098,201.377136 688.044922,205.088806 690.358826,206.962585 
	C693.574097,209.566391 693.577759,212.967651 694.223999,216.302322 
	C694.697266,218.744934 695.111084,221.243408 695.126343,223.719589 
	C695.147034,227.097107 696.908630,228.263565 699.935669,228.889893 
	C707.592590,230.474213 715.178955,232.397186 722.825562,234.034729 
	C726.301575,234.779099 729.679321,236.501389 733.614197,235.669571 
	C733.225220,231.721069 733.271729,227.888062 727.760742,228.234589 
	C725.125977,228.400253 724.582825,226.164215 724.010010,224.268753 
	C722.662231,219.808792 721.459717,215.305115 720.138916,210.836746 
	C718.087341,203.896027 718.066345,203.902222 724.719482,201.834686 
	C724.383423,192.459976 723.764221,191.929977 714.749878,192.148010 
	C708.398193,192.301651 702.154297,193.169250 695.142334,194.613525 
M387.936981,106.346504 
	C388.768707,105.306091 389.552765,104.223038 390.439240,103.231560 
	C410.060730,81.284546 434.030273,70.254585 463.798859,74.862167 
	C482.797791,77.802818 500.085876,85.561264 516.570618,95.240891 
	C519.013184,96.675140 521.225220,98.781708 524.395447,99.054169 
	C524.892761,95.463226 523.378845,93.348106 520.806091,91.664124 
	C498.235992,76.890808 474.001373,66.988640 446.580627,66.985390 
	C421.169220,66.982376 400.506104,77.154190 384.653198,97.015457 
	C382.500549,99.712349 381.035248,102.673592 382.937073,106.204071 
	C384.174652,108.501396 385.639130,109.064590 387.936981,106.346504 
M661.586304,127.815918 
	C663.482239,125.141075 662.603027,122.177048 662.599487,117.952072 
	C662.067871,121.363548 660.677979,122.193893 658.709656,122.625458 
	C654.156921,123.623627 649.621704,124.716934 645.117126,125.913811 
	C641.606812,126.846504 639.844116,125.824768 639.380188,122.041954 
	C638.144470,111.965714 636.905212,101.879250 635.200867,91.876312 
	C634.507385,87.806137 636.051819,86.501717 639.546143,85.740509 
	C645.365662,84.472755 651.128784,82.946396 656.888489,81.535576 
	C657.165344,74.838470 654.645447,70.311172 649.088623,67.224991 
	C642.939758,63.810028 636.546143,60.997147 629.882141,58.852379 
	C622.081238,56.341724 609.777405,58.121071 603.369141,62.404846 
	C607.807068,64.373871 612.297791,66.165634 616.606995,68.320351 
	C625.372192,72.703186 631.708679,79.155617 633.492310,89.232735 
	C636.180420,104.419807 638.268372,119.692276 640.020874,135.584045 
	C647.199158,133.294006 654.914368,133.299896 661.586304,127.815918 
M108.036522,541.471191 
	C115.046692,549.457031 124.036064,555.720703 129.435562,565.056213 
	C132.279129,569.972534 138.213638,574.266235 133.843384,581.438477 
	C145.113632,579.458496 146.799850,570.548157 141.634277,561.257202 
	C133.730560,547.041260 125.195656,533.030945 111.437691,523.305481 
	C108.734970,521.394897 106.120354,519.229370 103.914764,516.777039 
	C100.748444,513.256470 97.579216,514.104370 94.775551,516.607910 
	C91.989105,519.096069 91.562256,522.334167 94.225304,525.446289 
	C98.658112,530.626526 103.108711,535.791565 108.036522,541.471191 
M596.206970,95.089149 
	C596.523804,87.037224 592.933228,81.933823 585.037598,79.769875 
	C581.355896,78.760841 578.332703,79.191879 576.464905,82.676773 
	C573.006836,89.128777 569.555237,95.631432 568.628601,103.049385 
	C568.164001,106.768799 568.215515,110.611740 571.693298,113.004822 
	C580.728577,119.222046 590.809326,123.460220 601.419800,128.892471 
	C599.642822,117.211227 598.024414,106.572655 596.206970,95.089149 
M359.556274,353.981995 
	C345.607941,379.172974 344.337158,406.866699 342.858887,434.528717 
	C344.612488,423.086548 345.666962,411.507233 347.002319,399.960449 
	C348.354156,388.271362 354.166290,382.644409 365.550323,381.622955 
	C369.021698,381.311493 372.503571,381.062775 375.986023,380.947296 
	C378.450348,380.865601 379.640167,379.825836 379.650757,377.316895 
	C379.686554,368.837769 379.705902,360.357574 380.602081,351.907684 
	C380.741577,350.592529 380.730835,348.709106 379.121521,348.632629 
	C372.983276,348.340820 369.891693,344.525787 368.033569,338.949982 
	C364.219025,343.591309 362.049774,348.445557 359.556274,353.981995 
M676.795471,507.487091 
	C677.079529,497.268829 675.471619,486.920410 679.554260,476.994873 
	C673.579834,476.297485 673.419678,476.411530 673.340759,481.411530 
	C673.293396,484.409821 673.388855,487.411591 673.293274,490.407745 
	C672.735413,507.889618 672.185730,525.405396 666.181396,542.104370 
	C663.162354,550.501038 662.963867,558.896545 663.918884,567.660828 
	C664.906067,576.720520 666.098938,585.818298 664.661133,595.033142 
	C662.480042,609.011292 659.313965,622.783386 656.588623,636.647705 
	C656.240356,638.419312 655.209595,641.071289 658.093018,641.628662 
	C661.209778,642.231140 661.465759,639.478943 661.588440,637.351807 
	C661.970459,630.727722 664.317627,624.720825 666.954895,618.755981 
	C671.546326,608.371338 674.422668,597.583313 671.682556,586.252319 
	C667.417725,568.616272 668.269775,551.338928 673.829773,534.149841 
	C676.523804,525.821045 676.926208,517.167114 676.795471,507.487091 
M513.226685,63.714188 
	C508.159454,66.197197 503.212097,68.818428 500.484314,74.441086 
	C507.229462,78.319878 513.780457,81.896919 520.118835,85.817703 
	C522.986877,87.591805 525.360657,87.867805 528.419556,86.251129 
	C536.222046,82.127365 544.202576,78.341644 552.081055,74.359520 
	C553.340820,73.722794 555.027222,73.419426 555.299011,71.214272 
	C551.825806,67.667084 546.772278,66.517754 542.605103,63.909130 
	C533.089661,57.952435 523.577148,57.935833 513.226685,63.714188 
M777.820923,196.463654 
	C777.536499,193.732880 777.542847,190.931274 776.002319,188.265915 
	C762.793945,203.849655 743.527161,203.981674 725.554810,208.530014 
	C726.507751,212.033325 727.571655,215.157990 728.173523,218.369247 
	C728.834106,221.893936 730.769226,223.034958 734.153137,222.704697 
	C746.465027,221.503143 758.711182,219.900467 769.813904,213.980682 
	C782.368835,207.286667 779.508118,209.638382 777.820923,196.463654 
M522.758606,450.497345 
	C523.432739,433.909424 524.186218,417.324097 524.734436,400.732025 
	C524.907532,395.493927 523.203552,394.616364 517.080933,394.220123 
	C512.030823,393.893250 512.345154,396.890167 512.274048,400.207764 
	C511.850555,419.973816 511.638062,439.751312 510.724274,459.495758 
	C510.455750,465.298004 510.247955,466.022644 517.206360,465.857422 
	C520.685913,465.774841 522.281799,463.635437 522.518677,460.440887 
	C522.739624,457.461517 522.678955,454.461243 522.758606,450.497345 
M569.359741,308.854034 
	C559.315918,323.999207 548.064941,338.227356 536.570007,352.280945 
	C533.191406,356.411530 530.120300,360.970490 529.450256,366.393555 
	C528.512451,373.983490 528.176331,381.646332 527.484741,389.269073 
	C527.268738,391.649750 528.226685,392.500610 530.517517,392.751526 
	C534.543762,393.192505 534.631165,391.096069 534.509460,387.909912 
	C534.099976,377.189240 535.491577,367.002625 543.963562,359.073303 
	C547.502869,355.760712 550.125122,351.620270 552.481140,347.397491 
	C561.559692,331.125305 569.668152,314.248932 582.275269,300.202698 
	C583.027771,299.364319 584.025574,298.358917 582.812927,297.188049 
	C581.579346,295.996948 580.655396,297.077972 579.865784,297.881409 
	C576.481201,301.325012 573.145508,304.816620 569.359741,308.854034 
M660.473083,265.005829 
	C659.291138,263.491547 659.361206,261.162415 657.311707,260.065247 
	C642.042847,275.109772 627.212463,290.518677 610.906067,304.451935 
	C614.069580,305.291595 617.138672,304.319733 619.996399,303.202759 
	C634.040955,297.712891 647.118774,290.434052 658.679138,280.715576 
	C666.311218,274.299438 666.129822,274.083679 660.473083,265.005829 
M590.904175,254.397644 
	C586.858704,257.305908 582.797119,260.192139 578.777222,263.135315 
	C577.494873,264.074219 575.485718,264.980865 576.849182,267.013062 
	C580.326355,272.195862 584.000427,277.246613 587.920593,282.811462 
	C596.717041,270.820435 609.929016,267.645477 622.476074,261.910614 
	C615.510986,258.501251 608.785583,256.920319 602.938477,253.382416 
	C599.331665,251.200043 595.444153,249.297287 598.506409,243.855011 
	C599.161865,242.690063 598.601990,240.841248 598.601990,237.860870 
	C597.097900,244.668442 595.598083,249.922928 590.904175,254.397644 
M298.280548,432.295990 
	C313.932251,460.628235 317.636047,491.423401 317.206421,523.359314 
	C321.030060,523.171570 323.157257,521.545898 323.753265,517.201355 
	C325.067444,507.621613 322.877350,498.405304 321.706329,489.052734 
	C319.529785,471.669128 315.899506,454.706299 308.763794,438.586304 
	C305.498413,431.209595 300.818420,425.095795 294.349640,419.140808 
	C292.105408,425.136841 296.593048,427.899261 298.280548,432.295990 
M617.577576,140.288345 
	C614.249329,135.882721 609.449768,140.883759 605.280090,137.478455 
	C606.913940,150.223190 609.269226,161.748123 612.120850,173.261353 
	C621.373718,170.006775 629.711731,171.606171 638.039429,175.185867 
	C635.445190,170.963104 632.734314,167.239731 629.852844,163.653366 
	C623.273621,155.464737 622.873169,152.312668 627.599548,143.541122 
	C624.614929,142.059509 620.912109,142.950897 617.577576,140.288345 
M403.379608,432.285370 
	C404.137756,416.829803 404.971100,401.377411 405.614014,385.917053 
	C405.845367,380.353577 404.080383,378.918243 398.506989,379.365601 
	C394.376038,379.697174 391.510101,383.054474 391.386536,388.093781 
	C391.243561,393.923920 391.127197,399.741882 390.432861,405.547150 
	C390.160706,407.822479 389.779327,410.289642 390.943909,412.435333 
	C394.658173,419.278778 398.175995,426.245605 403.379608,432.285370 
M387.126312,266.281830 
	C368.107086,236.475601 363.440857,203.060684 363.556732,168.685181 
	C359.657684,168.420700 358.353424,169.760101 358.328735,172.699265 
	C358.191559,189.029007 358.624603,205.311584 363.354584,221.113678 
	C369.603546,241.990341 379.020782,261.373871 391.447296,279.271393 
	C392.536041,280.839478 393.420013,283.207886 397.398560,282.702148 
	C393.877136,277.063599 390.701630,271.978943 387.126312,266.281830 
M344.542694,132.744690 
	C342.181885,138.700424 338.669006,140.699722 334.057739,138.712021 
	C328.019867,136.109375 326.574310,129.132156 330.427124,120.648483 
	C328.380096,120.909904 326.404968,121.047646 324.480804,121.437126 
	C322.126251,121.913727 321.002197,123.483131 321.725647,125.830765 
	C325.392975,137.732117 329.114441,149.617065 332.881653,161.487213 
	C334.071167,165.235306 336.673950,166.706360 340.605103,165.940720 
	C344.842957,165.115326 349.090790,164.288177 353.370300,163.746078 
	C356.942078,163.293655 357.794922,161.735138 356.724731,158.355530 
	C352.862335,146.158035 349.164551,133.908447 345.401550,121.679451 
	C344.424866,118.505318 342.615295,117.340569 339.101044,119.389366 
	C342.519409,122.997002 345.890961,126.556900 344.542694,132.744690 
M630.193604,195.518753 
	C631.432190,192.006348 629.465271,188.632965 629.743042,185.164444 
	C630.037903,181.483170 628.297729,180.269287 624.703430,180.230331 
	C618.070557,180.158493 611.412537,179.926407 605.079407,177.465866 
	C598.638000,174.963242 591.350342,178.139908 588.036072,185.048141 
	C591.559265,185.982605 595.152161,186.649979 598.208984,188.727341 
	C607.746826,195.209030 618.739685,195.522003 630.193604,195.518753 
M453.605316,303.930664 
	C491.674530,301.236206 527.454407,291.486389 559.224609,269.514038 
	C556.668030,270.495819 554.266479,271.825592 551.870789,273.165710 
	C526.095459,287.583984 498.356750,295.723419 469.130402,299.229340 
	C449.743622,301.554932 430.369873,303.055939 411.026733,299.103790 
	C406.218994,298.121490 401.577820,299.407593 396.178528,298.942413 
	C398.782288,303.004333 401.592163,305.391144 405.876587,304.406799 
	C410.043030,303.449585 414.158813,303.685974 418.291443,304.075439 
	C429.761993,305.156464 441.219452,305.085419 453.605316,303.930664 
M662.872986,134.538589 
	C656.811523,137.972214 649.805359,138.675339 642.582153,141.098663 
	C644.004883,141.620407 644.608459,141.850693 645.218018,142.063950 
	C654.528381,145.320953 665.087891,144.353806 673.529114,150.726440 
	C675.956055,152.558594 677.071472,149.135773 678.794922,148.172226 
	C680.644226,147.138290 681.124329,145.407959 680.293701,143.446243 
	C678.409424,138.995865 678.534363,134.429916 679.039246,129.723892 
	C679.667358,123.869492 674.794556,118.821487 668.555298,118.944237 
	C668.264587,124.388405 669.111328,130.426651 662.872986,134.538589 
M352.483612,345.990387 
	C344.139191,368.512634 337.236755,391.325134 338.524536,415.779236 
	C339.306305,412.082336 339.862915,408.346252 340.390320,404.606110 
	C340.529419,403.619781 340.587433,402.621460 340.667450,401.627411 
	C342.826324,374.812744 353.112762,351.180176 368.857330,329.692749 
	C371.704132,325.807617 375.333557,322.228821 376.170563,317.356445 
	C377.438232,309.976837 379.188568,302.844360 383.062561,296.238770 
	C378.148834,299.007385 373.715607,302.155182 372.453400,307.948212 
	C371.338104,313.066956 369.269043,317.740112 366.645050,322.198364 
	C362.090332,329.937042 357.459717,337.631073 352.483612,345.990387 
M538.052795,123.632416 
	C538.954346,126.835197 539.843628,130.041504 540.759583,133.240173 
	C544.612122,146.693909 544.615112,146.693024 558.959167,145.635605 
	C559.125305,145.623383 559.291992,145.618057 559.458435,145.610382 
	C563.732605,145.413177 565.520813,143.187164 564.567383,139.030472 
	C561.329895,124.916420 557.996338,110.824402 554.758423,96.710464 
	C554.046387,93.606697 552.425598,92.685493 549.402405,93.870834 
	C555.352112,101.332726 556.246216,108.399460 551.895142,113.286148 
	C548.844849,116.711922 545.323792,116.792488 541.570557,114.489037 
	C538.834961,112.810158 537.626221,110.099045 536.597900,107.228546 
	C534.898132,102.483696 537.220886,98.593445 539.515198,94.533546 
	C536.327637,94.299904 533.545776,94.258896 530.656677,96.034653 
	C532.291748,105.144547 535.349976,113.927696 538.052795,123.632416 
M636.826355,272.438751 
	C637.793945,271.169098 639.612854,270.538788 639.761536,268.521515 
	C634.991943,265.961212 630.702271,265.526947 626.178589,269.548889 
	C621.979309,273.282410 617.103455,276.257904 612.079163,278.873474 
	C605.482849,282.307404 602.161987,288.710754 597.449768,294.070282 
	C604.205811,297.417450 611.844788,296.505737 616.628845,291.945648 
	C623.238770,285.645203 629.765564,279.257599 636.826355,272.438751 
M358.394409,116.279541 
	C361.227142,125.689651 364.059875,135.099762 366.892639,144.509857 
	C369.430664,140.405350 370.946075,137.214081 367.873352,132.604553 
	C362.394257,124.385056 366.264404,116.587311 375.726654,114.636238 
	C376.318146,114.514290 376.851227,114.108978 377.786438,113.652466 
	C375.778809,107.437614 374.232452,101.268585 370.856018,95.446365 
	C366.701019,97.441116 364.528900,101.047104 361.300720,103.243225 
	C356.455139,106.539650 355.414154,110.455986 358.394409,116.279541 
M650.747437,87.981255 
	C649.282959,88.290840 647.810913,88.568619 646.355286,88.915497 
	C639.774963,90.483719 639.648621,90.718124 640.638672,97.276436 
	C641.283508,101.547905 641.781494,105.841461 642.420654,110.113831 
	C644.277283,122.523224 644.334351,122.545509 656.460632,118.093018 
	C656.600647,118.041580 656.693542,117.861458 657.214600,117.317093 
	C656.034302,108.314781 654.812073,98.942177 653.568542,89.572395 
	C653.412598,88.397339 652.614319,87.896904 650.747437,87.981255 
M705.382935,63.216080 
	C699.843811,61.968124 695.299927,65.231842 695.329346,70.750153 
	C695.346924,74.044258 695.985291,77.333923 696.324036,80.627693 
	C696.966492,86.875160 699.556335,88.471886 708.501404,89.260956 
	C714.689819,89.806847 711.893555,85.005211 712.989502,82.525520 
	C713.320496,81.776573 713.432129,80.930801 713.645325,80.129669 
	C715.683655,72.470894 713.341431,67.299561 705.382935,63.216080 
M595.171143,159.704330 
	C597.216736,159.286011 600.868164,160.501678 600.314697,156.903687 
	C599.450745,151.287018 598.970520,145.498825 596.886475,140.037079 
	C593.040833,140.508469 589.984497,142.275848 586.776184,143.521820 
	C575.285767,147.984161 575.308655,148.039978 576.090393,160.194260 
	C576.173889,161.492737 576.234985,162.792679 576.340576,164.711456 
	C581.588257,159.140503 588.149109,160.314697 595.171143,159.704330 
M662.048828,176.436981 
	C663.746704,177.389328 665.701172,180.415939 667.359131,177.447144 
	C670.077454,172.579529 673.030212,167.658768 673.760132,161.932144 
	C673.947693,160.460373 673.922791,158.735397 672.706604,157.712326 
	C668.142395,153.872803 663.200378,150.803345 656.880554,150.557175 
	C655.955322,154.114059 655.757080,157.286301 654.410583,160.180847 
	C651.097595,167.302536 651.127747,167.327454 657.232239,172.552383 
	C658.619812,173.740036 660.071289,174.853012 662.048828,176.436981 
M724.884460,77.224144 
	C719.606506,78.135109 716.832336,83.729530 719.135498,88.817345 
	C722.305054,95.819237 733.190491,100.025543 739.899292,96.382736 
	C742.713867,94.854454 744.211914,91.734718 742.786987,88.307304 
	C739.660522,80.786957 733.782104,77.027405 724.884460,77.224144 
M379.864349,341.934875 
	C380.127716,341.000427 380.558746,340.078156 380.627777,339.129517 
	C381.157867,331.845032 381.137299,331.787689 388.323364,331.950531 
	C400.284241,332.221619 412.244202,332.543304 424.202637,332.906464 
	C427.964172,333.020660 431.235504,332.156586 434.414642,328.656982 
	C427.404602,328.316010 421.163086,327.983673 414.918884,327.714874 
	C403.468445,327.221954 392.016266,326.768433 380.565002,326.294434 
	C375.793243,326.096954 374.419830,329.364380 374.532227,333.080231 
	C374.641052,336.678558 372.176575,342.109222 379.864349,341.934875 
M489.280518,313.862061 
	C489.269440,316.018646 489.261108,318.175293 489.246429,320.331848 
	C489.233368,322.250641 489.935883,323.534302 492.068726,323.636047 
	C496.707123,323.857330 501.343231,324.138489 505.983704,324.291840 
	C506.724365,324.316284 507.686584,324.009583 508.196747,323.503571 
	C510.112488,321.603394 510.397400,309.074615 508.464905,307.197205 
	C504.450592,303.297363 499.674561,304.244354 494.882812,305.346252 
	C490.747711,306.297150 489.234131,309.023956 489.280518,313.862061 
M510.350739,384.689697 
	C510.888702,385.223450 511.638153,385.421814 512.106750,384.882294 
	C515.912781,380.500519 520.152527,376.312958 517.523438,369.552002 
	C516.570312,367.100830 516.237427,364.408142 515.624939,361.824860 
	C513.364807,352.292175 511.105988,342.759125 508.685822,332.547455 
	C507.872345,346.618134 507.000916,359.877533 506.434662,373.149902 
	C506.332275,375.549866 505.064545,376.370728 502.930206,377.028503 
	C506.090759,379.217102 508.303864,381.439514 510.350739,384.689697 
M531.801819,400.284760 
	C531.091003,406.513763 530.380249,412.742767 529.675110,418.922760 
	C534.145630,421.159393 538.530701,420.613068 542.803589,420.790497 
	C544.625488,420.866119 545.475891,419.790100 545.631409,418.015808 
	C546.123047,412.406677 546.653137,406.800964 547.200317,400.845459 
	C542.198425,398.996979 537.337524,398.843933 531.801819,400.284760 
M500.961090,334.943634 
	C494.764679,337.384766 488.563293,339.270020 488.174957,348.015717 
	C487.733948,357.946472 496.334076,360.074982 501.310852,366.546051 
	C501.813141,360.172913 502.631226,355.031647 502.504242,349.913818 
	C502.380310,344.917633 504.231384,339.753876 500.961090,334.943634 
M689.449646,86.562347 
	C689.861450,86.302017 690.613708,86.066803 690.635010,85.777672 
	C691.102356,79.442551 690.408508,73.117981 688.136841,67.286690 
	C686.668823,63.518417 682.547119,62.788799 678.700500,63.527939 
	C675.261536,64.188759 675.330688,67.218597 675.229187,69.859398 
	C675.127502,72.506783 675.212341,75.164917 675.302429,77.815384 
	C675.498413,83.579872 677.502319,85.838203 683.227661,86.572197 
	C685.023071,86.802376 686.868042,86.645157 689.449646,86.562347 
M562.931946,239.606552 
	C567.158081,238.951782 570.025330,236.004166 572.132507,232.867020 
	C579.928528,221.260498 587.328430,209.387848 594.872131,197.612000 
	C595.641357,196.411316 596.078674,195.074844 594.937683,193.949768 
	C592.958313,191.997818 590.544983,190.932739 587.699280,191.302750 
	C586.121643,191.507919 585.607971,192.693115 585.359009,194.126480 
	C582.368958,211.338196 573.814575,225.795792 562.931946,239.606552 
M411.782410,294.415802 
	C415.871002,295.161682 419.940582,296.419434 424.051239,296.572357 
	C456.452759,297.777649 488.183929,293.817657 518.850891,283.023895 
	C528.721558,279.549713 538.221802,275.047424 547.242065,269.643738 
	C546.043091,269.725616 544.992493,270.132812 543.971619,270.604156 
	C526.100952,278.854706 507.876923,286.050537 488.483612,289.984619 
	C470.987610,293.533752 453.299866,295.369598 435.501678,296.129608 
	C423.633301,296.636475 412.256927,294.602692 402.209320,287.712158 
	C400.561951,286.582428 399.244629,286.568909 397.739227,287.831604 
	C396.775452,288.640015 396.059662,289.471924 396.408569,290.795776 
	C396.884155,292.600342 398.074768,293.711121 399.936890,293.816132 
	C403.590363,294.022125 407.250763,294.105469 411.782410,294.415802 
M671.201416,704.734802 
	C671.221191,709.210205 671.345825,713.688354 671.225891,718.160034 
	C671.138062,721.436890 672.988159,721.917053 675.653870,721.983948 
	C678.538635,722.056335 679.327820,720.895996 679.160583,718.091553 
	C678.805603,712.139221 678.876282,706.162842 678.612549,700.203308 
	C678.443787,696.388550 677.862305,692.624878 675.966003,689.190063 
	C674.268005,686.114441 671.990784,684.438049 668.005920,685.774963 
	C669.063293,691.825073 670.109680,697.811951 671.201416,704.734802 
M580.167419,232.999359 
	C580.030762,236.743027 580.611755,240.327896 582.817871,243.453125 
	C585.648682,247.463364 588.874695,247.530502 591.491394,243.397018 
	C594.661377,238.389679 595.416260,232.893311 593.908691,227.097351 
	C593.028809,223.714813 592.108276,220.431076 588.007019,218.658936 
	C585.365601,223.302185 582.833069,227.753967 580.167419,232.999359 
M498.591370,475.970154 
	C502.720825,473.862518 504.551514,470.288025 504.688538,465.854126 
	C505.412079,442.438507 506.065125,419.020721 506.736176,395.603516 
	C506.809540,393.043945 506.765411,390.502441 504.789673,387.628693 
	C504.245422,400.335144 504.218536,412.302094 503.109467,424.167908 
	C501.489594,441.499390 504.291595,459.268646 498.591370,475.970154 
M583.320312,126.245033 
	C580.871643,125.142555 578.637756,123.425125 575.760681,123.036491 
	C575.616028,126.187141 577.800598,129.064224 574.373901,131.214828 
	C568.819153,134.700958 568.476257,136.722672 572.165405,143.227798 
	C579.849976,140.121170 587.589050,136.992462 596.040100,133.575958 
	C591.876465,129.918152 587.635132,128.740723 583.320312,126.245033 
M636.669189,162.731293 
	C637.756592,163.696365 638.496521,165.150452 640.327393,165.279694 
	C642.770203,163.991501 643.683350,161.340607 645.151428,159.212326 
	C652.157349,149.055679 651.969238,148.701202 639.536682,146.762146 
	C638.724426,146.635483 637.882263,146.489151 637.075928,146.570175 
	C630.919373,147.188675 628.755554,151.436523 632.016052,156.656769 
	C633.241211,158.618484 634.804077,160.369278 636.669189,162.731293 
M710.014526,113.559799 
	C706.666687,113.896645 703.967163,111.206108 700.640991,111.244553 
	C699.713989,114.433769 701.039551,117.087738 701.594421,119.790604 
	C701.952087,121.532585 702.614319,123.465797 704.930969,123.592239 
	C710.324890,123.886642 715.723022,124.102959 721.503235,124.368546 
	C720.647827,120.197990 721.897278,116.556549 722.029297,112.814774 
	C718.042114,113.131538 714.432800,113.418282 710.014526,113.559799 
M701.259705,103.323906 
	C706.805359,106.882507 712.829529,107.056831 719.298401,106.499512 
	C719.015015,103.699265 718.941650,101.547707 718.545959,99.457130 
	C718.131836,97.268753 717.099609,94.816666 714.620605,95.034500 
	C708.988159,95.529404 703.474792,95.544502 698.101440,93.275429 
	C697.542603,98.005745 697.826111,98.956673 701.259705,103.323906 
M650.511536,186.044312 
	C646.470032,180.562881 643.925232,179.075546 637.920837,181.378845 
	C631.944641,183.671310 637.363220,188.872375 636.324341,192.654709 
	C635.802490,194.554871 636.396790,196.965622 639.340393,196.535645 
	C644.015747,195.852692 648.857910,195.546539 652.857117,192.478928 
	C652.074219,190.422775 651.373596,188.582794 650.511536,186.044312 
M56.339684,582.203369 
	C57.224339,583.799011 57.913036,585.552002 59.038647,586.954224 
	C60.819084,589.172241 62.946281,589.244934 63.905914,586.340027 
	C65.409950,581.787109 66.753227,577.133728 67.571480,572.419922 
	C68.036713,569.739746 66.436775,567.196045 63.263416,567.928345 
	C59.478451,568.801819 56.257328,571.339844 53.999435,574.346802 
	C52.093147,576.885559 55.257172,579.119080 56.339684,582.203369 
M471.266541,491.787476 
	C469.275513,493.120209 467.284454,494.452942 465.293427,495.785706 
	C473.351440,496.659790 481.099915,496.751740 488.844513,496.618500 
	C492.372467,496.557800 492.177795,494.598969 490.475616,492.357758 
	C484.795990,484.879608 482.222565,484.482880 474.393188,489.793213 
	C473.568665,490.352417 472.710388,490.861908 471.266541,491.787476 
M49.666744,621.386658 
	C52.256908,618.693726 55.805607,616.238159 53.780384,611.776123 
	C51.847527,607.517578 48.009949,606.276123 42.360863,607.431335 
	C40.145222,607.884338 38.620438,609.055054 38.580791,611.364746 
	C38.508167,615.595581 44.415665,621.323120 49.666744,621.386658 
M67.102089,613.634460 
	C72.740120,614.402527 76.321381,611.441467 79.885216,607.028931 
	C73.995491,603.754639 67.574776,602.823547 63.668350,597.636353 
	C59.623531,602.675781 60.814323,608.670715 67.102089,613.634460 
M364.858612,155.077713 
	C360.742249,140.970901 356.625916,126.864098 352.485870,112.676109 
	C349.070892,113.728546 349.310944,115.494240 350.034119,117.597183 
	C351.219788,121.044960 352.288422,124.533951 353.360382,128.019699 
	C356.139130,137.055649 358.867981,146.107071 361.691162,155.129028 
	C362.006287,156.135971 362.134644,157.655579 363.645782,157.655273 
	C364.635010,157.655075 364.759766,156.600174 364.858612,155.077713 
M451.463409,488.918213 
	C454.350708,486.318512 454.577881,483.120972 453.064941,479.866211 
	C451.945190,477.457245 449.759277,476.166870 446.995514,476.344452 
	C444.046783,476.533936 442.183594,478.174683 441.088104,480.901764 
	C439.882568,483.902710 440.616669,486.504761 442.736023,488.644531 
	C445.136810,491.068481 447.958771,491.283081 451.463409,488.918213 
M404.307220,469.888062 
	C403.774200,468.678406 403.003357,467.514374 402.760681,466.249023 
	C402.333862,464.023468 401.154175,463.201416 398.962708,463.249512 
	C396.582245,463.301727 395.729126,464.757599 395.558746,466.737610 
	C395.359894,469.048615 395.398163,471.380493 395.347137,473.703613 
	C395.300842,475.812988 396.446228,476.680908 398.449799,476.676636 
	C403.019287,476.666870 407.588745,476.673553 412.158234,476.673553 
	C412.290314,476.197845 412.422424,475.722168 412.554504,475.246460 
	C409.487671,474.301697 406.696442,472.975769 404.307220,469.888062 
M805.905273,365.159454 
	C805.810730,366.313843 805.807678,367.484772 805.602600,368.619171 
	C805.177917,370.968658 806.270447,371.977905 808.468262,372.268311 
	C810.590088,372.548676 812.420349,371.906677 812.478210,369.694031 
	C812.667114,362.471649 812.548950,355.241211 812.548950,347.064423 
	C808.794006,353.045074 804.767456,357.711609 805.905273,365.159454 
M582.236511,59.492340 
	C577.784973,62.317245 572.302734,64.078728 570.558350,70.114189 
	C573.019836,71.468735 575.147888,71.745941 577.320435,71.630898 
	C579.115356,71.535843 581.472534,71.633011 581.274719,69.026436 
	C581.072632,66.364662 582.827332,65.599152 584.484253,64.542191 
	C587.636902,62.530952 590.797668,60.532509 594.885681,57.938164 
	C590.084473,58.204098 586.390869,57.308861 582.236511,59.492340 
M684.929993,115.533287 
	C685.298645,116.080788 685.657288,116.635406 686.037720,117.174568 
	C687.805176,119.679146 690.201965,121.150108 693.226379,120.219406 
	C697.069763,119.036690 694.164673,116.037025 694.522461,113.900528 
	C694.651489,113.130219 694.298279,112.278488 694.161865,111.464462 
	C693.870117,109.723602 694.072632,107.428894 691.423340,107.600075 
	C688.552490,107.785568 685.077759,105.870651 682.952454,108.351082 
	C681.228088,110.363586 682.491821,113.064049 684.929993,115.533287 
M576.162781,279.372894 
	C578.255737,281.953857 580.363342,284.523132 582.437622,287.119049 
	C584.497864,289.697418 586.524597,292.302582 588.566040,294.895966 
	C579.822876,279.931061 566.932007,267.687103 561.866943,250.118271 
	C559.377014,255.335907 559.648254,259.672852 563.315247,263.845825 
	C567.591980,268.712616 571.615662,273.801727 576.162781,279.372894 
M562.247803,185.276962 
	C563.296875,189.486176 565.096191,192.449722 570.774292,189.897202 
	C568.302612,184.428391 568.933350,178.806519 570.725830,173.213730 
	C562.781250,172.858215 560.297546,176.410736 562.247803,185.276962 
M569.220825,76.683800 
	C561.617493,74.698677 555.841980,78.625999 549.749573,82.184669 
	C555.482117,85.077011 564.671326,76.285721 566.636414,89.435158 
	C568.541077,85.607880 569.890503,82.802582 571.327576,80.042915 
	C572.228577,78.312660 571.976135,77.221077 569.220825,76.683800 
M660.650208,187.800293 
	C661.442078,188.408493 662.206787,189.056458 663.030273,189.618378 
	C668.078857,193.063522 673.296997,196.055786 675.325195,202.697418 
	C676.207458,205.586823 679.806152,207.019028 683.560425,206.866638 
	C681.416260,202.749680 662.701355,184.039734 656.269348,179.704666 
	C658.205750,182.662766 658.012939,185.471878 660.650208,187.800293 
M589.753113,168.118729 
	C589.939453,167.380798 590.598206,166.198425 589.445679,166.099106 
	C585.695068,165.775848 582.083801,165.974213 580.452637,170.387314 
	C578.731812,175.042999 579.086914,179.707535 579.794983,184.955704 
	C583.737671,179.506683 588.586548,175.301025 589.753113,168.118729 
M595.545166,288.830627 
	C600.787842,281.116852 607.779846,275.412170 615.933289,271.026398 
	C617.109070,270.393890 618.201538,269.606384 619.332581,268.890594 
	C612.262939,270.794098 605.994812,274.181183 599.719238,277.525543 
	C596.396057,279.296539 594.180969,282.318604 592.343384,285.481567 
	C590.781616,288.169708 591.838318,289.566040 595.545166,288.830627 
M50.733265,591.747864 
	C52.507484,591.203613 53.860901,590.392578 52.771336,588.219849 
	C51.183983,585.054626 49.927170,581.673706 47.089031,578.832214 
	C44.378578,582.268616 41.157997,584.845093 39.572235,588.699463 
	C42.923370,590.809326 43.908398,591.096863 50.733265,591.747864 
M690.852661,101.687584 
	C694.226746,99.386055 691.532593,96.519226 691.246704,94.095764 
	C690.955994,91.631371 688.373352,92.518890 686.656494,92.797401 
	C684.012634,93.226288 681.500305,92.208481 678.770813,91.870598 
	C681.378296,100.260689 682.696899,101.379013 690.852661,101.687584 
M77.350281,619.393188 
	C77.553902,621.229370 77.260490,622.974182 76.635986,624.722656 
	C76.119217,626.169495 76.511429,627.404480 78.287674,627.581360 
	C81.282562,627.879517 84.115021,627.306824 85.275879,624.215271 
	C86.498840,620.958252 86.526344,617.269104 83.271080,615.317078 
	C80.234146,613.496033 78.814339,616.589905 77.350281,619.393188 
M541.943604,99.698151 
	C540.615967,102.590401 540.502930,105.581314 541.994446,108.346832 
	C543.127502,110.447701 544.973328,112.469482 547.595093,110.585335 
	C550.865601,108.234993 550.512512,104.669937 549.188171,101.521591 
	C547.993225,98.680916 545.765137,96.896942 541.943604,99.698151 
M154.635574,560.255981 
	C153.409760,560.728699 152.184921,561.203918 150.957947,561.673645 
	C148.984100,562.429260 148.263992,563.855164 148.467575,565.938416 
	C148.698532,568.301941 150.231888,568.820007 152.218262,568.950012 
	C153.360703,569.024841 154.490662,569.279175 155.628769,569.434204 
	C157.056976,569.628845 158.903336,570.317566 159.432007,568.400391 
	C160.129745,565.870239 160.154465,563.107239 159.218155,560.646912 
	C158.550262,558.891968 156.772354,559.472412 154.635574,560.255981 
M577.003906,196.546341 
	C575.227173,196.227081 573.514954,196.334274 572.990601,198.406006 
	C571.751892,203.300476 570.668152,208.234161 569.448486,213.465942 
	C575.194458,211.778931 579.579651,202.249420 577.003906,196.546341 
M596.382385,208.476868 
	C596.552979,210.899155 597.448975,212.888107 599.944641,214.476044 
	C604.436401,209.682755 602.103271,203.976105 603.696533,198.162369 
	C599.169495,200.800491 598.600647,201.629974 596.382385,208.476868 
M462.391083,324.041656 
	C466.086731,326.950775 471.344299,326.695099 472.298401,323.478485 
	C472.757355,321.931244 473.214996,319.878387 471.599915,318.903015 
	C469.413452,317.582550 466.742004,317.996643 464.341583,318.394470 
	C461.514069,318.863098 462.451050,321.386414 462.391083,324.041656 
M71.057953,620.979614 
	C67.938644,618.884094 64.133987,619.472839 60.909454,618.050842 
	C58.599476,622.893127 58.741814,623.964233 61.677574,625.211304 
	C66.584076,627.295532 69.948761,626.045227 71.057953,620.979614 
M688.776550,219.352631 
	C689.077148,212.445923 683.350830,214.553619 679.546265,212.749771 
	C680.141296,217.349686 681.687012,220.496078 685.428772,222.438461 
	C688.274536,223.915802 688.980103,222.774368 688.776550,219.352631 
M547.451782,256.080109 
	C547.250977,259.304047 546.981079,263.014771 551.363159,263.131866 
	C553.652893,263.193024 554.287415,260.184113 554.458435,258.043396 
	C554.637939,255.797211 553.842773,253.638336 551.597351,252.712219 
	C549.243835,251.741531 548.427917,253.668045 547.451782,256.080109 
M333.416809,125.900146 
	C332.262085,127.951164 332.270905,130.047195 333.495392,132.006714 
	C334.584076,133.748840 336.068817,135.462936 338.275879,133.823120 
	C340.667816,132.045959 340.321381,129.410965 339.228607,127.081497 
	C338.154938,124.792747 336.506378,123.177101 333.416809,125.900146 
M31.421274,588.960388 
	C36.256676,582.112488 41.594204,575.675049 47.160362,569.416687 
	C39.252865,573.607666 33.699295,579.776001 31.421274,588.960388 
M355.236603,102.198586 
	C355.718048,101.433784 356.999420,101.207596 356.660553,99.230446 
	C351.280457,104.679024 342.093109,99.649048 336.703064,107.897804 
	C343.371704,105.627960 349.689636,106.469933 355.236603,102.198586 
M558.119019,228.680649 
	C556.043884,233.962387 554.192383,239.303986 553.664978,245.012146 
	C555.181213,237.330292 563.714966,232.283783 561.704590,223.099640 
	C560.223572,224.567276 558.963806,226.036255 558.119019,228.680649 
M562.130676,70.078812 
	C563.556152,70.673508 564.382751,69.948990 564.761414,68.705513 
	C566.215271,63.931091 569.462585,60.575500 573.335510,57.609272 
	C568.608521,58.393475 564.850769,60.807842 561.723511,64.268776 
	C560.175049,65.982437 560.257263,67.843124 562.130676,70.078812 
M575.795898,239.042755 
	C572.168518,239.920578 569.017700,242.355804 569.980652,245.847839 
	C571.021973,249.623932 574.731140,246.749969 577.279175,246.616226 
	C577.694519,246.594406 578.086304,246.125259 578.473083,245.873230 
	C577.557129,243.542709 576.773376,241.548599 575.795898,239.042755 
M95.211731,614.652283 
	C97.426666,612.642883 97.195984,610.573242 95.075974,608.780396 
	C91.891876,606.087524 90.254936,609.133362 87.832680,610.712585 
	C89.878036,613.002441 90.316116,616.914001 95.211731,614.652283 
M584.028870,253.824402 
	C584.681946,253.192078 585.935181,252.955780 585.519775,251.604111 
	C580.384705,251.202454 575.069153,254.917038 572.895569,260.752228 
	C577.220032,259.419250 580.125977,256.411865 584.028870,253.824402 
M670.740234,97.720215 
	C670.053406,96.142601 669.366638,94.564987 668.679810,92.987366 
	C670.189453,98.031235 667.964111,103.805038 671.373413,108.955956 
	C675.435974,104.754341 672.741638,101.601486 670.740234,97.720215 
M46.477943,597.801392 
	C44.154823,596.468506 41.704029,595.905640 38.904034,596.233398 
	C39.352001,599.080933 39.456890,601.909729 43.068542,601.553955 
	C44.889935,601.374451 47.875034,601.972351 46.477943,597.801392 
M521.220032,389.620850 
	C524.219482,386.955475 523.424377,383.398712 523.746643,379.269623 
	C522.220764,381.316101 521.037170,382.666992 520.130554,384.183380 
	C519.148499,385.825958 517.213867,386.919434 517.101379,389.055298 
	C518.182556,390.025024 519.376648,389.695587 521.220032,389.620850 
M375.565277,125.199684 
	C375.911530,123.796600 377.285156,122.729149 376.949493,121.087631 
	C371.124237,121.379433 370.151672,123.347801 373.087891,128.881134 
	C374.610596,128.414612 374.585083,126.845169 375.565277,125.199684 
M602.159119,166.935226 
	C598.677979,165.235443 596.934204,166.724335 595.127319,171.000702 
	C598.736633,169.350189 601.276672,170.450470 603.711060,170.284363 
	C604.033142,168.818268 603.310730,168.105972 602.159119,166.935226 
M346.784576,94.288406 
	C345.776672,94.669136 344.453888,94.680405 344.411011,96.616974 
	C347.367371,96.978546 350.037384,96.799576 352.383514,94.435646 
	C350.582642,93.349861 348.999542,93.732849 346.784576,94.288406 
z"/>
<path fill="#000000" opacity="1.000000" stroke="none" 
	d="
M543.068970,523.007324 
	C537.343750,520.488586 534.802673,516.591736 534.351135,510.492798 
	C533.505371,499.068420 531.446411,487.682861 532.600342,476.206177 
	C534.665955,455.663605 549.372742,446.244293 569.069519,452.515717 
	C586.393921,458.031799 594.496765,468.846252 596.410339,487.842773 
	C597.184448,495.527893 596.879028,503.089111 596.388123,510.724365 
	C596.162659,514.231567 594.097351,516.261658 591.487244,517.745361 
	C583.086670,522.520691 574.350891,526.626648 565.264709,529.942322 
	C562.662231,530.892029 560.012756,530.723816 557.472290,529.578247 
	C552.773071,527.459290 548.086487,525.312378 543.068970,523.007324 
M577.000427,462.999390 
	C577.000427,462.999390 577.028809,463.018402 576.589600,462.494232 
	C571.337036,458.652008 565.269165,457.050690 558.951660,456.412231 
	C550.892639,455.597748 545.281067,459.534119 541.432861,466.272644 
	C539.176147,470.224426 538.063660,474.530212 538.086304,479.131927 
	C538.120605,486.105194 538.442749,493.046356 539.184937,499.992188 
	C541.201172,518.860229 538.244568,513.341187 554.583740,522.276306 
	C560.363403,525.436951 565.649963,524.834106 571.284058,520.916504 
	C573.901855,519.596863 576.519653,518.277222 579.846313,516.853394 
	C584.078308,515.134277 589.984253,514.328735 590.459290,509.075439 
	C591.538391,497.142151 591.681030,485.029144 586.742676,473.681702 
	C584.762695,469.132202 582.358398,464.595184 577.000427,462.999390 
z"/>
<path fill="#000000" opacity="1.000000" stroke="none" 
	d="
M420.831482,539.762573 
	C429.287231,543.948303 433.036591,551.552551 430.875366,559.501648 
	C428.598480,567.876160 420.799225,572.863159 413.104980,570.864380 
	C404.744965,568.692627 399.734711,559.440063 402.203735,550.732605 
	C404.678284,542.005615 411.619781,537.784973 420.831482,539.762573 
M417.224976,543.776733 
	C411.954559,543.625793 408.894531,546.698669 406.980652,551.109375 
	C404.662994,556.450806 407.635651,563.456116 413.001831,565.775085 
	C417.726898,567.817078 423.317413,565.266479 425.627106,560.015076 
	C428.638092,553.169312 425.459778,546.524719 417.224976,543.776733 
z"/>
<path fill="#000000" opacity="1.000000" stroke="none" 
	d="
M477.618958,572.725586 
	C469.275848,568.263184 466.026001,560.848999 468.537292,552.657043 
	C470.963745,544.741882 477.887939,540.391968 485.736847,541.852051 
	C492.927704,543.189697 497.865265,550.618896 497.331299,559.297302 
	C496.860718,566.945190 491.178925,573.011108 483.867950,573.439941 
	C481.920288,573.554199 479.938354,573.083374 477.618958,572.725586 
M478.824463,547.081421 
	C477.745850,547.848206 476.522949,548.474365 475.614349,549.406799 
	C472.244904,552.864502 471.410370,558.393921 473.654541,562.858154 
	C475.686646,566.900391 478.823090,569.296570 483.640594,568.798401 
	C489.312897,568.211853 493.416260,562.415833 492.683197,555.975403 
	C491.916107,549.236084 486.821716,545.665344 478.824463,547.081421 
z"/>
<path fill="#000000" opacity="1.000000" stroke="none" 
	d="
M442.205933,549.060669 
	C446.978149,545.849121 451.600525,545.622192 456.068207,548.534241 
	C459.691498,550.895996 461.354919,554.463196 460.633606,558.835571 
	C459.820129,563.766724 456.287933,567.330139 451.332184,567.941772 
	C446.499725,568.538208 442.472687,566.897644 439.884888,562.557739 
	C437.482452,558.528687 438.247620,553.748535 442.205933,549.060669 
M453.491943,561.899170 
	C456.554718,558.984314 456.996918,555.784302 453.797119,552.864197 
	C451.141174,550.440430 447.992401,550.521423 445.184082,552.856079 
	C442.798462,554.839478 442.407440,557.557556 443.996460,560.030273 
	C446.110901,563.320557 449.096588,564.777161 453.491943,561.899170 
z"/>
<path fill="#000000" opacity="1.000000" stroke="none" 
	d="
M489.179321,431.890442 
	C488.803833,440.014587 488.526154,447.659668 488.052673,455.292572 
	C487.591309,462.730042 484.659576,465.592224 477.360016,465.353210 
	C459.579742,464.771027 441.803223,464.052582 424.031281,463.252747 
	C418.577698,463.007294 415.774200,459.745697 415.654877,454.156281 
	C415.210541,433.345795 417.702118,412.639740 417.885132,391.845276 
	C417.938690,385.762665 421.497314,382.535400 427.455780,382.723053 
	C445.405609,383.288361 463.352509,383.996552 481.290436,384.859711 
	C487.544128,385.160645 490.575653,388.694977 490.409302,394.999573 
	C490.088989,407.137329 489.606598,419.270813 489.179321,431.890442 
M423.319458,458.512421 
	C440.780304,459.265320 458.239044,460.073822 475.703156,460.741821 
	C482.073029,460.985474 483.540771,459.383453 483.663757,452.873840 
	C483.742462,448.710480 483.743134,444.544037 483.911530,440.384338 
	C484.510620,425.587219 485.138214,410.791138 485.820190,395.997650 
	C485.999390,392.110840 484.980164,389.507263 480.479004,389.338867 
	C463.344330,388.697754 446.211212,388.008423 429.081726,387.241943 
	C425.034332,387.060822 422.615723,388.542206 422.441864,392.755829 
	C421.611542,412.879150 420.812225,433.003784 420.027893,453.128967 
	C419.946045,455.228821 420.515472,457.099243 423.319458,458.512421 
z"/>
<path fill="#000000" opacity="1.000000" stroke="none" 
	d="
M334.300110,153.339935 
	C333.695190,148.137680 334.771973,143.868393 339.513275,141.752594 
	C343.378815,140.027588 346.598907,141.882294 349.086090,144.936081 
	C351.973480,148.481247 352.302460,154.742661 349.927856,158.416885 
	C347.235504,162.582748 341.874146,163.123840 337.913208,159.608963 
	C336.126678,158.023621 335.095306,155.969299 334.300110,153.339935 
M339.896545,147.315262 
	C338.095032,150.013748 338.380615,152.699646 340.242249,155.158356 
	C342.087250,157.595062 345.132965,157.411484 346.293091,154.825302 
	C347.215881,152.768127 347.134277,150.569138 345.889038,148.626953 
	C344.596558,146.611237 342.826385,145.623291 339.896545,147.315262 
z"/>
<path fill="#000000" opacity="1.000000" stroke="none" 
	d="
M561.087280,127.320908 
	C561.484436,129.172867 561.931274,130.622757 562.043335,132.098083 
	C562.369385,136.391693 559.436218,141.023499 555.607849,142.369202 
	C551.172791,143.928162 547.847717,142.092102 545.163025,138.708267 
	C544.246643,137.553207 543.446289,136.238190 542.893188,134.874481 
	C540.453308,128.859314 542.915161,121.549080 548.006653,119.396698 
	C552.947144,117.308144 558.063904,120.278549 561.087280,127.320908 
M552.080872,123.486809 
	C546.514954,124.468422 544.742676,129.781693 548.243530,135.096451 
	C549.359863,136.791138 550.736938,138.366486 552.984070,138.125641 
	C555.449524,137.861435 556.711487,135.924332 557.219482,133.798462 
	C558.266663,129.415863 556.425964,126.120239 552.080872,123.486809 
z"/>
<path fill="#000000" opacity="1.000000" stroke="none" 
	d="
M579.137390,516.957520 
	C576.519653,518.277222 573.901855,519.596863 570.713989,521.080078 
	C565.253113,523.144226 560.737183,523.891052 555.322632,521.617065 
	C545.731201,517.588867 539.527161,512.373169 539.980408,500.786163 
	C540.328552,491.887604 537.679688,482.918854 539.871765,473.965363 
	C543.071533,460.895905 551.889709,455.559784 564.901367,458.493378 
	C569.181458,459.458344 572.894531,461.764160 577.028809,463.018402 
	C577.028809,463.018402 577.000427,462.999390 577.161072,463.275269 
	C587.891357,472.068665 589.014282,484.248169 589.858398,496.428253 
	C590.475525,505.332367 589.011108,513.409241 579.137390,516.957520 
M584.234497,506.319366 
	C585.277771,496.291107 585.129150,486.323242 581.485657,476.785767 
	C577.906494,467.416687 564.685974,460.379517 555.382019,462.536072 
	C548.020935,464.242310 542.570618,474.571594 543.502930,485.070801 
	C544.061707,491.363953 544.829651,497.645996 545.141968,503.950958 
	C545.364197,508.436249 546.280579,512.096558 550.996704,513.894958 
	C554.986633,515.416443 558.619019,519.709412 562.809326,518.471252 
	C570.514526,516.194458 578.211975,513.244446 584.234497,506.319366 
z"/>
</svg>